G04 (Genere par PCBNEW (2007-02-16)) le 19/10/2007-20:57:58*
G01*
G70*
G90*
%MOIN*%
G04 Gerber Fmt 3.4, Leading zero omitted, Abs format*
%FSLAX34Y34*%
G04 APERTURE LIST*
%ADD10C,0.015000*%
%ADD11R,0.035000X0.055000*%
%ADD12R,0.055000X0.035000*%
%ADD13R,0.080000X0.060000*%
%ADD14R,0.060000X0.080000*%
%ADD15R,0.045000X0.020000*%
%ADD16R,0.030000X0.020000*%
%ADD17R,0.036000X0.036000*%
%ADD18R,0.050000X0.016000*%
%ADD19R,0.016000X0.050000*%
%ADD20R,0.118100X0.078700*%
G04 APERTURE END LIST*
G54D10*
X41750Y-99150D02*
X41654Y-99628D01*
X41654Y-99628D02*
X41383Y-100033D01*
X41383Y-100033D02*
X40978Y-100304D01*
X40978Y-100304D02*
X40500Y-100400D01*
X40500Y-100400D02*
X40022Y-100304D01*
X40022Y-100304D02*
X39617Y-100033D01*
X39617Y-100033D02*
X39346Y-99628D01*
X39346Y-99628D02*
X39250Y-99150D01*
X39250Y-99150D02*
X39346Y-98672D01*
X39346Y-98672D02*
X39617Y-98267D01*
X39617Y-98267D02*
X40022Y-97996D01*
X40022Y-97996D02*
X40500Y-97900D01*
X40500Y-97900D02*
X40978Y-97996D01*
X40978Y-97996D02*
X41383Y-98267D01*
X41383Y-98267D02*
X41654Y-98672D01*
X41654Y-98672D02*
X41750Y-99150D01*
X38000Y-99150D02*
X43000Y-99150D01*
X40500Y-96650D02*
X40500Y-101650D01*
X63450Y-99150D02*
X63354Y-99628D01*
X63354Y-99628D02*
X63083Y-100033D01*
X63083Y-100033D02*
X62678Y-100304D01*
X62678Y-100304D02*
X62200Y-100400D01*
X62200Y-100400D02*
X61722Y-100304D01*
X61722Y-100304D02*
X61317Y-100033D01*
X61317Y-100033D02*
X61046Y-99628D01*
X61046Y-99628D02*
X60950Y-99150D01*
X60950Y-99150D02*
X61046Y-98672D01*
X61046Y-98672D02*
X61317Y-98267D01*
X61317Y-98267D02*
X61722Y-97996D01*
X61722Y-97996D02*
X62200Y-97900D01*
X62200Y-97900D02*
X62678Y-97996D01*
X62678Y-97996D02*
X63083Y-98267D01*
X63083Y-98267D02*
X63354Y-98672D01*
X63354Y-98672D02*
X63450Y-99150D01*
X59700Y-99150D02*
X64700Y-99150D01*
X62200Y-96650D02*
X62200Y-101650D01*
X63450Y-25050D02*
X63354Y-25528D01*
X63354Y-25528D02*
X63083Y-25933D01*
X63083Y-25933D02*
X62678Y-26204D01*
X62678Y-26204D02*
X62200Y-26300D01*
X62200Y-26300D02*
X61722Y-26204D01*
X61722Y-26204D02*
X61317Y-25933D01*
X61317Y-25933D02*
X61046Y-25528D01*
X61046Y-25528D02*
X60950Y-25050D01*
X60950Y-25050D02*
X61046Y-24572D01*
X61046Y-24572D02*
X61317Y-24167D01*
X61317Y-24167D02*
X61722Y-23896D01*
X61722Y-23896D02*
X62200Y-23800D01*
X62200Y-23800D02*
X62678Y-23896D01*
X62678Y-23896D02*
X63083Y-24167D01*
X63083Y-24167D02*
X63354Y-24572D01*
X63354Y-24572D02*
X63450Y-25050D01*
X59700Y-25050D02*
X64700Y-25050D01*
X62200Y-22550D02*
X62200Y-27550D01*
X41750Y-25050D02*
X41654Y-25528D01*
X41654Y-25528D02*
X41383Y-25933D01*
X41383Y-25933D02*
X40978Y-26204D01*
X40978Y-26204D02*
X40500Y-26300D01*
X40500Y-26300D02*
X40022Y-26204D01*
X40022Y-26204D02*
X39617Y-25933D01*
X39617Y-25933D02*
X39346Y-25528D01*
X39346Y-25528D02*
X39250Y-25050D01*
X39250Y-25050D02*
X39346Y-24572D01*
X39346Y-24572D02*
X39617Y-24167D01*
X39617Y-24167D02*
X40022Y-23896D01*
X40022Y-23896D02*
X40500Y-23800D01*
X40500Y-23800D02*
X40978Y-23896D01*
X40978Y-23896D02*
X41383Y-24167D01*
X41383Y-24167D02*
X41654Y-24572D01*
X41654Y-24572D02*
X41750Y-25050D01*
X38000Y-25050D02*
X43000Y-25050D01*
X40500Y-22550D02*
X40500Y-27550D01*
X40500Y-25050D02*
X42350Y-25050D01*
X40500Y-99150D02*
X40500Y-25050D01*
X62200Y-99150D02*
X40500Y-99150D01*
X62200Y-97150D02*
X62200Y-99150D01*
X62200Y-51875D02*
X62200Y-97150D01*
X62200Y-25050D02*
X62200Y-25125D01*
X42350Y-25050D02*
X62200Y-25050D01*
X42350Y-25125D02*
X42350Y-25050D01*
X62200Y-51875D02*
X62200Y-25125D01*
G54D11*
X54725Y-54450D03*
X55475Y-54450D03*
G54D12*
X54100Y-56125D03*
X54100Y-56875D03*
X55100Y-90275D03*
X55100Y-91025D03*
G54D11*
X55455Y-53380D03*
X54705Y-53380D03*
G54D12*
X55580Y-94045D03*
X55580Y-94795D03*
G54D11*
X52500Y-52400D03*
X53250Y-52400D03*
X53445Y-43000D03*
X54195Y-43000D03*
G54D12*
X57575Y-61525D03*
X57575Y-62275D03*
X55350Y-80825D03*
X55350Y-80075D03*
G54D11*
X49525Y-27300D03*
X50275Y-27300D03*
X46625Y-26300D03*
X47375Y-26300D03*
X48025Y-26800D03*
X48775Y-26800D03*
X54325Y-28800D03*
X55075Y-28800D03*
X51125Y-27800D03*
X51875Y-27800D03*
X52725Y-28300D03*
X53475Y-28300D03*
X52900Y-30875D03*
X53650Y-30875D03*
X52725Y-29400D03*
X53475Y-29400D03*
X54700Y-30300D03*
X55450Y-30300D03*
G54D12*
X48300Y-49375D03*
X48300Y-48625D03*
G54D11*
X53500Y-31775D03*
X54250Y-31775D03*
G54D12*
X54250Y-32625D03*
X54250Y-33375D03*
X48925Y-50800D03*
X48925Y-50050D03*
X59540Y-66855D03*
X59540Y-66105D03*
X60500Y-66875D03*
X60500Y-66125D03*
X50875Y-52700D03*
X50875Y-51950D03*
X49700Y-52675D03*
X49700Y-51925D03*
X50275Y-50525D03*
X50275Y-49775D03*
X52875Y-55000D03*
X52875Y-54250D03*
X51425Y-50950D03*
X51425Y-50200D03*
X52075Y-53975D03*
X52075Y-53225D03*
X56150Y-63600D03*
X56150Y-62850D03*
X54650Y-59600D03*
X54650Y-58850D03*
X55400Y-61025D03*
X55400Y-60275D03*
X53750Y-92500D03*
X53750Y-91750D03*
X59800Y-95915D03*
X59800Y-95165D03*
X57550Y-63825D03*
X57550Y-63075D03*
G54D13*
X57160Y-93130D03*
X57160Y-94430D03*
G54D14*
X52400Y-91650D03*
X51100Y-91650D03*
G54D15*
X49050Y-94250D03*
X51150Y-94250D03*
X49050Y-94750D03*
X49050Y-95250D03*
X49050Y-95750D03*
X51150Y-94750D03*
X51150Y-95250D03*
X51150Y-95750D03*
G54D16*
X53800Y-94065D03*
X53800Y-94815D03*
X52800Y-94065D03*
X53800Y-94440D03*
X52800Y-94815D03*
G54D17*
X56050Y-40050D03*
X56050Y-40750D03*
X56850Y-40400D03*
X58950Y-38950D03*
X58950Y-39650D03*
X59750Y-39300D03*
X59700Y-40150D03*
X59700Y-40850D03*
X60500Y-40500D03*
X58650Y-41900D03*
X58650Y-42600D03*
X59450Y-42250D03*
X57400Y-41000D03*
X57400Y-41700D03*
X58200Y-41350D03*
X60000Y-42600D03*
X60000Y-43300D03*
X60800Y-42950D03*
G54D18*
X52650Y-48700D03*
X52650Y-48385D03*
X52650Y-48070D03*
X52650Y-47755D03*
X52650Y-47440D03*
X52650Y-47125D03*
X52650Y-49015D03*
X52650Y-49330D03*
X52650Y-49645D03*
X52650Y-49960D03*
X52650Y-50275D03*
X57150Y-48700D03*
X57150Y-48385D03*
X57150Y-48070D03*
X57150Y-47755D03*
X57150Y-47440D03*
X57150Y-47125D03*
X57150Y-49015D03*
X57150Y-49330D03*
X57150Y-49645D03*
X57150Y-49960D03*
X57150Y-50275D03*
G54D19*
X54900Y-46450D03*
X54900Y-50950D03*
X55215Y-46450D03*
X55215Y-50950D03*
X55530Y-50950D03*
X55530Y-46450D03*
X55845Y-46450D03*
X55845Y-50950D03*
X56160Y-50950D03*
X56160Y-46450D03*
X56475Y-46450D03*
X56475Y-50950D03*
X54585Y-50950D03*
X54585Y-46450D03*
X54270Y-46450D03*
X54270Y-50950D03*
X53955Y-50950D03*
X53955Y-46450D03*
X53640Y-46450D03*
X53640Y-50950D03*
X53325Y-50950D03*
X53325Y-46450D03*
G54D20*
X52075Y-90062D03*
X52075Y-85338D03*
G54D11*
X52425Y-95860D03*
X53175Y-95860D03*
M02*
