M48
;DRILL file {PCBNEW (2007-02-16)} date 16/10/2007-08:39:07
;FORMAT={3:3 / absolute / millimeters / decimal format}
R,T
VER,1
FMAT,2
METRIC,TZ
TCST,OFF
ICI,OFF
ATC,ON
T1C0.635
T2C0.650
T3C0.813
T4C0.899
T5C1.001
T6C1.016
T7C1.999
T8C3.000
%
M47
G05
M71
T1
X140.208Y-90.424
X140.208Y-180.340
X141.224Y-91.440
X141.224Y-182.880
X142.240Y-92.456
X142.240Y-183.896
X116.840Y-186.690
X151.892Y-96.711
X156.528Y-162.052
X112.903Y-67.501
X151.448Y-93.790
X137.160Y-87.376
X137.160Y-172.720
X138.176Y-175.260
X138.176Y-88.494
X139.192Y-176.276
X139.395Y-89.205
X134.112Y-84.328
X134.112Y-164.592
X135.128Y-85.344
X135.128Y-167.640
X136.144Y-86.360
X136.144Y-168.656
X131.064Y-81.280
X131.064Y-157.480
X153.822Y-238.557
X132.080Y-82.296
X132.080Y-160.020
X154.534Y-242.113
X133.096Y-83.312
X133.096Y-161.036
X128.016Y-77.724
X128.016Y-149.860
X129.032Y-78.740
X129.032Y-151.892
X130.048Y-79.756
X130.048Y-153.416
X124.968Y-74.676
X124.968Y-142.240
X125.984Y-75.692
X125.984Y-144.272
X127.000Y-76.708
X127.000Y-145.796
X121.920Y-134.620
X121.920Y-71.628
X122.936Y-137.160
X122.936Y-72.644
X123.952Y-73.660
X123.952Y-138.176
X118.872Y-126.848
X119.888Y-69.152
X119.888Y-129.540
X120.904Y-70.612
X120.904Y-130.556
X111.760Y-194.056
X154.496Y-107.315
X150.940Y-108.839
X136.347Y-229.210
X144.526Y-182.055
X149.708Y-123.749
X152.146Y-175.514
X154.940Y-155.346
X146.710Y-193.345
X148.438Y-117.653
X151.384Y-151.790
X151.575Y-118.364
X145.923Y-112.268
X129.159Y-68.580
X146.507Y-115.976
X148.717Y-89.535
X126.492Y-67.691
X145.186Y-117.653
X143.891Y-110.490
X141.478Y-73.533
X134.874Y-69.850
X143.510Y-114.452
X144.526Y-108.204
X137.541Y-71.247
X113.284Y-210.312
X112.840Y-208.598
T2
X116.840Y-120.122
X116.840Y-121.321
X116.840Y-122.522
X116.840Y-123.721
X116.840Y-181.082
X116.840Y-182.281
X116.840Y-183.482
X116.840Y-184.681
X116.840Y-242.042
X116.840Y-243.241
X116.840Y-244.442
X116.840Y-245.641
X109.855Y-120.122
X109.855Y-121.321
X109.855Y-122.522
X109.855Y-123.721
X109.855Y-181.082
X109.855Y-182.281
X109.855Y-183.482
X109.855Y-184.681
X116.840Y-112.502
X116.840Y-113.701
X116.840Y-114.902
X116.840Y-116.101
X116.840Y-173.462
X116.840Y-174.661
X116.840Y-175.862
X116.840Y-177.061
X116.840Y-234.422
X116.840Y-235.621
X116.840Y-236.822
X116.840Y-238.021
X109.855Y-112.502
X109.855Y-113.701
X109.855Y-114.902
X109.855Y-116.101
X109.855Y-173.462
X109.855Y-174.661
X109.855Y-175.862
X109.855Y-177.061
X116.840Y-104.882
X116.840Y-106.081
X116.840Y-107.282
X116.840Y-108.481
X116.840Y-165.842
X116.840Y-167.041
X116.840Y-168.242
X116.840Y-169.441
X116.840Y-226.802
X116.840Y-228.001
X116.840Y-229.202
X116.840Y-230.401
X109.855Y-104.882
X109.855Y-106.081
X109.855Y-107.282
X109.855Y-108.481
X109.855Y-165.842
X109.855Y-167.041
X109.855Y-168.242
X109.855Y-169.441
X116.840Y-97.262
X116.840Y-98.461
X116.840Y-99.662
X116.840Y-100.861
X116.840Y-158.222
X116.840Y-159.421
X116.840Y-160.622
X116.840Y-161.821
X116.840Y-219.182
X116.840Y-220.381
X116.840Y-221.582
X116.840Y-222.781
X109.855Y-97.262
X109.855Y-98.461
X109.855Y-99.662
X109.855Y-100.861
X109.855Y-158.222
X109.855Y-159.421
X109.855Y-160.622
X109.855Y-161.821
X116.840Y-89.642
X116.840Y-90.841
X116.840Y-92.042
X116.840Y-93.241
X116.840Y-150.602
X116.840Y-151.801
X116.840Y-153.002
X116.840Y-154.201
X116.840Y-211.562
X116.840Y-212.761
X116.840Y-213.962
X116.840Y-215.161
X109.855Y-89.642
X109.855Y-90.841
X109.855Y-92.042
X109.855Y-93.241
X109.855Y-150.602
X109.855Y-151.801
X109.855Y-153.002
X109.855Y-154.201
X116.840Y-82.022
X116.840Y-83.221
X116.840Y-84.422
X116.840Y-85.621
X116.840Y-142.982
X116.840Y-144.181
X116.840Y-145.382
X116.840Y-146.581
X116.840Y-203.942
X116.840Y-205.141
X116.840Y-206.342
X116.840Y-207.541
X109.855Y-82.022
X109.855Y-83.221
X109.855Y-84.422
X109.855Y-85.621
X109.855Y-142.982
X109.855Y-144.181
X109.855Y-145.382
X109.855Y-146.581
X116.840Y-74.402
X116.840Y-75.601
X116.840Y-76.802
X116.840Y-78.001
X116.840Y-135.362
X116.840Y-136.561
X116.840Y-137.762
X116.840Y-138.961
X116.840Y-196.322
X116.840Y-197.521
X116.840Y-198.722
X116.840Y-199.921
X109.855Y-74.402
X109.855Y-75.601
X109.855Y-76.802
X109.855Y-78.001
X109.855Y-135.362
X109.855Y-136.561
X109.855Y-137.762
X109.855Y-138.961
X116.840Y-66.782
X116.840Y-67.981
X116.840Y-69.182
X116.840Y-70.381
X116.840Y-127.742
X116.840Y-128.941
X116.840Y-130.142
X116.840Y-131.341
X116.840Y-188.702
X116.840Y-189.901
X116.840Y-191.102
X116.840Y-192.301
X109.855Y-66.782
X109.875Y-67.975
X109.855Y-69.182
X109.855Y-70.381
X109.855Y-127.742
X109.855Y-128.941
X109.855Y-130.142
X109.855Y-131.341
X109.855Y-242.042
X109.855Y-243.241
X109.855Y-244.442
X109.855Y-245.641
X109.855Y-234.422
X109.855Y-235.621
X109.855Y-236.822
X109.855Y-238.021
X109.855Y-226.802
X109.855Y-228.001
X109.855Y-229.202
X109.855Y-230.401
X109.855Y-219.182
X109.855Y-220.381
X109.855Y-221.582
X109.855Y-222.781
X109.855Y-211.562
X109.855Y-212.761
X109.855Y-213.962
X109.855Y-215.161
X109.855Y-203.942
X109.855Y-205.141
X109.855Y-206.342
X109.855Y-207.541
X109.855Y-196.322
X109.855Y-197.521
X109.855Y-198.722
X109.855Y-199.921
X109.855Y-188.702
X109.855Y-189.901
X109.855Y-191.102
X109.855Y-192.301
T3
X145.390Y-140.360
X145.390Y-145.440
T4
X144.209Y-205.565
X144.209Y-207.566
X144.209Y-210.066
X144.209Y-203.065
T5
X139.446Y-243.751
X139.446Y-216.751
T6
X150.266Y-236.322
X150.266Y-233.782
X150.266Y-231.242
X148.717Y-162.052
X148.717Y-159.512
X148.717Y-156.972
X148.717Y-154.432
X148.717Y-151.892
T7
X147.208Y-199.565
X147.208Y-213.566
T8
X105.410Y-87.630
X105.410Y-110.490
X105.410Y-133.350
X105.410Y-156.210
X105.410Y-179.070
X105.410Y-201.930
X105.410Y-224.790
X105.410Y-249.365
X112.141Y-249.365
X117.158Y-249.365
X122.174Y-249.365
X127.191Y-249.365
X132.207Y-249.365
X137.224Y-249.365
X142.240Y-249.365
X147.193Y-249.365
X152.210Y-249.365
X149.543Y-219.139
X149.543Y-226.314
X151.638Y-194.310
X153.734Y-81.788
X153.734Y-69.913
X133.858Y-211.646
X105.410Y-65.977
T0
M30
