G04 (Genere par PCBNEW (2007-02-16)) le 16/10/2007-08:37:13*
G01*
G70*
G90*
%MOIN*%
G04 Gerber Fmt 3.4, Leading zero omitted, Abs format*
%FSLAX34Y34*%
G04 APERTURE LIST*
%ADD10C,0.015000*%
%ADD11C,0.070000*%
%ADD12C,0.034300*%
%ADD13R,0.060000X0.060000*%
%ADD14C,0.060000*%
%ADD15R,0.035000X0.055000*%
%ADD16R,0.055000X0.035000*%
%ADD17R,0.080000X0.060000*%
%ADD18R,0.060000X0.080000*%
%ADD19R,0.045000X0.020000*%
%ADD20R,0.030000X0.020000*%
%ADD21R,0.036000X0.036000*%
%ADD22R,0.050000X0.016000*%
%ADD23R,0.016000X0.050000*%
%ADD24C,0.051200*%
%ADD25C,0.098400*%
%ADD26R,0.118100X0.078700*%
%ADD27C,0.045000*%
%ADD28C,0.017000*%
%ADD29C,0.005000*%
%ADD30C,0.001000*%
%ADD31C,0.008000*%
%ADD32C,0.012000*%
%ADD33C,0.006000*%
G04 APERTURE END LIST*
G54D10*
X41750Y-99150D02*
X41654Y-99628D01*
X41654Y-99628D02*
X41383Y-100033D01*
X41383Y-100033D02*
X40978Y-100304D01*
X40978Y-100304D02*
X40500Y-100400D01*
X40500Y-100400D02*
X40022Y-100304D01*
X40022Y-100304D02*
X39617Y-100033D01*
X39617Y-100033D02*
X39346Y-99628D01*
X39346Y-99628D02*
X39250Y-99150D01*
X39250Y-99150D02*
X39346Y-98672D01*
X39346Y-98672D02*
X39617Y-98267D01*
X39617Y-98267D02*
X40022Y-97996D01*
X40022Y-97996D02*
X40500Y-97900D01*
X40500Y-97900D02*
X40978Y-97996D01*
X40978Y-97996D02*
X41383Y-98267D01*
X41383Y-98267D02*
X41654Y-98672D01*
X41654Y-98672D02*
X41750Y-99150D01*
X38000Y-99150D02*
X43000Y-99150D01*
X40500Y-96650D02*
X40500Y-101650D01*
X63450Y-99150D02*
X63354Y-99628D01*
X63354Y-99628D02*
X63083Y-100033D01*
X63083Y-100033D02*
X62678Y-100304D01*
X62678Y-100304D02*
X62200Y-100400D01*
X62200Y-100400D02*
X61722Y-100304D01*
X61722Y-100304D02*
X61317Y-100033D01*
X61317Y-100033D02*
X61046Y-99628D01*
X61046Y-99628D02*
X60950Y-99150D01*
X60950Y-99150D02*
X61046Y-98672D01*
X61046Y-98672D02*
X61317Y-98267D01*
X61317Y-98267D02*
X61722Y-97996D01*
X61722Y-97996D02*
X62200Y-97900D01*
X62200Y-97900D02*
X62678Y-97996D01*
X62678Y-97996D02*
X63083Y-98267D01*
X63083Y-98267D02*
X63354Y-98672D01*
X63354Y-98672D02*
X63450Y-99150D01*
X59700Y-99150D02*
X64700Y-99150D01*
X62200Y-96650D02*
X62200Y-101650D01*
X63450Y-25050D02*
X63354Y-25528D01*
X63354Y-25528D02*
X63083Y-25933D01*
X63083Y-25933D02*
X62678Y-26204D01*
X62678Y-26204D02*
X62200Y-26300D01*
X62200Y-26300D02*
X61722Y-26204D01*
X61722Y-26204D02*
X61317Y-25933D01*
X61317Y-25933D02*
X61046Y-25528D01*
X61046Y-25528D02*
X60950Y-25050D01*
X60950Y-25050D02*
X61046Y-24572D01*
X61046Y-24572D02*
X61317Y-24167D01*
X61317Y-24167D02*
X61722Y-23896D01*
X61722Y-23896D02*
X62200Y-23800D01*
X62200Y-23800D02*
X62678Y-23896D01*
X62678Y-23896D02*
X63083Y-24167D01*
X63083Y-24167D02*
X63354Y-24572D01*
X63354Y-24572D02*
X63450Y-25050D01*
X59700Y-25050D02*
X64700Y-25050D01*
X62200Y-22550D02*
X62200Y-27550D01*
X41750Y-25050D02*
X41654Y-25528D01*
X41654Y-25528D02*
X41383Y-25933D01*
X41383Y-25933D02*
X40978Y-26204D01*
X40978Y-26204D02*
X40500Y-26300D01*
X40500Y-26300D02*
X40022Y-26204D01*
X40022Y-26204D02*
X39617Y-25933D01*
X39617Y-25933D02*
X39346Y-25528D01*
X39346Y-25528D02*
X39250Y-25050D01*
X39250Y-25050D02*
X39346Y-24572D01*
X39346Y-24572D02*
X39617Y-24167D01*
X39617Y-24167D02*
X40022Y-23896D01*
X40022Y-23896D02*
X40500Y-23800D01*
X40500Y-23800D02*
X40978Y-23896D01*
X40978Y-23896D02*
X41383Y-24167D01*
X41383Y-24167D02*
X41654Y-24572D01*
X41654Y-24572D02*
X41750Y-25050D01*
X38000Y-25050D02*
X43000Y-25050D01*
X40500Y-22550D02*
X40500Y-27550D01*
X40500Y-25050D02*
X42350Y-25050D01*
X40500Y-99150D02*
X40500Y-25050D01*
X62200Y-99150D02*
X40500Y-99150D01*
X62200Y-97150D02*
X62200Y-99150D01*
G54D30*
X47357Y-84602D02*
X47387Y-84650D01*
X47387Y-84650D02*
X47447Y-84650D01*
X47447Y-84650D02*
X47477Y-84626D01*
X47477Y-84626D02*
X47477Y-84430D01*
X47417Y-84430D02*
X47537Y-84430D01*
X47632Y-84504D02*
X47812Y-84504D01*
X47812Y-84504D02*
X47842Y-84528D01*
X47842Y-84528D02*
X47842Y-84650D01*
X47842Y-84650D02*
X47662Y-84650D01*
X47662Y-84650D02*
X47632Y-84626D01*
X47632Y-84626D02*
X47632Y-84602D01*
X47632Y-84602D02*
X47662Y-84577D01*
X47662Y-84577D02*
X47842Y-84577D01*
X47907Y-84650D02*
X47907Y-84504D01*
X47907Y-84528D02*
X47937Y-84504D01*
X47937Y-84504D02*
X48057Y-84504D01*
X48057Y-84504D02*
X48087Y-84528D01*
X48087Y-84528D02*
X48087Y-84650D01*
X48182Y-84650D02*
X48182Y-84430D01*
X48182Y-84430D02*
X48362Y-84430D01*
X48362Y-84430D02*
X48392Y-84455D01*
X48392Y-84455D02*
X48392Y-84528D01*
X48392Y-84528D02*
X48362Y-84553D01*
X48362Y-84553D02*
X48182Y-84553D01*
X48457Y-84504D02*
X48637Y-84504D01*
X48637Y-84504D02*
X48667Y-84528D01*
X48667Y-84528D02*
X48667Y-84650D01*
X48667Y-84650D02*
X48487Y-84650D01*
X48487Y-84650D02*
X48457Y-84626D01*
X48457Y-84626D02*
X48457Y-84602D01*
X48457Y-84602D02*
X48487Y-84577D01*
X48487Y-84577D02*
X48667Y-84577D01*
X48732Y-84504D02*
X48732Y-84602D01*
X48732Y-84602D02*
X48792Y-84650D01*
X48792Y-84650D02*
X48882Y-84650D01*
X48882Y-84650D02*
X48942Y-84602D01*
X48942Y-84602D02*
X48942Y-84504D01*
X49067Y-84430D02*
X49097Y-84430D01*
X49097Y-84430D02*
X49097Y-84650D01*
X49067Y-84650D02*
X49127Y-84650D01*
X49282Y-84650D02*
X49282Y-84430D01*
X49282Y-84430D02*
X49462Y-84430D01*
X49462Y-84430D02*
X49492Y-84455D01*
X49492Y-84455D02*
X49492Y-84528D01*
X49492Y-84528D02*
X49462Y-84553D01*
X49462Y-84553D02*
X49282Y-84553D01*
X49587Y-84650D02*
X49557Y-84626D01*
X49557Y-84626D02*
X49557Y-84528D01*
X49557Y-84528D02*
X49587Y-84504D01*
X49587Y-84504D02*
X49737Y-84504D01*
X49737Y-84504D02*
X49767Y-84528D01*
X49767Y-84528D02*
X49767Y-84626D01*
X49767Y-84626D02*
X49737Y-84650D01*
X49737Y-84650D02*
X49587Y-84650D01*
X49832Y-84626D02*
X49862Y-84650D01*
X49862Y-84650D02*
X50012Y-84650D01*
X50012Y-84650D02*
X50042Y-84626D01*
X50042Y-84626D02*
X50042Y-84602D01*
X50042Y-84602D02*
X50012Y-84577D01*
X50012Y-84577D02*
X49862Y-84577D01*
X49862Y-84577D02*
X49832Y-84553D01*
X49832Y-84553D02*
X49832Y-84528D01*
X49832Y-84528D02*
X49862Y-84504D01*
X49862Y-84504D02*
X50012Y-84504D01*
X50012Y-84504D02*
X50042Y-84528D01*
X50107Y-84650D02*
X50107Y-84504D01*
X50107Y-84528D02*
X50137Y-84504D01*
X50137Y-84504D02*
X50197Y-84504D01*
X50197Y-84504D02*
X50227Y-84528D01*
X50227Y-84528D02*
X50227Y-84650D01*
X50227Y-84528D02*
X50257Y-84504D01*
X50257Y-84504D02*
X50317Y-84504D01*
X50317Y-84504D02*
X50346Y-84528D01*
X50346Y-84528D02*
X50346Y-84650D01*
X50382Y-84504D02*
X50562Y-84504D01*
X50562Y-84504D02*
X50592Y-84528D01*
X50592Y-84528D02*
X50592Y-84650D01*
X50592Y-84650D02*
X50412Y-84650D01*
X50412Y-84650D02*
X50382Y-84626D01*
X50382Y-84626D02*
X50382Y-84602D01*
X50382Y-84602D02*
X50412Y-84577D01*
X50412Y-84577D02*
X50592Y-84577D01*
X50747Y-84650D02*
X50747Y-84626D01*
X50932Y-84650D02*
X50932Y-84504D01*
X50932Y-84528D02*
X50962Y-84504D01*
X50962Y-84504D02*
X51082Y-84504D01*
X51082Y-84504D02*
X51112Y-84528D01*
X51112Y-84528D02*
X51112Y-84650D01*
X51267Y-84430D02*
X51297Y-84430D01*
X51297Y-84430D02*
X51297Y-84650D01*
X51267Y-84650D02*
X51327Y-84650D01*
X47569Y-84205D02*
X47569Y-83855D01*
X47569Y-83855D02*
X47794Y-83855D01*
X47794Y-83855D02*
X47832Y-83894D01*
X47832Y-83894D02*
X47832Y-84011D01*
X47832Y-84011D02*
X47794Y-84050D01*
X47794Y-84050D02*
X47569Y-84050D01*
X47912Y-84205D02*
X47912Y-83972D01*
X47912Y-84050D02*
X47987Y-83972D01*
X47987Y-83972D02*
X48100Y-83972D01*
X48100Y-83972D02*
X48175Y-84050D01*
X48293Y-84205D02*
X48255Y-84167D01*
X48255Y-84167D02*
X48255Y-84011D01*
X48255Y-84011D02*
X48293Y-83972D01*
X48293Y-83972D02*
X48480Y-83972D01*
X48480Y-83972D02*
X48518Y-84011D01*
X48518Y-84011D02*
X48518Y-84167D01*
X48518Y-84167D02*
X48480Y-84205D01*
X48480Y-84205D02*
X48293Y-84205D01*
X48823Y-84167D02*
X48786Y-84205D01*
X48786Y-84205D02*
X48673Y-84205D01*
X48673Y-84205D02*
X48636Y-84167D01*
X48636Y-84167D02*
X48636Y-83855D01*
X48636Y-83972D02*
X48748Y-83972D01*
X48979Y-84205D02*
X48941Y-84167D01*
X48941Y-84167D02*
X48941Y-84011D01*
X48941Y-84011D02*
X48979Y-83972D01*
X48979Y-83972D02*
X49166Y-83972D01*
X49166Y-83972D02*
X49204Y-84011D01*
X49204Y-84011D02*
X49204Y-84167D01*
X49204Y-84167D02*
X49166Y-84205D01*
X49166Y-84205D02*
X48979Y-84205D01*
X49509Y-84167D02*
X49472Y-84205D01*
X49472Y-84205D02*
X49359Y-84205D01*
X49359Y-84205D02*
X49322Y-84167D01*
X49322Y-84167D02*
X49322Y-83855D01*
X49322Y-83972D02*
X49434Y-83972D01*
X49627Y-83972D02*
X49627Y-84128D01*
X49627Y-84128D02*
X49702Y-84205D01*
X49702Y-84205D02*
X49815Y-84205D01*
X49815Y-84205D02*
X49890Y-84128D01*
X49890Y-83972D02*
X49890Y-84282D01*
X49890Y-84282D02*
X49852Y-84321D01*
X49852Y-84321D02*
X49665Y-84321D01*
X49665Y-84321D02*
X49627Y-84282D01*
X49970Y-84321D02*
X49970Y-83972D01*
X49970Y-84011D02*
X50008Y-83972D01*
X50008Y-83972D02*
X50195Y-83972D01*
X50195Y-83972D02*
X50233Y-84011D01*
X50233Y-84011D02*
X50233Y-84167D01*
X50233Y-84167D02*
X50195Y-84205D01*
X50195Y-84205D02*
X50008Y-84205D01*
X50008Y-84205D02*
X49970Y-84167D01*
X50313Y-84089D02*
X50576Y-84089D01*
X50576Y-84089D02*
X50576Y-84011D01*
X50576Y-84011D02*
X50538Y-83972D01*
X50538Y-83972D02*
X50351Y-83972D01*
X50351Y-83972D02*
X50313Y-84011D01*
X50313Y-84011D02*
X50313Y-84167D01*
X50313Y-84167D02*
X50351Y-84205D01*
X50351Y-84205D02*
X50538Y-84205D01*
X50538Y-84205D02*
X50576Y-84167D01*
X51074Y-84205D02*
X51224Y-84205D01*
X51149Y-84205D02*
X51149Y-83855D01*
X51149Y-83894D02*
X51074Y-83972D01*
G54D29*
X47736Y-83685D02*
X47736Y-83335D01*
X47736Y-83335D02*
X47961Y-83335D01*
X47961Y-83335D02*
X47999Y-83374D01*
X47999Y-83374D02*
X47999Y-83452D01*
X47999Y-83452D02*
X47961Y-83491D01*
X47961Y-83491D02*
X47736Y-83491D01*
X47961Y-83491D02*
X47999Y-83569D01*
X47999Y-83569D02*
X47999Y-83647D01*
X47999Y-83647D02*
X47961Y-83685D01*
X47961Y-83685D02*
X47736Y-83685D01*
X48232Y-83335D02*
X48232Y-83374D01*
X48232Y-83491D02*
X48232Y-83647D01*
X48232Y-83647D02*
X48269Y-83685D01*
X48269Y-83685D02*
X48307Y-83685D01*
X48540Y-83685D02*
X48540Y-83335D01*
X48540Y-83569D02*
X48577Y-83569D01*
X48577Y-83569D02*
X48765Y-83452D01*
X48577Y-83569D02*
X48765Y-83685D01*
X48885Y-83569D02*
X49148Y-83569D01*
X49148Y-83569D02*
X49148Y-83491D01*
X49148Y-83491D02*
X49110Y-83452D01*
X49110Y-83452D02*
X48923Y-83452D01*
X48923Y-83452D02*
X48885Y-83491D01*
X48885Y-83491D02*
X48885Y-83647D01*
X48885Y-83647D02*
X48923Y-83685D01*
X48923Y-83685D02*
X49110Y-83685D01*
X49110Y-83685D02*
X49148Y-83647D01*
X49306Y-83685D02*
X49456Y-83685D01*
X49381Y-83685D02*
X49381Y-83335D01*
X49306Y-83335D02*
X49456Y-83335D01*
X49651Y-83685D02*
X49651Y-83452D01*
X49651Y-83491D02*
X49689Y-83452D01*
X49689Y-83452D02*
X49764Y-83452D01*
X49764Y-83452D02*
X49801Y-83491D01*
X49801Y-83491D02*
X49801Y-83685D01*
X49801Y-83491D02*
X49839Y-83452D01*
X49839Y-83452D02*
X49914Y-83452D01*
X49914Y-83452D02*
X49951Y-83491D01*
X49951Y-83491D02*
X49951Y-83685D01*
X50034Y-83452D02*
X50259Y-83452D01*
X50259Y-83452D02*
X50297Y-83491D01*
X50297Y-83491D02*
X50297Y-83685D01*
X50297Y-83685D02*
X50072Y-83685D01*
X50072Y-83685D02*
X50034Y-83647D01*
X50034Y-83647D02*
X50034Y-83608D01*
X50034Y-83608D02*
X50072Y-83569D01*
X50072Y-83569D02*
X50297Y-83569D01*
X50417Y-83762D02*
X50455Y-83801D01*
X50455Y-83801D02*
X50642Y-83801D01*
X50642Y-83801D02*
X50680Y-83762D01*
X50680Y-83762D02*
X50680Y-83491D01*
X50680Y-83491D02*
X50642Y-83452D01*
X50642Y-83452D02*
X50455Y-83452D01*
X50455Y-83452D02*
X50417Y-83491D01*
X50417Y-83491D02*
X50417Y-83647D01*
X50417Y-83647D02*
X50455Y-83685D01*
X50455Y-83685D02*
X50642Y-83685D01*
X50642Y-83685D02*
X50680Y-83647D01*
X50800Y-83569D02*
X51063Y-83569D01*
X51063Y-83569D02*
X51063Y-83491D01*
X51063Y-83491D02*
X51025Y-83452D01*
X51025Y-83452D02*
X50838Y-83452D01*
X50838Y-83452D02*
X50800Y-83491D01*
X50800Y-83491D02*
X50800Y-83647D01*
X50800Y-83647D02*
X50838Y-83685D01*
X50838Y-83685D02*
X51025Y-83685D01*
X51025Y-83685D02*
X51063Y-83647D01*
G54D10*
X62200Y-51875D02*
X62200Y-97150D01*
X62200Y-25050D02*
X62200Y-25125D01*
X42350Y-25050D02*
X62200Y-25050D01*
X42350Y-25125D02*
X42350Y-25050D01*
X62200Y-51875D02*
X62200Y-25125D01*
G54D11*
X57240Y-55260D03*
X57240Y-57260D03*
G54D12*
X46000Y-47292D03*
X46000Y-47764D03*
X46000Y-48237D03*
X46000Y-48709D03*
X46000Y-71292D03*
X46000Y-71764D03*
X46000Y-72237D03*
X46000Y-72709D03*
X46000Y-95292D03*
X46000Y-95764D03*
X46000Y-96237D03*
X46000Y-96709D03*
X43250Y-47292D03*
X43250Y-47764D03*
X43250Y-48237D03*
X43250Y-48709D03*
X43250Y-71292D03*
X43250Y-71764D03*
X43250Y-72237D03*
X43250Y-72709D03*
X46000Y-44292D03*
X46000Y-44764D03*
X46000Y-45237D03*
X46000Y-45709D03*
X46000Y-68292D03*
X46000Y-68764D03*
X46000Y-69237D03*
X46000Y-69709D03*
X46000Y-92292D03*
X46000Y-92764D03*
X46000Y-93237D03*
X46000Y-93709D03*
X43250Y-44292D03*
X43250Y-44764D03*
X43250Y-45237D03*
X43250Y-45709D03*
X43250Y-68292D03*
X43250Y-68764D03*
X43250Y-69237D03*
X43250Y-69709D03*
X46000Y-41292D03*
X46000Y-41764D03*
X46000Y-42237D03*
X46000Y-42709D03*
X46000Y-65292D03*
X46000Y-65764D03*
X46000Y-66237D03*
X46000Y-66709D03*
X46000Y-89292D03*
X46000Y-89764D03*
X46000Y-90237D03*
X46000Y-90709D03*
X43250Y-41292D03*
X43250Y-41764D03*
X43250Y-42237D03*
X43250Y-42709D03*
X43250Y-65292D03*
X43250Y-65764D03*
X43250Y-66237D03*
X43250Y-66709D03*
X46000Y-38292D03*
X46000Y-38764D03*
X46000Y-39237D03*
X46000Y-39709D03*
X46000Y-62292D03*
X46000Y-62764D03*
X46000Y-63237D03*
X46000Y-63709D03*
X46000Y-86292D03*
X46000Y-86764D03*
X46000Y-87237D03*
X46000Y-87709D03*
X43250Y-38292D03*
X43250Y-38764D03*
X43250Y-39237D03*
X43250Y-39709D03*
X43250Y-62292D03*
X43250Y-62764D03*
X43250Y-63237D03*
X43250Y-63709D03*
X46000Y-35292D03*
X46000Y-35764D03*
X46000Y-36237D03*
X46000Y-36709D03*
X46000Y-59292D03*
X46000Y-59764D03*
X46000Y-60237D03*
X46000Y-60709D03*
X46000Y-83292D03*
X46000Y-83764D03*
X46000Y-84237D03*
X46000Y-84709D03*
X43250Y-35292D03*
X43250Y-35764D03*
X43250Y-36237D03*
X43250Y-36709D03*
X43250Y-59292D03*
X43250Y-59764D03*
X43250Y-60237D03*
X43250Y-60709D03*
X46000Y-32292D03*
X46000Y-32764D03*
X46000Y-33237D03*
X46000Y-33709D03*
X46000Y-56292D03*
X46000Y-56764D03*
X46000Y-57237D03*
X46000Y-57709D03*
X46000Y-80292D03*
X46000Y-80764D03*
X46000Y-81237D03*
X46000Y-81709D03*
X43250Y-32292D03*
X43250Y-32764D03*
X43250Y-33237D03*
X43250Y-33709D03*
X43250Y-56292D03*
X43250Y-56764D03*
X43250Y-57237D03*
X43250Y-57709D03*
X46000Y-29292D03*
X46000Y-29764D03*
X46000Y-30237D03*
X46000Y-30709D03*
X46000Y-53292D03*
X46000Y-53764D03*
X46000Y-54237D03*
X46000Y-54709D03*
X46000Y-77292D03*
X46000Y-77764D03*
X46000Y-78237D03*
X46000Y-78709D03*
X43250Y-29292D03*
X43250Y-29764D03*
X43250Y-30237D03*
X43250Y-30709D03*
X43250Y-53292D03*
X43250Y-53764D03*
X43250Y-54237D03*
X43250Y-54709D03*
X46000Y-26292D03*
X46000Y-26764D03*
X46000Y-27237D03*
X46000Y-27709D03*
X46000Y-50292D03*
X46000Y-50764D03*
X46000Y-51237D03*
X46000Y-51709D03*
X46000Y-74292D03*
X46000Y-74764D03*
X46000Y-75237D03*
X46000Y-75709D03*
X43250Y-26292D03*
X43258Y-26762D03*
X43250Y-27237D03*
X43250Y-27709D03*
X43250Y-50292D03*
X43250Y-50764D03*
X43250Y-51237D03*
X43250Y-51709D03*
X43250Y-95292D03*
X43250Y-95764D03*
X43250Y-96237D03*
X43250Y-96709D03*
X43250Y-92292D03*
X43250Y-92764D03*
X43250Y-93237D03*
X43250Y-93709D03*
X43250Y-89292D03*
X43250Y-89764D03*
X43250Y-90237D03*
X43250Y-90709D03*
X43250Y-86292D03*
X43250Y-86764D03*
X43250Y-87237D03*
X43250Y-87709D03*
X43250Y-83292D03*
X43250Y-83764D03*
X43250Y-84237D03*
X43250Y-84709D03*
X43250Y-80292D03*
X43250Y-80764D03*
X43250Y-81237D03*
X43250Y-81709D03*
X43250Y-77292D03*
X43250Y-77764D03*
X43250Y-78237D03*
X43250Y-78709D03*
X43250Y-74292D03*
X43250Y-74764D03*
X43250Y-75237D03*
X43250Y-75709D03*
G54D13*
X59160Y-93040D03*
G54D14*
X59160Y-92040D03*
X59160Y-91040D03*
G54D13*
X58550Y-63800D03*
G54D14*
X58550Y-62800D03*
X58550Y-61800D03*
X58550Y-60800D03*
X58550Y-59800D03*
X54900Y-95965D03*
X54900Y-85335D03*
G54D24*
X56775Y-80931D03*
X56775Y-81719D03*
X56775Y-82703D03*
X56775Y-79947D03*
G54D25*
X57956Y-78569D03*
X57956Y-84081D03*
G54D27*
X55200Y-35600D03*
X55200Y-71000D03*
X55600Y-36000D03*
X55600Y-72000D03*
X56000Y-36400D03*
X56000Y-72400D03*
X46000Y-73500D03*
X59800Y-38075D03*
X61625Y-63800D03*
X44450Y-26575D03*
X59625Y-36925D03*
X54000Y-34400D03*
X54000Y-68000D03*
X54400Y-69000D03*
X54400Y-34840D03*
X54800Y-69400D03*
X54880Y-35120D03*
X52800Y-33200D03*
X52800Y-64800D03*
X53200Y-33600D03*
X53200Y-66000D03*
X53600Y-34000D03*
X53600Y-66400D03*
X51600Y-32000D03*
X51600Y-62000D03*
X60560Y-93920D03*
X52000Y-32400D03*
X52000Y-63000D03*
X60840Y-95320D03*
X52400Y-32800D03*
X52400Y-63400D03*
X50400Y-30600D03*
X50400Y-59000D03*
X50800Y-31000D03*
X50800Y-59800D03*
X51200Y-31400D03*
X51200Y-60400D03*
X49200Y-29400D03*
X49200Y-56000D03*
X49600Y-29800D03*
X49600Y-56800D03*
X50000Y-30200D03*
X50000Y-57400D03*
X48000Y-53000D03*
X48000Y-28200D03*
X48400Y-54000D03*
X48400Y-28600D03*
X48800Y-29000D03*
X48800Y-54400D03*
X46800Y-49940D03*
X47200Y-27225D03*
X47200Y-51000D03*
X47600Y-27800D03*
X47600Y-51400D03*
X44000Y-76400D03*
X60825Y-42250D03*
X59425Y-42850D03*
X53680Y-90240D03*
X56900Y-71675D03*
X58940Y-48720D03*
X59900Y-69100D03*
X61000Y-61160D03*
X57760Y-76120D03*
X58440Y-46320D03*
X59600Y-59760D03*
X59675Y-46600D03*
X57450Y-44200D03*
X50850Y-27000D03*
X57680Y-45660D03*
X58550Y-35250D03*
X49800Y-26650D03*
X57160Y-46320D03*
X56650Y-43500D03*
X55700Y-28950D03*
X53100Y-27500D03*
X56500Y-45060D03*
X56900Y-42600D03*
X54150Y-28050D03*
X44600Y-82800D03*
X44425Y-82125D03*
G54D28*
X46000Y-95292D02*
X43250Y-95292D01*
X46000Y-71292D02*
X54908Y-71292D01*
X54908Y-71292D02*
X55200Y-71000D01*
X55200Y-71000D02*
X55200Y-55325D01*
X55200Y-55325D02*
X55200Y-47400D01*
X55200Y-35600D02*
X55200Y-47400D01*
X43250Y-71292D02*
X46000Y-71292D01*
X43250Y-47292D02*
X46000Y-47292D01*
X43250Y-96237D02*
X46000Y-96237D01*
X46000Y-72237D02*
X55363Y-72237D01*
X55363Y-72237D02*
X55600Y-72000D01*
X55600Y-72000D02*
X55600Y-48200D01*
X55600Y-36000D02*
X55600Y-48200D01*
X46000Y-72237D02*
X43250Y-72237D01*
X46000Y-48237D02*
X43250Y-48237D01*
X46000Y-96709D02*
X43250Y-96709D01*
X46000Y-72709D02*
X55691Y-72709D01*
X55691Y-72709D02*
X56000Y-72400D01*
X56000Y-72400D02*
X56000Y-48800D01*
X43250Y-48709D02*
X46000Y-48709D01*
X56000Y-36400D02*
X56000Y-48800D01*
X43250Y-72709D02*
X46000Y-72709D01*
X46000Y-73500D02*
X46150Y-73350D01*
X46150Y-73350D02*
X48100Y-73350D01*
X58975Y-38900D02*
X59800Y-38075D01*
X58975Y-41475D02*
X58975Y-38900D01*
X60000Y-42500D02*
X58975Y-41475D01*
X60000Y-45075D02*
X60000Y-42500D01*
X61100Y-46175D02*
X60000Y-45075D01*
X61500Y-48975D02*
X61500Y-46575D01*
X61500Y-48975D02*
X61500Y-61950D01*
X61500Y-61950D02*
X61275Y-62175D01*
X61275Y-62175D02*
X59750Y-63700D01*
X61100Y-46175D02*
X61500Y-46575D01*
X61500Y-46575D02*
X61550Y-46625D01*
X61550Y-46625D02*
X61550Y-61900D01*
X61550Y-61900D02*
X61275Y-62175D01*
X48100Y-73350D02*
X57450Y-73350D01*
X58200Y-65250D02*
X59750Y-63700D01*
X58200Y-72600D02*
X58200Y-65250D01*
X57450Y-73350D02*
X58200Y-72600D01*
X59100Y-72980D02*
X59100Y-66325D01*
X59100Y-66325D02*
X60775Y-64650D01*
X60775Y-64650D02*
X61625Y-63800D01*
X59100Y-72980D02*
X59100Y-73640D01*
X53436Y-77764D02*
X46000Y-77764D01*
X55960Y-75240D02*
X53436Y-77764D01*
X57500Y-75240D02*
X55960Y-75240D01*
X59100Y-73640D02*
X57500Y-75240D01*
X56625Y-25650D02*
X58000Y-27025D01*
X45950Y-25650D02*
X56625Y-25650D01*
X44450Y-26575D02*
X44750Y-26275D01*
X44750Y-26275D02*
X45100Y-26275D01*
X45100Y-26275D02*
X45725Y-25650D01*
X45725Y-25650D02*
X45950Y-25650D01*
X59275Y-36575D02*
X59625Y-36925D01*
X59275Y-34375D02*
X59275Y-36575D01*
X58700Y-33800D02*
X59275Y-34375D01*
X58700Y-33800D02*
X58475Y-33575D01*
X58475Y-27500D02*
X58000Y-27025D01*
X58475Y-33575D02*
X58475Y-27500D01*
X43250Y-92292D02*
X46000Y-92292D01*
X46000Y-68292D02*
X53708Y-68292D01*
X53708Y-68292D02*
X54000Y-68000D01*
X54000Y-68000D02*
X54000Y-44200D01*
X54000Y-34400D02*
X54000Y-44200D01*
X43250Y-44292D02*
X46000Y-44292D01*
X46000Y-68292D02*
X43250Y-68292D01*
X43250Y-69237D02*
X46000Y-69237D01*
X46000Y-69237D02*
X54163Y-69237D01*
X54163Y-69237D02*
X54400Y-69000D01*
X54400Y-69000D02*
X54400Y-69000D01*
X54400Y-69000D02*
X54400Y-69000D01*
X54400Y-69020D02*
X54400Y-69000D01*
X54400Y-34840D02*
X54400Y-69020D01*
X46000Y-93237D02*
X43250Y-93237D01*
X46000Y-45237D02*
X43250Y-45237D01*
X43250Y-93709D02*
X46000Y-93709D01*
X46000Y-69709D02*
X43250Y-69709D01*
X54491Y-69709D02*
X54800Y-69400D01*
X54800Y-69400D02*
X54800Y-45800D01*
X54800Y-35540D02*
X54800Y-45800D01*
X43250Y-45709D02*
X46000Y-45709D01*
X46000Y-69709D02*
X54491Y-69709D01*
X54800Y-35540D02*
X54800Y-35200D01*
X54800Y-35200D02*
X54880Y-35120D01*
X46000Y-89292D02*
X43250Y-89292D01*
X46000Y-65292D02*
X52508Y-65292D01*
X52508Y-65292D02*
X52800Y-65000D01*
X52800Y-65000D02*
X52800Y-64800D01*
X52800Y-64800D02*
X52800Y-41200D01*
X52800Y-33200D02*
X52800Y-41200D01*
X43250Y-41292D02*
X46000Y-41292D01*
X43250Y-65292D02*
X46000Y-65292D01*
X43250Y-90237D02*
X46000Y-90237D01*
X46000Y-66237D02*
X52963Y-66237D01*
X52963Y-66237D02*
X53200Y-66000D01*
X53200Y-66000D02*
X53200Y-42200D01*
X53200Y-33600D02*
X53200Y-42200D01*
X46000Y-66237D02*
X43250Y-66237D01*
X46000Y-42237D02*
X43250Y-42237D01*
X46000Y-90709D02*
X43250Y-90709D01*
X46000Y-66709D02*
X53291Y-66709D01*
X53291Y-66709D02*
X53600Y-66400D01*
X53600Y-66400D02*
X53600Y-42800D01*
X53600Y-34000D02*
X53600Y-42800D01*
X43250Y-66709D02*
X46000Y-66709D01*
X43250Y-42709D02*
X46000Y-42709D01*
X46000Y-86292D02*
X43250Y-86292D01*
X46000Y-62292D02*
X51308Y-62292D01*
X51308Y-62292D02*
X51600Y-62000D01*
X51600Y-62000D02*
X51600Y-38200D01*
X51600Y-32000D02*
X51600Y-38200D01*
X46000Y-38292D02*
X43250Y-38292D01*
X60560Y-93920D02*
X60100Y-94380D01*
X60100Y-94380D02*
X58340Y-94380D01*
X46000Y-62292D02*
X43250Y-62292D01*
X58340Y-94380D02*
X58200Y-94380D01*
X54452Y-86292D02*
X46000Y-86292D01*
X56800Y-88640D02*
X54452Y-86292D01*
X56800Y-92980D02*
X56800Y-88640D01*
X58200Y-94380D02*
X56800Y-92980D01*
X43250Y-87237D02*
X46000Y-87237D01*
X43250Y-63237D02*
X46000Y-63237D01*
X51763Y-63237D02*
X52000Y-63000D01*
X52000Y-63000D02*
X52000Y-39200D01*
X52000Y-32400D02*
X52000Y-39200D01*
X60520Y-95000D02*
X58780Y-95000D01*
X60840Y-95320D02*
X60520Y-95000D01*
X43250Y-39237D02*
X46000Y-39237D01*
X46000Y-63237D02*
X51763Y-63237D01*
X58780Y-95000D02*
X58060Y-95000D01*
X54417Y-87237D02*
X46000Y-87237D01*
X56280Y-89100D02*
X54417Y-87237D01*
X56280Y-93220D02*
X56280Y-89100D01*
X58060Y-95000D02*
X56280Y-93220D01*
X46000Y-63709D02*
X43250Y-63709D01*
X46000Y-63709D02*
X52091Y-63709D01*
X52091Y-63709D02*
X52400Y-63400D01*
X52400Y-63400D02*
X52400Y-39800D01*
X52400Y-32800D02*
X52400Y-39800D01*
X46000Y-39709D02*
X43250Y-39709D01*
X46000Y-87709D02*
X43250Y-87709D01*
X43250Y-83292D02*
X46000Y-83292D01*
X46000Y-59292D02*
X50108Y-59292D01*
X50108Y-59292D02*
X50400Y-59000D01*
X50400Y-59000D02*
X50400Y-35200D01*
X50400Y-30600D02*
X50400Y-35200D01*
X43250Y-35292D02*
X46000Y-35292D01*
X43250Y-59292D02*
X46000Y-59292D01*
X46000Y-84237D02*
X43250Y-84237D01*
X46000Y-60237D02*
X50363Y-60237D01*
X50363Y-60237D02*
X50800Y-59800D01*
X50800Y-59800D02*
X50800Y-36200D01*
X50800Y-31000D02*
X50800Y-36200D01*
X46000Y-60237D02*
X43250Y-60237D01*
X46000Y-36237D02*
X43250Y-36237D01*
X45709Y-60709D02*
X46000Y-60709D01*
X43250Y-84709D02*
X46000Y-84709D01*
X46000Y-60709D02*
X50891Y-60709D01*
X50891Y-60709D02*
X51200Y-60400D01*
X51200Y-60400D02*
X51200Y-36800D01*
X51200Y-31400D02*
X51200Y-36800D01*
X43250Y-60709D02*
X45709Y-60709D01*
X43250Y-36709D02*
X46000Y-36709D01*
X46000Y-80292D02*
X43250Y-80292D01*
X46000Y-56292D02*
X48908Y-56292D01*
X48908Y-56292D02*
X49200Y-56000D01*
X49200Y-56000D02*
X49200Y-32200D01*
X49200Y-29400D02*
X49200Y-32200D01*
X46000Y-56292D02*
X43250Y-56292D01*
X43250Y-32292D02*
X46000Y-32292D01*
X43250Y-81237D02*
X46000Y-81237D01*
X46000Y-57237D02*
X49163Y-57237D01*
X49163Y-57237D02*
X49600Y-56800D01*
X49600Y-56800D02*
X49600Y-33200D01*
X49600Y-29800D02*
X49600Y-33200D01*
X46000Y-33237D02*
X43250Y-33237D01*
X43250Y-57237D02*
X46000Y-57237D01*
X46000Y-81709D02*
X43250Y-81709D01*
X46000Y-57709D02*
X49691Y-57709D01*
X49691Y-57709D02*
X50000Y-57400D01*
X50000Y-57400D02*
X50000Y-33800D01*
X50000Y-30200D02*
X50000Y-33800D01*
X46000Y-57709D02*
X43250Y-57709D01*
X43250Y-33709D02*
X46000Y-33709D01*
X43250Y-77292D02*
X46000Y-77292D01*
X46000Y-53292D02*
X47708Y-53292D01*
X47708Y-53292D02*
X48000Y-53000D01*
X48000Y-53000D02*
X48000Y-29400D01*
X48000Y-28200D02*
X48000Y-29400D01*
X43250Y-53292D02*
X46000Y-53292D01*
X46000Y-29292D02*
X43250Y-29292D01*
X46000Y-78237D02*
X43250Y-78237D01*
X46000Y-54237D02*
X48163Y-54237D01*
X48163Y-54237D02*
X48400Y-54000D01*
X48400Y-54000D02*
X48400Y-30200D01*
X48400Y-28600D02*
X48400Y-30200D01*
X43250Y-30237D02*
X46000Y-30237D01*
X46000Y-54237D02*
X43250Y-54237D01*
X43250Y-78709D02*
X46000Y-78709D01*
X46000Y-54709D02*
X48491Y-54709D01*
X48491Y-54709D02*
X48800Y-54400D01*
X48800Y-54400D02*
X48800Y-30800D01*
X48800Y-29000D02*
X48800Y-30800D01*
X43250Y-54709D02*
X46000Y-54709D01*
X46000Y-30709D02*
X43250Y-30709D01*
X46492Y-26292D02*
X46000Y-26292D01*
X46800Y-26600D02*
X46492Y-26292D01*
X46800Y-49600D02*
X46800Y-26600D01*
X43250Y-26292D02*
X43542Y-26292D01*
X45683Y-26292D02*
X46000Y-26292D01*
X45275Y-26700D02*
X45683Y-26292D01*
X45275Y-27800D02*
X45275Y-26700D01*
X45100Y-27975D02*
X45275Y-27800D01*
X44275Y-27975D02*
X45100Y-27975D01*
X44100Y-27800D02*
X44275Y-27975D01*
X44100Y-26850D02*
X44100Y-27800D01*
X43542Y-26292D02*
X44100Y-26850D01*
X46000Y-74292D02*
X43250Y-74292D01*
X46000Y-50292D02*
X43250Y-50292D01*
X46000Y-50292D02*
X46448Y-50292D01*
X46448Y-50292D02*
X46800Y-49940D01*
X46800Y-49600D02*
X46800Y-49940D01*
X46000Y-51237D02*
X46963Y-51237D01*
X46963Y-51237D02*
X47200Y-51000D01*
X47200Y-51000D02*
X47200Y-27225D01*
X43250Y-27237D02*
X43537Y-27237D01*
X45763Y-27237D02*
X46000Y-27237D01*
X45550Y-27450D02*
X45763Y-27237D01*
X45550Y-28025D02*
X45550Y-27450D01*
X45250Y-28325D02*
X45550Y-28025D01*
X43950Y-28325D02*
X45250Y-28325D01*
X43750Y-28125D02*
X43950Y-28325D01*
X43750Y-27450D02*
X43750Y-28125D01*
X43537Y-27237D02*
X43750Y-27450D01*
X43250Y-75237D02*
X46000Y-75237D01*
X43250Y-51237D02*
X46000Y-51237D01*
X46000Y-51709D02*
X47291Y-51709D01*
X47291Y-51709D02*
X47600Y-51400D01*
X47600Y-51400D02*
X47600Y-27800D01*
X43250Y-27709D02*
X43250Y-28225D01*
X46000Y-28275D02*
X46000Y-27709D01*
X46000Y-75709D02*
X43250Y-75709D01*
X43775Y-28750D02*
X45525Y-28750D01*
X43250Y-28225D02*
X43775Y-28750D01*
X46000Y-51709D02*
X43250Y-51709D01*
X45525Y-28750D02*
X46000Y-28275D01*
X46500Y-76300D02*
X53580Y-76300D01*
X44100Y-76300D02*
X46500Y-76300D01*
X44100Y-76300D02*
X44000Y-76400D01*
X60700Y-63500D02*
X61250Y-62950D01*
X60825Y-45275D02*
X60825Y-42250D01*
X61875Y-46325D02*
X60825Y-45275D01*
X61875Y-50200D02*
X61875Y-46325D01*
X61875Y-50200D02*
X61875Y-62325D01*
X61875Y-62325D02*
X61250Y-62950D01*
X58700Y-65500D02*
X60700Y-63500D01*
X58700Y-73300D02*
X58700Y-65500D01*
X58700Y-73300D02*
X57320Y-74680D01*
X54140Y-76300D02*
X53580Y-76300D01*
X55760Y-74680D02*
X54140Y-76300D01*
X57320Y-74680D02*
X55760Y-74680D01*
X59050Y-44310D02*
X59460Y-43900D01*
X59460Y-43420D02*
X59460Y-43160D01*
X59460Y-43900D02*
X59460Y-43420D01*
X59460Y-43160D02*
X59450Y-43160D01*
X59050Y-46300D02*
X59050Y-44310D01*
X59425Y-42825D02*
X59425Y-42850D01*
X59450Y-42850D02*
X59425Y-42825D01*
X59450Y-43160D02*
X59450Y-42850D01*
X59050Y-46400D02*
X59050Y-46300D01*
X59560Y-47835D02*
X59050Y-47325D01*
X59050Y-47325D02*
X59050Y-46400D01*
X58550Y-59800D02*
X58550Y-59810D01*
X59820Y-60540D02*
X60320Y-60040D01*
X60320Y-60040D02*
X60580Y-59780D01*
X59280Y-60540D02*
X59820Y-60540D01*
X58550Y-59810D02*
X59280Y-60540D01*
X59560Y-47835D02*
X59560Y-47840D01*
X60580Y-48860D02*
X60580Y-59780D01*
X59560Y-47840D02*
X60580Y-48860D01*
X60580Y-59780D02*
X60320Y-60040D01*
X54065Y-95965D02*
X54900Y-95965D01*
X53480Y-95380D02*
X54065Y-95965D01*
X53480Y-90440D02*
X53480Y-95380D01*
X53680Y-90240D02*
X53480Y-90440D01*
X56900Y-71675D02*
X57675Y-70900D01*
X56400Y-61800D02*
X56400Y-61120D01*
X56400Y-62120D02*
X58080Y-63800D01*
X58080Y-63800D02*
X58550Y-63800D01*
X56400Y-61800D02*
X56400Y-62120D01*
X58550Y-63800D02*
X58060Y-63800D01*
X57660Y-64200D02*
X57675Y-64200D01*
X58060Y-63800D02*
X57660Y-64200D01*
X56400Y-60740D02*
X56400Y-61120D01*
X58640Y-58500D02*
X56400Y-60740D01*
X58640Y-49020D02*
X58640Y-58500D01*
X58940Y-48720D02*
X58640Y-49020D01*
X57675Y-70900D02*
X57675Y-64200D01*
X59925Y-69125D02*
X59925Y-73420D01*
X59900Y-69100D02*
X59925Y-69125D01*
X61000Y-61160D02*
X59360Y-62800D01*
X59360Y-62800D02*
X58550Y-62800D01*
X59925Y-73420D02*
X59925Y-73955D01*
X59925Y-73955D02*
X57760Y-76120D01*
X59680Y-59460D02*
X59680Y-59480D01*
X59680Y-59480D02*
X59680Y-48600D01*
X58440Y-47360D02*
X59680Y-48600D01*
X58440Y-47360D02*
X58440Y-46320D01*
X59680Y-59480D02*
X59680Y-59680D01*
X59680Y-59680D02*
X59600Y-59760D01*
X60000Y-46925D02*
X59675Y-46600D01*
X58550Y-60800D02*
X58550Y-60810D01*
X59880Y-61240D02*
X60640Y-60480D01*
X58980Y-61240D02*
X59880Y-61240D01*
X58550Y-60810D02*
X58980Y-61240D01*
X60640Y-60480D02*
X60880Y-60240D01*
X60000Y-46920D02*
X60000Y-46925D01*
X60960Y-47880D02*
X60000Y-46920D01*
X60960Y-60160D02*
X60960Y-47880D01*
X60880Y-60240D02*
X60960Y-60160D01*
X57750Y-43900D02*
X57450Y-44200D01*
X57750Y-30700D02*
X57750Y-43900D01*
X57750Y-30700D02*
X57750Y-28325D01*
X51175Y-26675D02*
X50850Y-27000D01*
X56100Y-26675D02*
X51175Y-26675D01*
X57750Y-28325D02*
X56100Y-26675D01*
X58500Y-35300D02*
X58550Y-35250D01*
X58500Y-44040D02*
X58500Y-35300D01*
X58500Y-44320D02*
X58500Y-44040D01*
X58260Y-44560D02*
X58500Y-44320D01*
X58260Y-45080D02*
X58260Y-44560D01*
X57680Y-45660D02*
X58260Y-45080D01*
X58100Y-29000D02*
X58100Y-29125D01*
X58100Y-29125D02*
X58100Y-43950D01*
X57900Y-44400D02*
X57900Y-44375D01*
X57900Y-44375D02*
X58100Y-44175D01*
X58100Y-44175D02*
X58100Y-43950D01*
X57900Y-44540D02*
X57900Y-44400D01*
X57160Y-45280D02*
X57900Y-44540D01*
X57160Y-46320D02*
X57160Y-45280D01*
X58100Y-29000D02*
X58100Y-27875D01*
X49900Y-26550D02*
X49800Y-26650D01*
X50350Y-26100D02*
X49900Y-26550D01*
X56325Y-26100D02*
X50350Y-26100D01*
X58100Y-27875D02*
X56325Y-26100D01*
X56450Y-43300D02*
X56650Y-43500D01*
X56450Y-29700D02*
X56450Y-43300D01*
X55700Y-28950D02*
X56450Y-29700D01*
X57350Y-30100D02*
X57350Y-42100D01*
X57350Y-42100D02*
X57400Y-42150D01*
X57400Y-42150D02*
X57400Y-43550D01*
X57400Y-43550D02*
X57180Y-43770D01*
X56640Y-44300D02*
X57180Y-43760D01*
X56640Y-44920D02*
X56640Y-44300D01*
X56500Y-45060D02*
X56640Y-44920D01*
X57180Y-43760D02*
X57180Y-43770D01*
X57350Y-30100D02*
X57350Y-28725D01*
X53400Y-27200D02*
X53100Y-27500D01*
X55825Y-27200D02*
X53400Y-27200D01*
X57350Y-28725D02*
X55825Y-27200D01*
X56900Y-29300D02*
X56900Y-42600D01*
X55750Y-28150D02*
X56900Y-29300D01*
X54250Y-28150D02*
X55750Y-28150D01*
X54150Y-28050D02*
X54250Y-28150D01*
X44600Y-82800D02*
X44675Y-82725D01*
X44675Y-82725D02*
X49450Y-82725D01*
X54850Y-81719D02*
X56775Y-81719D01*
X54850Y-81719D02*
X54719Y-81719D01*
X49650Y-82725D02*
X49450Y-82725D01*
X50975Y-81400D02*
X49650Y-82725D01*
X54400Y-81400D02*
X50975Y-81400D01*
X54719Y-81719D02*
X54400Y-81400D01*
X44500Y-82200D02*
X49200Y-82200D01*
X44425Y-82125D02*
X44500Y-82200D01*
X54200Y-80931D02*
X56775Y-80931D01*
X54200Y-80931D02*
X50744Y-80931D01*
X49475Y-82200D02*
X49200Y-82200D01*
X50744Y-80931D02*
X49475Y-82200D01*
M02*
