G04 (Genere par PCBNEW (2007-02-16)) le 19/10/2007-20:57:58*
G01*
G70*
G90*
%MOIN*%
G04 Gerber Fmt 3.4, Leading zero omitted, Abs format*
%FSLAX34Y34*%
G04 APERTURE LIST*
%ADD10C,0.015000*%
%ADD11R,0.035000X0.055000*%
%ADD12R,0.055000X0.035000*%
%ADD13R,0.080000X0.060000*%
%ADD14R,0.060000X0.080000*%
%ADD15R,0.045000X0.020000*%
%ADD16R,0.030000X0.020000*%
%ADD17R,0.036000X0.036000*%
%ADD18R,0.050000X0.016000*%
%ADD19R,0.016000X0.050000*%
%ADD20R,0.118100X0.078700*%
G04 APERTURE END LIST*
G54D10*
X41750Y-99150D02*
X41654Y-99628D01*
X41654Y-99628D02*
X41383Y-100033D01*
X41383Y-100033D02*
X40978Y-100304D01*
X40978Y-100304D02*
X40500Y-100400D01*
X40500Y-100400D02*
X40022Y-100304D01*
X40022Y-100304D02*
X39617Y-100033D01*
X39617Y-100033D02*
X39346Y-99628D01*
X39346Y-99628D02*
X39250Y-99150D01*
X39250Y-99150D02*
X39346Y-98672D01*
X39346Y-98672D02*
X39617Y-98267D01*
X39617Y-98267D02*
X40022Y-97996D01*
X40022Y-97996D02*
X40500Y-97900D01*
X40500Y-97900D02*
X40978Y-97996D01*
X40978Y-97996D02*
X41383Y-98267D01*
X41383Y-98267D02*
X41654Y-98672D01*
X41654Y-98672D02*
X41750Y-99150D01*
X38000Y-99150D02*
X43000Y-99150D01*
X40500Y-96650D02*
X40500Y-101650D01*
X63450Y-99150D02*
X63354Y-99628D01*
X63354Y-99628D02*
X63083Y-100033D01*
X63083Y-100033D02*
X62678Y-100304D01*
X62678Y-100304D02*
X62200Y-100400D01*
X62200Y-100400D02*
X61722Y-100304D01*
X61722Y-100304D02*
X61317Y-100033D01*
X61317Y-100033D02*
X61046Y-99628D01*
X61046Y-99628D02*
X60950Y-99150D01*
X60950Y-99150D02*
X61046Y-98672D01*
X61046Y-98672D02*
X61317Y-98267D01*
X61317Y-98267D02*
X61722Y-97996D01*
X61722Y-97996D02*
X62200Y-97900D01*
X62200Y-97900D02*
X62678Y-97996D01*
X62678Y-97996D02*
X63083Y-98267D01*
X63083Y-98267D02*
X63354Y-98672D01*
X63354Y-98672D02*
X63450Y-99150D01*
X59700Y-99150D02*
X64700Y-99150D01*
X62200Y-96650D02*
X62200Y-101650D01*
X63450Y-25050D02*
X63354Y-25528D01*
X63354Y-25528D02*
X63083Y-25933D01*
X63083Y-25933D02*
X62678Y-26204D01*
X62678Y-26204D02*
X62200Y-26300D01*
X62200Y-26300D02*
X61722Y-26204D01*
X61722Y-26204D02*
X61317Y-25933D01*
X61317Y-25933D02*
X61046Y-25528D01*
X61046Y-25528D02*
X60950Y-25050D01*
X60950Y-25050D02*
X61046Y-24572D01*
X61046Y-24572D02*
X61317Y-24167D01*
X61317Y-24167D02*
X61722Y-23896D01*
X61722Y-23896D02*
X62200Y-23800D01*
X62200Y-23800D02*
X62678Y-23896D01*
X62678Y-23896D02*
X63083Y-24167D01*
X63083Y-24167D02*
X63354Y-24572D01*
X63354Y-24572D02*
X63450Y-25050D01*
X59700Y-25050D02*
X64700Y-25050D01*
X62200Y-22550D02*
X62200Y-27550D01*
X41750Y-25050D02*
X41654Y-25528D01*
X41654Y-25528D02*
X41383Y-25933D01*
X41383Y-25933D02*
X40978Y-26204D01*
X40978Y-26204D02*
X40500Y-26300D01*
X40500Y-26300D02*
X40022Y-26204D01*
X40022Y-26204D02*
X39617Y-25933D01*
X39617Y-25933D02*
X39346Y-25528D01*
X39346Y-25528D02*
X39250Y-25050D01*
X39250Y-25050D02*
X39346Y-24572D01*
X39346Y-24572D02*
X39617Y-24167D01*
X39617Y-24167D02*
X40022Y-23896D01*
X40022Y-23896D02*
X40500Y-23800D01*
X40500Y-23800D02*
X40978Y-23896D01*
X40978Y-23896D02*
X41383Y-24167D01*
X41383Y-24167D02*
X41654Y-24572D01*
X41654Y-24572D02*
X41750Y-25050D01*
X38000Y-25050D02*
X43000Y-25050D01*
X40500Y-22550D02*
X40500Y-27550D01*
X40500Y-25050D02*
X42350Y-25050D01*
X40500Y-99150D02*
X40500Y-25050D01*
X62200Y-99150D02*
X40500Y-99150D01*
X62200Y-97150D02*
X62200Y-99150D01*
X62200Y-51875D02*
X62200Y-97150D01*
X62200Y-25050D02*
X62200Y-25125D01*
X42350Y-25050D02*
X62200Y-25050D01*
X42350Y-25125D02*
X42350Y-25050D01*
X62200Y-51875D02*
X62200Y-25125D01*
M02*
