G04 (Genere par PCBNEW (2007-02-16)) le 16/10/2007-08:37:13*
G01*
G70*
G90*
%MOIN*%
G04 Gerber Fmt 3.4, Leading zero omitted, Abs format*
%FSLAX34Y34*%
G04 APERTURE LIST*
%ADD10C,0.015000*%
%ADD11C,0.070000*%
%ADD12C,0.034300*%
%ADD13R,0.060000X0.060000*%
%ADD14C,0.060000*%
%ADD15R,0.035000X0.055000*%
%ADD16R,0.055000X0.035000*%
%ADD17R,0.080000X0.060000*%
%ADD18R,0.060000X0.080000*%
%ADD19R,0.045000X0.020000*%
%ADD20R,0.030000X0.020000*%
%ADD21R,0.036000X0.036000*%
%ADD22R,0.050000X0.016000*%
%ADD23R,0.016000X0.050000*%
%ADD24C,0.051200*%
%ADD25C,0.098400*%
%ADD26R,0.118100X0.078700*%
%ADD27C,0.045000*%
%ADD28C,0.017000*%
%ADD29C,0.005000*%
%ADD30C,0.001000*%
%ADD31C,0.008000*%
%ADD32C,0.012000*%
%ADD33C,0.006000*%
G04 APERTURE END LIST*
G54D10*
X41750Y-99150D02*
X41654Y-99628D01*
X41654Y-99628D02*
X41383Y-100033D01*
X41383Y-100033D02*
X40978Y-100304D01*
X40978Y-100304D02*
X40500Y-100400D01*
X40500Y-100400D02*
X40022Y-100304D01*
X40022Y-100304D02*
X39617Y-100033D01*
X39617Y-100033D02*
X39346Y-99628D01*
X39346Y-99628D02*
X39250Y-99150D01*
X39250Y-99150D02*
X39346Y-98672D01*
X39346Y-98672D02*
X39617Y-98267D01*
X39617Y-98267D02*
X40022Y-97996D01*
X40022Y-97996D02*
X40500Y-97900D01*
X40500Y-97900D02*
X40978Y-97996D01*
X40978Y-97996D02*
X41383Y-98267D01*
X41383Y-98267D02*
X41654Y-98672D01*
X41654Y-98672D02*
X41750Y-99150D01*
X38000Y-99150D02*
X43000Y-99150D01*
X40500Y-96650D02*
X40500Y-101650D01*
X63450Y-99150D02*
X63354Y-99628D01*
X63354Y-99628D02*
X63083Y-100033D01*
X63083Y-100033D02*
X62678Y-100304D01*
X62678Y-100304D02*
X62200Y-100400D01*
X62200Y-100400D02*
X61722Y-100304D01*
X61722Y-100304D02*
X61317Y-100033D01*
X61317Y-100033D02*
X61046Y-99628D01*
X61046Y-99628D02*
X60950Y-99150D01*
X60950Y-99150D02*
X61046Y-98672D01*
X61046Y-98672D02*
X61317Y-98267D01*
X61317Y-98267D02*
X61722Y-97996D01*
X61722Y-97996D02*
X62200Y-97900D01*
X62200Y-97900D02*
X62678Y-97996D01*
X62678Y-97996D02*
X63083Y-98267D01*
X63083Y-98267D02*
X63354Y-98672D01*
X63354Y-98672D02*
X63450Y-99150D01*
X59700Y-99150D02*
X64700Y-99150D01*
X62200Y-96650D02*
X62200Y-101650D01*
X63450Y-25050D02*
X63354Y-25528D01*
X63354Y-25528D02*
X63083Y-25933D01*
X63083Y-25933D02*
X62678Y-26204D01*
X62678Y-26204D02*
X62200Y-26300D01*
X62200Y-26300D02*
X61722Y-26204D01*
X61722Y-26204D02*
X61317Y-25933D01*
X61317Y-25933D02*
X61046Y-25528D01*
X61046Y-25528D02*
X60950Y-25050D01*
X60950Y-25050D02*
X61046Y-24572D01*
X61046Y-24572D02*
X61317Y-24167D01*
X61317Y-24167D02*
X61722Y-23896D01*
X61722Y-23896D02*
X62200Y-23800D01*
X62200Y-23800D02*
X62678Y-23896D01*
X62678Y-23896D02*
X63083Y-24167D01*
X63083Y-24167D02*
X63354Y-24572D01*
X63354Y-24572D02*
X63450Y-25050D01*
X59700Y-25050D02*
X64700Y-25050D01*
X62200Y-22550D02*
X62200Y-27550D01*
X41750Y-25050D02*
X41654Y-25528D01*
X41654Y-25528D02*
X41383Y-25933D01*
X41383Y-25933D02*
X40978Y-26204D01*
X40978Y-26204D02*
X40500Y-26300D01*
X40500Y-26300D02*
X40022Y-26204D01*
X40022Y-26204D02*
X39617Y-25933D01*
X39617Y-25933D02*
X39346Y-25528D01*
X39346Y-25528D02*
X39250Y-25050D01*
X39250Y-25050D02*
X39346Y-24572D01*
X39346Y-24572D02*
X39617Y-24167D01*
X39617Y-24167D02*
X40022Y-23896D01*
X40022Y-23896D02*
X40500Y-23800D01*
X40500Y-23800D02*
X40978Y-23896D01*
X40978Y-23896D02*
X41383Y-24167D01*
X41383Y-24167D02*
X41654Y-24572D01*
X41654Y-24572D02*
X41750Y-25050D01*
X38000Y-25050D02*
X43000Y-25050D01*
X40500Y-22550D02*
X40500Y-27550D01*
X40500Y-25050D02*
X42350Y-25050D01*
X40500Y-99150D02*
X40500Y-25050D01*
X62200Y-99150D02*
X40500Y-99150D01*
X62200Y-97150D02*
X62200Y-99150D01*
X62200Y-51875D02*
X62200Y-97150D01*
X62200Y-25050D02*
X62200Y-25125D01*
X42350Y-25050D02*
X62200Y-25050D01*
X42350Y-25125D02*
X42350Y-25050D01*
X62200Y-51875D02*
X62200Y-25125D01*
X44119Y-48000D02*
X44052Y-48332D01*
X44052Y-48332D02*
X43864Y-48614D01*
X43864Y-48614D02*
X43582Y-48802D01*
X43582Y-48802D02*
X43250Y-48869D01*
X43250Y-48869D02*
X42918Y-48802D01*
X42918Y-48802D02*
X42636Y-48614D01*
X42636Y-48614D02*
X42448Y-48332D01*
X42448Y-48332D02*
X42381Y-48000D01*
X42381Y-48000D02*
X42448Y-47668D01*
X42448Y-47668D02*
X42636Y-47386D01*
X42636Y-47386D02*
X42918Y-47198D01*
X42918Y-47198D02*
X43250Y-47131D01*
X43250Y-47131D02*
X43582Y-47198D01*
X43582Y-47198D02*
X43864Y-47386D01*
X43864Y-47386D02*
X44052Y-47668D01*
X44052Y-47668D02*
X44119Y-48000D01*
X44119Y-72000D02*
X44052Y-72332D01*
X44052Y-72332D02*
X43864Y-72614D01*
X43864Y-72614D02*
X43582Y-72802D01*
X43582Y-72802D02*
X43250Y-72869D01*
X43250Y-72869D02*
X42918Y-72802D01*
X42918Y-72802D02*
X42636Y-72614D01*
X42636Y-72614D02*
X42448Y-72332D01*
X42448Y-72332D02*
X42381Y-72000D01*
X42381Y-72000D02*
X42448Y-71668D01*
X42448Y-71668D02*
X42636Y-71386D01*
X42636Y-71386D02*
X42918Y-71198D01*
X42918Y-71198D02*
X43250Y-71131D01*
X43250Y-71131D02*
X43582Y-71198D01*
X43582Y-71198D02*
X43864Y-71386D01*
X43864Y-71386D02*
X44052Y-71668D01*
X44052Y-71668D02*
X44119Y-72000D01*
X44119Y-45000D02*
X44052Y-45332D01*
X44052Y-45332D02*
X43864Y-45614D01*
X43864Y-45614D02*
X43582Y-45802D01*
X43582Y-45802D02*
X43250Y-45869D01*
X43250Y-45869D02*
X42918Y-45802D01*
X42918Y-45802D02*
X42636Y-45614D01*
X42636Y-45614D02*
X42448Y-45332D01*
X42448Y-45332D02*
X42381Y-45000D01*
X42381Y-45000D02*
X42448Y-44668D01*
X42448Y-44668D02*
X42636Y-44386D01*
X42636Y-44386D02*
X42918Y-44198D01*
X42918Y-44198D02*
X43250Y-44131D01*
X43250Y-44131D02*
X43582Y-44198D01*
X43582Y-44198D02*
X43864Y-44386D01*
X43864Y-44386D02*
X44052Y-44668D01*
X44052Y-44668D02*
X44119Y-45000D01*
X44119Y-69000D02*
X44052Y-69332D01*
X44052Y-69332D02*
X43864Y-69614D01*
X43864Y-69614D02*
X43582Y-69802D01*
X43582Y-69802D02*
X43250Y-69869D01*
X43250Y-69869D02*
X42918Y-69802D01*
X42918Y-69802D02*
X42636Y-69614D01*
X42636Y-69614D02*
X42448Y-69332D01*
X42448Y-69332D02*
X42381Y-69000D01*
X42381Y-69000D02*
X42448Y-68668D01*
X42448Y-68668D02*
X42636Y-68386D01*
X42636Y-68386D02*
X42918Y-68198D01*
X42918Y-68198D02*
X43250Y-68131D01*
X43250Y-68131D02*
X43582Y-68198D01*
X43582Y-68198D02*
X43864Y-68386D01*
X43864Y-68386D02*
X44052Y-68668D01*
X44052Y-68668D02*
X44119Y-69000D01*
X44119Y-42000D02*
X44052Y-42332D01*
X44052Y-42332D02*
X43864Y-42614D01*
X43864Y-42614D02*
X43582Y-42802D01*
X43582Y-42802D02*
X43250Y-42869D01*
X43250Y-42869D02*
X42918Y-42802D01*
X42918Y-42802D02*
X42636Y-42614D01*
X42636Y-42614D02*
X42448Y-42332D01*
X42448Y-42332D02*
X42381Y-42000D01*
X42381Y-42000D02*
X42448Y-41668D01*
X42448Y-41668D02*
X42636Y-41386D01*
X42636Y-41386D02*
X42918Y-41198D01*
X42918Y-41198D02*
X43250Y-41131D01*
X43250Y-41131D02*
X43582Y-41198D01*
X43582Y-41198D02*
X43864Y-41386D01*
X43864Y-41386D02*
X44052Y-41668D01*
X44052Y-41668D02*
X44119Y-42000D01*
X44119Y-66000D02*
X44052Y-66332D01*
X44052Y-66332D02*
X43864Y-66614D01*
X43864Y-66614D02*
X43582Y-66802D01*
X43582Y-66802D02*
X43250Y-66869D01*
X43250Y-66869D02*
X42918Y-66802D01*
X42918Y-66802D02*
X42636Y-66614D01*
X42636Y-66614D02*
X42448Y-66332D01*
X42448Y-66332D02*
X42381Y-66000D01*
X42381Y-66000D02*
X42448Y-65668D01*
X42448Y-65668D02*
X42636Y-65386D01*
X42636Y-65386D02*
X42918Y-65198D01*
X42918Y-65198D02*
X43250Y-65131D01*
X43250Y-65131D02*
X43582Y-65198D01*
X43582Y-65198D02*
X43864Y-65386D01*
X43864Y-65386D02*
X44052Y-65668D01*
X44052Y-65668D02*
X44119Y-66000D01*
X44119Y-39000D02*
X44052Y-39332D01*
X44052Y-39332D02*
X43864Y-39614D01*
X43864Y-39614D02*
X43582Y-39802D01*
X43582Y-39802D02*
X43250Y-39869D01*
X43250Y-39869D02*
X42918Y-39802D01*
X42918Y-39802D02*
X42636Y-39614D01*
X42636Y-39614D02*
X42448Y-39332D01*
X42448Y-39332D02*
X42381Y-39000D01*
X42381Y-39000D02*
X42448Y-38668D01*
X42448Y-38668D02*
X42636Y-38386D01*
X42636Y-38386D02*
X42918Y-38198D01*
X42918Y-38198D02*
X43250Y-38131D01*
X43250Y-38131D02*
X43582Y-38198D01*
X43582Y-38198D02*
X43864Y-38386D01*
X43864Y-38386D02*
X44052Y-38668D01*
X44052Y-38668D02*
X44119Y-39000D01*
X44119Y-63000D02*
X44052Y-63332D01*
X44052Y-63332D02*
X43864Y-63614D01*
X43864Y-63614D02*
X43582Y-63802D01*
X43582Y-63802D02*
X43250Y-63869D01*
X43250Y-63869D02*
X42918Y-63802D01*
X42918Y-63802D02*
X42636Y-63614D01*
X42636Y-63614D02*
X42448Y-63332D01*
X42448Y-63332D02*
X42381Y-63000D01*
X42381Y-63000D02*
X42448Y-62668D01*
X42448Y-62668D02*
X42636Y-62386D01*
X42636Y-62386D02*
X42918Y-62198D01*
X42918Y-62198D02*
X43250Y-62131D01*
X43250Y-62131D02*
X43582Y-62198D01*
X43582Y-62198D02*
X43864Y-62386D01*
X43864Y-62386D02*
X44052Y-62668D01*
X44052Y-62668D02*
X44119Y-63000D01*
X44119Y-36000D02*
X44052Y-36332D01*
X44052Y-36332D02*
X43864Y-36614D01*
X43864Y-36614D02*
X43582Y-36802D01*
X43582Y-36802D02*
X43250Y-36869D01*
X43250Y-36869D02*
X42918Y-36802D01*
X42918Y-36802D02*
X42636Y-36614D01*
X42636Y-36614D02*
X42448Y-36332D01*
X42448Y-36332D02*
X42381Y-36000D01*
X42381Y-36000D02*
X42448Y-35668D01*
X42448Y-35668D02*
X42636Y-35386D01*
X42636Y-35386D02*
X42918Y-35198D01*
X42918Y-35198D02*
X43250Y-35131D01*
X43250Y-35131D02*
X43582Y-35198D01*
X43582Y-35198D02*
X43864Y-35386D01*
X43864Y-35386D02*
X44052Y-35668D01*
X44052Y-35668D02*
X44119Y-36000D01*
X44119Y-60000D02*
X44052Y-60332D01*
X44052Y-60332D02*
X43864Y-60614D01*
X43864Y-60614D02*
X43582Y-60802D01*
X43582Y-60802D02*
X43250Y-60869D01*
X43250Y-60869D02*
X42918Y-60802D01*
X42918Y-60802D02*
X42636Y-60614D01*
X42636Y-60614D02*
X42448Y-60332D01*
X42448Y-60332D02*
X42381Y-60000D01*
X42381Y-60000D02*
X42448Y-59668D01*
X42448Y-59668D02*
X42636Y-59386D01*
X42636Y-59386D02*
X42918Y-59198D01*
X42918Y-59198D02*
X43250Y-59131D01*
X43250Y-59131D02*
X43582Y-59198D01*
X43582Y-59198D02*
X43864Y-59386D01*
X43864Y-59386D02*
X44052Y-59668D01*
X44052Y-59668D02*
X44119Y-60000D01*
X44119Y-33000D02*
X44052Y-33332D01*
X44052Y-33332D02*
X43864Y-33614D01*
X43864Y-33614D02*
X43582Y-33802D01*
X43582Y-33802D02*
X43250Y-33869D01*
X43250Y-33869D02*
X42918Y-33802D01*
X42918Y-33802D02*
X42636Y-33614D01*
X42636Y-33614D02*
X42448Y-33332D01*
X42448Y-33332D02*
X42381Y-33000D01*
X42381Y-33000D02*
X42448Y-32668D01*
X42448Y-32668D02*
X42636Y-32386D01*
X42636Y-32386D02*
X42918Y-32198D01*
X42918Y-32198D02*
X43250Y-32131D01*
X43250Y-32131D02*
X43582Y-32198D01*
X43582Y-32198D02*
X43864Y-32386D01*
X43864Y-32386D02*
X44052Y-32668D01*
X44052Y-32668D02*
X44119Y-33000D01*
X44119Y-57000D02*
X44052Y-57332D01*
X44052Y-57332D02*
X43864Y-57614D01*
X43864Y-57614D02*
X43582Y-57802D01*
X43582Y-57802D02*
X43250Y-57869D01*
X43250Y-57869D02*
X42918Y-57802D01*
X42918Y-57802D02*
X42636Y-57614D01*
X42636Y-57614D02*
X42448Y-57332D01*
X42448Y-57332D02*
X42381Y-57000D01*
X42381Y-57000D02*
X42448Y-56668D01*
X42448Y-56668D02*
X42636Y-56386D01*
X42636Y-56386D02*
X42918Y-56198D01*
X42918Y-56198D02*
X43250Y-56131D01*
X43250Y-56131D02*
X43582Y-56198D01*
X43582Y-56198D02*
X43864Y-56386D01*
X43864Y-56386D02*
X44052Y-56668D01*
X44052Y-56668D02*
X44119Y-57000D01*
X44119Y-30000D02*
X44052Y-30332D01*
X44052Y-30332D02*
X43864Y-30614D01*
X43864Y-30614D02*
X43582Y-30802D01*
X43582Y-30802D02*
X43250Y-30869D01*
X43250Y-30869D02*
X42918Y-30802D01*
X42918Y-30802D02*
X42636Y-30614D01*
X42636Y-30614D02*
X42448Y-30332D01*
X42448Y-30332D02*
X42381Y-30000D01*
X42381Y-30000D02*
X42448Y-29668D01*
X42448Y-29668D02*
X42636Y-29386D01*
X42636Y-29386D02*
X42918Y-29198D01*
X42918Y-29198D02*
X43250Y-29131D01*
X43250Y-29131D02*
X43582Y-29198D01*
X43582Y-29198D02*
X43864Y-29386D01*
X43864Y-29386D02*
X44052Y-29668D01*
X44052Y-29668D02*
X44119Y-30000D01*
X44119Y-54000D02*
X44052Y-54332D01*
X44052Y-54332D02*
X43864Y-54614D01*
X43864Y-54614D02*
X43582Y-54802D01*
X43582Y-54802D02*
X43250Y-54869D01*
X43250Y-54869D02*
X42918Y-54802D01*
X42918Y-54802D02*
X42636Y-54614D01*
X42636Y-54614D02*
X42448Y-54332D01*
X42448Y-54332D02*
X42381Y-54000D01*
X42381Y-54000D02*
X42448Y-53668D01*
X42448Y-53668D02*
X42636Y-53386D01*
X42636Y-53386D02*
X42918Y-53198D01*
X42918Y-53198D02*
X43250Y-53131D01*
X43250Y-53131D02*
X43582Y-53198D01*
X43582Y-53198D02*
X43864Y-53386D01*
X43864Y-53386D02*
X44052Y-53668D01*
X44052Y-53668D02*
X44119Y-54000D01*
X44119Y-27000D02*
X44052Y-27332D01*
X44052Y-27332D02*
X43864Y-27614D01*
X43864Y-27614D02*
X43582Y-27802D01*
X43582Y-27802D02*
X43250Y-27869D01*
X43250Y-27869D02*
X42918Y-27802D01*
X42918Y-27802D02*
X42636Y-27614D01*
X42636Y-27614D02*
X42448Y-27332D01*
X42448Y-27332D02*
X42381Y-27000D01*
X42381Y-27000D02*
X42448Y-26668D01*
X42448Y-26668D02*
X42636Y-26386D01*
X42636Y-26386D02*
X42918Y-26198D01*
X42918Y-26198D02*
X43250Y-26131D01*
X43250Y-26131D02*
X43582Y-26198D01*
X43582Y-26198D02*
X43864Y-26386D01*
X43864Y-26386D02*
X44052Y-26668D01*
X44052Y-26668D02*
X44119Y-27000D01*
X44119Y-51000D02*
X44052Y-51332D01*
X44052Y-51332D02*
X43864Y-51614D01*
X43864Y-51614D02*
X43582Y-51802D01*
X43582Y-51802D02*
X43250Y-51869D01*
X43250Y-51869D02*
X42918Y-51802D01*
X42918Y-51802D02*
X42636Y-51614D01*
X42636Y-51614D02*
X42448Y-51332D01*
X42448Y-51332D02*
X42381Y-51000D01*
X42381Y-51000D02*
X42448Y-50668D01*
X42448Y-50668D02*
X42636Y-50386D01*
X42636Y-50386D02*
X42918Y-50198D01*
X42918Y-50198D02*
X43250Y-50131D01*
X43250Y-50131D02*
X43582Y-50198D01*
X43582Y-50198D02*
X43864Y-50386D01*
X43864Y-50386D02*
X44052Y-50668D01*
X44052Y-50668D02*
X44119Y-51000D01*
X44119Y-96000D02*
X44052Y-96332D01*
X44052Y-96332D02*
X43864Y-96614D01*
X43864Y-96614D02*
X43582Y-96802D01*
X43582Y-96802D02*
X43250Y-96869D01*
X43250Y-96869D02*
X42918Y-96802D01*
X42918Y-96802D02*
X42636Y-96614D01*
X42636Y-96614D02*
X42448Y-96332D01*
X42448Y-96332D02*
X42381Y-96000D01*
X42381Y-96000D02*
X42448Y-95668D01*
X42448Y-95668D02*
X42636Y-95386D01*
X42636Y-95386D02*
X42918Y-95198D01*
X42918Y-95198D02*
X43250Y-95131D01*
X43250Y-95131D02*
X43582Y-95198D01*
X43582Y-95198D02*
X43864Y-95386D01*
X43864Y-95386D02*
X44052Y-95668D01*
X44052Y-95668D02*
X44119Y-96000D01*
X44119Y-93000D02*
X44052Y-93332D01*
X44052Y-93332D02*
X43864Y-93614D01*
X43864Y-93614D02*
X43582Y-93802D01*
X43582Y-93802D02*
X43250Y-93869D01*
X43250Y-93869D02*
X42918Y-93802D01*
X42918Y-93802D02*
X42636Y-93614D01*
X42636Y-93614D02*
X42448Y-93332D01*
X42448Y-93332D02*
X42381Y-93000D01*
X42381Y-93000D02*
X42448Y-92668D01*
X42448Y-92668D02*
X42636Y-92386D01*
X42636Y-92386D02*
X42918Y-92198D01*
X42918Y-92198D02*
X43250Y-92131D01*
X43250Y-92131D02*
X43582Y-92198D01*
X43582Y-92198D02*
X43864Y-92386D01*
X43864Y-92386D02*
X44052Y-92668D01*
X44052Y-92668D02*
X44119Y-93000D01*
X44119Y-90000D02*
X44052Y-90332D01*
X44052Y-90332D02*
X43864Y-90614D01*
X43864Y-90614D02*
X43582Y-90802D01*
X43582Y-90802D02*
X43250Y-90869D01*
X43250Y-90869D02*
X42918Y-90802D01*
X42918Y-90802D02*
X42636Y-90614D01*
X42636Y-90614D02*
X42448Y-90332D01*
X42448Y-90332D02*
X42381Y-90000D01*
X42381Y-90000D02*
X42448Y-89668D01*
X42448Y-89668D02*
X42636Y-89386D01*
X42636Y-89386D02*
X42918Y-89198D01*
X42918Y-89198D02*
X43250Y-89131D01*
X43250Y-89131D02*
X43582Y-89198D01*
X43582Y-89198D02*
X43864Y-89386D01*
X43864Y-89386D02*
X44052Y-89668D01*
X44052Y-89668D02*
X44119Y-90000D01*
X44119Y-87000D02*
X44052Y-87332D01*
X44052Y-87332D02*
X43864Y-87614D01*
X43864Y-87614D02*
X43582Y-87802D01*
X43582Y-87802D02*
X43250Y-87869D01*
X43250Y-87869D02*
X42918Y-87802D01*
X42918Y-87802D02*
X42636Y-87614D01*
X42636Y-87614D02*
X42448Y-87332D01*
X42448Y-87332D02*
X42381Y-87000D01*
X42381Y-87000D02*
X42448Y-86668D01*
X42448Y-86668D02*
X42636Y-86386D01*
X42636Y-86386D02*
X42918Y-86198D01*
X42918Y-86198D02*
X43250Y-86131D01*
X43250Y-86131D02*
X43582Y-86198D01*
X43582Y-86198D02*
X43864Y-86386D01*
X43864Y-86386D02*
X44052Y-86668D01*
X44052Y-86668D02*
X44119Y-87000D01*
X44119Y-84000D02*
X44052Y-84332D01*
X44052Y-84332D02*
X43864Y-84614D01*
X43864Y-84614D02*
X43582Y-84802D01*
X43582Y-84802D02*
X43250Y-84869D01*
X43250Y-84869D02*
X42918Y-84802D01*
X42918Y-84802D02*
X42636Y-84614D01*
X42636Y-84614D02*
X42448Y-84332D01*
X42448Y-84332D02*
X42381Y-84000D01*
X42381Y-84000D02*
X42448Y-83668D01*
X42448Y-83668D02*
X42636Y-83386D01*
X42636Y-83386D02*
X42918Y-83198D01*
X42918Y-83198D02*
X43250Y-83131D01*
X43250Y-83131D02*
X43582Y-83198D01*
X43582Y-83198D02*
X43864Y-83386D01*
X43864Y-83386D02*
X44052Y-83668D01*
X44052Y-83668D02*
X44119Y-84000D01*
X44119Y-81000D02*
X44052Y-81332D01*
X44052Y-81332D02*
X43864Y-81614D01*
X43864Y-81614D02*
X43582Y-81802D01*
X43582Y-81802D02*
X43250Y-81869D01*
X43250Y-81869D02*
X42918Y-81802D01*
X42918Y-81802D02*
X42636Y-81614D01*
X42636Y-81614D02*
X42448Y-81332D01*
X42448Y-81332D02*
X42381Y-81000D01*
X42381Y-81000D02*
X42448Y-80668D01*
X42448Y-80668D02*
X42636Y-80386D01*
X42636Y-80386D02*
X42918Y-80198D01*
X42918Y-80198D02*
X43250Y-80131D01*
X43250Y-80131D02*
X43582Y-80198D01*
X43582Y-80198D02*
X43864Y-80386D01*
X43864Y-80386D02*
X44052Y-80668D01*
X44052Y-80668D02*
X44119Y-81000D01*
X44119Y-78000D02*
X44052Y-78332D01*
X44052Y-78332D02*
X43864Y-78614D01*
X43864Y-78614D02*
X43582Y-78802D01*
X43582Y-78802D02*
X43250Y-78869D01*
X43250Y-78869D02*
X42918Y-78802D01*
X42918Y-78802D02*
X42636Y-78614D01*
X42636Y-78614D02*
X42448Y-78332D01*
X42448Y-78332D02*
X42381Y-78000D01*
X42381Y-78000D02*
X42448Y-77668D01*
X42448Y-77668D02*
X42636Y-77386D01*
X42636Y-77386D02*
X42918Y-77198D01*
X42918Y-77198D02*
X43250Y-77131D01*
X43250Y-77131D02*
X43582Y-77198D01*
X43582Y-77198D02*
X43864Y-77386D01*
X43864Y-77386D02*
X44052Y-77668D01*
X44052Y-77668D02*
X44119Y-78000D01*
X44119Y-75000D02*
X44052Y-75332D01*
X44052Y-75332D02*
X43864Y-75614D01*
X43864Y-75614D02*
X43582Y-75802D01*
X43582Y-75802D02*
X43250Y-75869D01*
X43250Y-75869D02*
X42918Y-75802D01*
X42918Y-75802D02*
X42636Y-75614D01*
X42636Y-75614D02*
X42448Y-75332D01*
X42448Y-75332D02*
X42381Y-75000D01*
X42381Y-75000D02*
X42448Y-74668D01*
X42448Y-74668D02*
X42636Y-74386D01*
X42636Y-74386D02*
X42918Y-74198D01*
X42918Y-74198D02*
X43250Y-74131D01*
X43250Y-74131D02*
X43582Y-74198D01*
X43582Y-74198D02*
X43864Y-74386D01*
X43864Y-74386D02*
X44052Y-74668D01*
X44052Y-74668D02*
X44119Y-75000D01*
G54D29*
X54500Y-54150D02*
X54475Y-54193D01*
X54475Y-54193D02*
X54425Y-54193D01*
X54425Y-54193D02*
X54400Y-54150D01*
X54400Y-54150D02*
X54425Y-54107D01*
X54425Y-54107D02*
X54475Y-54107D01*
X54475Y-54107D02*
X54500Y-54150D01*
X54900Y-54150D02*
X54500Y-54150D01*
X54500Y-54150D02*
X54500Y-54750D01*
X54500Y-54750D02*
X54900Y-54750D01*
X55300Y-54750D02*
X55700Y-54750D01*
X55700Y-54750D02*
X55700Y-54150D01*
X55700Y-54150D02*
X55300Y-54150D01*
X54450Y-55850D02*
X54425Y-55893D01*
X54425Y-55893D02*
X54375Y-55893D01*
X54375Y-55893D02*
X54350Y-55850D01*
X54350Y-55850D02*
X54375Y-55807D01*
X54375Y-55807D02*
X54425Y-55807D01*
X54425Y-55807D02*
X54450Y-55850D01*
X54400Y-56300D02*
X54400Y-55900D01*
X54400Y-55900D02*
X53800Y-55900D01*
X53800Y-55900D02*
X53800Y-56300D01*
X53800Y-56700D02*
X53800Y-57100D01*
X53800Y-57100D02*
X54400Y-57100D01*
X54400Y-57100D02*
X54400Y-56700D01*
X55450Y-90000D02*
X55425Y-90043D01*
X55425Y-90043D02*
X55375Y-90043D01*
X55375Y-90043D02*
X55350Y-90000D01*
X55350Y-90000D02*
X55375Y-89957D01*
X55375Y-89957D02*
X55425Y-89957D01*
X55425Y-89957D02*
X55450Y-90000D01*
X55400Y-90450D02*
X55400Y-90050D01*
X55400Y-90050D02*
X54800Y-90050D01*
X54800Y-90050D02*
X54800Y-90450D01*
X54800Y-90850D02*
X54800Y-91250D01*
X54800Y-91250D02*
X55400Y-91250D01*
X55400Y-91250D02*
X55400Y-90850D01*
X55780Y-53680D02*
X55755Y-53723D01*
X55755Y-53723D02*
X55705Y-53723D01*
X55705Y-53723D02*
X55680Y-53680D01*
X55680Y-53680D02*
X55705Y-53637D01*
X55705Y-53637D02*
X55755Y-53637D01*
X55755Y-53637D02*
X55780Y-53680D01*
X55280Y-53680D02*
X55680Y-53680D01*
X55680Y-53680D02*
X55680Y-53080D01*
X55680Y-53080D02*
X55280Y-53080D01*
X54880Y-53080D02*
X54480Y-53080D01*
X54480Y-53080D02*
X54480Y-53680D01*
X54480Y-53680D02*
X54880Y-53680D01*
X55930Y-93770D02*
X55905Y-93813D01*
X55905Y-93813D02*
X55855Y-93813D01*
X55855Y-93813D02*
X55830Y-93770D01*
X55830Y-93770D02*
X55855Y-93727D01*
X55855Y-93727D02*
X55905Y-93727D01*
X55905Y-93727D02*
X55930Y-93770D01*
X55880Y-94220D02*
X55880Y-93820D01*
X55880Y-93820D02*
X55280Y-93820D01*
X55280Y-93820D02*
X55280Y-94220D01*
X55280Y-94620D02*
X55280Y-95020D01*
X55280Y-95020D02*
X55880Y-95020D01*
X55880Y-95020D02*
X55880Y-94620D01*
X52275Y-52100D02*
X52250Y-52143D01*
X52250Y-52143D02*
X52200Y-52143D01*
X52200Y-52143D02*
X52175Y-52100D01*
X52175Y-52100D02*
X52200Y-52057D01*
X52200Y-52057D02*
X52250Y-52057D01*
X52250Y-52057D02*
X52275Y-52100D01*
X52675Y-52100D02*
X52275Y-52100D01*
X52275Y-52100D02*
X52275Y-52700D01*
X52275Y-52700D02*
X52675Y-52700D01*
X53075Y-52700D02*
X53475Y-52700D01*
X53475Y-52700D02*
X53475Y-52100D01*
X53475Y-52100D02*
X53075Y-52100D01*
X53220Y-42700D02*
X53195Y-42743D01*
X53195Y-42743D02*
X53145Y-42743D01*
X53145Y-42743D02*
X53120Y-42700D01*
X53120Y-42700D02*
X53145Y-42657D01*
X53145Y-42657D02*
X53195Y-42657D01*
X53195Y-42657D02*
X53220Y-42700D01*
X53620Y-42700D02*
X53220Y-42700D01*
X53220Y-42700D02*
X53220Y-43300D01*
X53220Y-43300D02*
X53620Y-43300D01*
X54020Y-43300D02*
X54420Y-43300D01*
X54420Y-43300D02*
X54420Y-42700D01*
X54420Y-42700D02*
X54020Y-42700D01*
X57925Y-61250D02*
X57900Y-61293D01*
X57900Y-61293D02*
X57850Y-61293D01*
X57850Y-61293D02*
X57825Y-61250D01*
X57825Y-61250D02*
X57850Y-61207D01*
X57850Y-61207D02*
X57900Y-61207D01*
X57900Y-61207D02*
X57925Y-61250D01*
X57875Y-61700D02*
X57875Y-61300D01*
X57875Y-61300D02*
X57275Y-61300D01*
X57275Y-61300D02*
X57275Y-61700D01*
X57275Y-62100D02*
X57275Y-62500D01*
X57275Y-62500D02*
X57875Y-62500D01*
X57875Y-62500D02*
X57875Y-62100D01*
X55100Y-81100D02*
X55075Y-81143D01*
X55075Y-81143D02*
X55025Y-81143D01*
X55025Y-81143D02*
X55000Y-81100D01*
X55000Y-81100D02*
X55025Y-81057D01*
X55025Y-81057D02*
X55075Y-81057D01*
X55075Y-81057D02*
X55100Y-81100D01*
X55050Y-80650D02*
X55050Y-81050D01*
X55050Y-81050D02*
X55650Y-81050D01*
X55650Y-81050D02*
X55650Y-80650D01*
X55650Y-80250D02*
X55650Y-79850D01*
X55650Y-79850D02*
X55050Y-79850D01*
X55050Y-79850D02*
X55050Y-80250D01*
X49300Y-27000D02*
X49275Y-27043D01*
X49275Y-27043D02*
X49225Y-27043D01*
X49225Y-27043D02*
X49200Y-27000D01*
X49200Y-27000D02*
X49225Y-26957D01*
X49225Y-26957D02*
X49275Y-26957D01*
X49275Y-26957D02*
X49300Y-27000D01*
X49700Y-27000D02*
X49300Y-27000D01*
X49300Y-27000D02*
X49300Y-27600D01*
X49300Y-27600D02*
X49700Y-27600D01*
X50100Y-27600D02*
X50500Y-27600D01*
X50500Y-27600D02*
X50500Y-27000D01*
X50500Y-27000D02*
X50100Y-27000D01*
X46400Y-26000D02*
X46375Y-26043D01*
X46375Y-26043D02*
X46325Y-26043D01*
X46325Y-26043D02*
X46300Y-26000D01*
X46300Y-26000D02*
X46325Y-25957D01*
X46325Y-25957D02*
X46375Y-25957D01*
X46375Y-25957D02*
X46400Y-26000D01*
X46800Y-26000D02*
X46400Y-26000D01*
X46400Y-26000D02*
X46400Y-26600D01*
X46400Y-26600D02*
X46800Y-26600D01*
X47200Y-26600D02*
X47600Y-26600D01*
X47600Y-26600D02*
X47600Y-26000D01*
X47600Y-26000D02*
X47200Y-26000D01*
X47800Y-26500D02*
X47775Y-26543D01*
X47775Y-26543D02*
X47725Y-26543D01*
X47725Y-26543D02*
X47700Y-26500D01*
X47700Y-26500D02*
X47725Y-26457D01*
X47725Y-26457D02*
X47775Y-26457D01*
X47775Y-26457D02*
X47800Y-26500D01*
X48200Y-26500D02*
X47800Y-26500D01*
X47800Y-26500D02*
X47800Y-27100D01*
X47800Y-27100D02*
X48200Y-27100D01*
X48600Y-27100D02*
X49000Y-27100D01*
X49000Y-27100D02*
X49000Y-26500D01*
X49000Y-26500D02*
X48600Y-26500D01*
X54100Y-28500D02*
X54075Y-28543D01*
X54075Y-28543D02*
X54025Y-28543D01*
X54025Y-28543D02*
X54000Y-28500D01*
X54000Y-28500D02*
X54025Y-28457D01*
X54025Y-28457D02*
X54075Y-28457D01*
X54075Y-28457D02*
X54100Y-28500D01*
X54500Y-28500D02*
X54100Y-28500D01*
X54100Y-28500D02*
X54100Y-29100D01*
X54100Y-29100D02*
X54500Y-29100D01*
X54900Y-29100D02*
X55300Y-29100D01*
X55300Y-29100D02*
X55300Y-28500D01*
X55300Y-28500D02*
X54900Y-28500D01*
X50900Y-27500D02*
X50875Y-27543D01*
X50875Y-27543D02*
X50825Y-27543D01*
X50825Y-27543D02*
X50800Y-27500D01*
X50800Y-27500D02*
X50825Y-27457D01*
X50825Y-27457D02*
X50875Y-27457D01*
X50875Y-27457D02*
X50900Y-27500D01*
X51300Y-27500D02*
X50900Y-27500D01*
X50900Y-27500D02*
X50900Y-28100D01*
X50900Y-28100D02*
X51300Y-28100D01*
X51700Y-28100D02*
X52100Y-28100D01*
X52100Y-28100D02*
X52100Y-27500D01*
X52100Y-27500D02*
X51700Y-27500D01*
X52500Y-28000D02*
X52475Y-28043D01*
X52475Y-28043D02*
X52425Y-28043D01*
X52425Y-28043D02*
X52400Y-28000D01*
X52400Y-28000D02*
X52425Y-27957D01*
X52425Y-27957D02*
X52475Y-27957D01*
X52475Y-27957D02*
X52500Y-28000D01*
X52900Y-28000D02*
X52500Y-28000D01*
X52500Y-28000D02*
X52500Y-28600D01*
X52500Y-28600D02*
X52900Y-28600D01*
X53300Y-28600D02*
X53700Y-28600D01*
X53700Y-28600D02*
X53700Y-28000D01*
X53700Y-28000D02*
X53300Y-28000D01*
X52675Y-30575D02*
X52650Y-30618D01*
X52650Y-30618D02*
X52600Y-30618D01*
X52600Y-30618D02*
X52575Y-30575D01*
X52575Y-30575D02*
X52600Y-30532D01*
X52600Y-30532D02*
X52650Y-30532D01*
X52650Y-30532D02*
X52675Y-30575D01*
X53075Y-30575D02*
X52675Y-30575D01*
X52675Y-30575D02*
X52675Y-31175D01*
X52675Y-31175D02*
X53075Y-31175D01*
X53475Y-31175D02*
X53875Y-31175D01*
X53875Y-31175D02*
X53875Y-30575D01*
X53875Y-30575D02*
X53475Y-30575D01*
X52500Y-29100D02*
X52475Y-29143D01*
X52475Y-29143D02*
X52425Y-29143D01*
X52425Y-29143D02*
X52400Y-29100D01*
X52400Y-29100D02*
X52425Y-29057D01*
X52425Y-29057D02*
X52475Y-29057D01*
X52475Y-29057D02*
X52500Y-29100D01*
X52900Y-29100D02*
X52500Y-29100D01*
X52500Y-29100D02*
X52500Y-29700D01*
X52500Y-29700D02*
X52900Y-29700D01*
X53300Y-29700D02*
X53700Y-29700D01*
X53700Y-29700D02*
X53700Y-29100D01*
X53700Y-29100D02*
X53300Y-29100D01*
X54475Y-30000D02*
X54450Y-30043D01*
X54450Y-30043D02*
X54400Y-30043D01*
X54400Y-30043D02*
X54375Y-30000D01*
X54375Y-30000D02*
X54400Y-29957D01*
X54400Y-29957D02*
X54450Y-29957D01*
X54450Y-29957D02*
X54475Y-30000D01*
X54875Y-30000D02*
X54475Y-30000D01*
X54475Y-30000D02*
X54475Y-30600D01*
X54475Y-30600D02*
X54875Y-30600D01*
X55275Y-30600D02*
X55675Y-30600D01*
X55675Y-30600D02*
X55675Y-30000D01*
X55675Y-30000D02*
X55275Y-30000D01*
X48050Y-49650D02*
X48025Y-49693D01*
X48025Y-49693D02*
X47975Y-49693D01*
X47975Y-49693D02*
X47950Y-49650D01*
X47950Y-49650D02*
X47975Y-49607D01*
X47975Y-49607D02*
X48025Y-49607D01*
X48025Y-49607D02*
X48050Y-49650D01*
X48000Y-49200D02*
X48000Y-49600D01*
X48000Y-49600D02*
X48600Y-49600D01*
X48600Y-49600D02*
X48600Y-49200D01*
X48600Y-48800D02*
X48600Y-48400D01*
X48600Y-48400D02*
X48000Y-48400D01*
X48000Y-48400D02*
X48000Y-48800D01*
X53275Y-31475D02*
X53250Y-31518D01*
X53250Y-31518D02*
X53200Y-31518D01*
X53200Y-31518D02*
X53175Y-31475D01*
X53175Y-31475D02*
X53200Y-31432D01*
X53200Y-31432D02*
X53250Y-31432D01*
X53250Y-31432D02*
X53275Y-31475D01*
X53675Y-31475D02*
X53275Y-31475D01*
X53275Y-31475D02*
X53275Y-32075D01*
X53275Y-32075D02*
X53675Y-32075D01*
X54075Y-32075D02*
X54475Y-32075D01*
X54475Y-32075D02*
X54475Y-31475D01*
X54475Y-31475D02*
X54075Y-31475D01*
X54600Y-32350D02*
X54575Y-32393D01*
X54575Y-32393D02*
X54525Y-32393D01*
X54525Y-32393D02*
X54500Y-32350D01*
X54500Y-32350D02*
X54525Y-32307D01*
X54525Y-32307D02*
X54575Y-32307D01*
X54575Y-32307D02*
X54600Y-32350D01*
X54550Y-32800D02*
X54550Y-32400D01*
X54550Y-32400D02*
X53950Y-32400D01*
X53950Y-32400D02*
X53950Y-32800D01*
X53950Y-33200D02*
X53950Y-33600D01*
X53950Y-33600D02*
X54550Y-33600D01*
X54550Y-33600D02*
X54550Y-33200D01*
X48675Y-51075D02*
X48650Y-51118D01*
X48650Y-51118D02*
X48600Y-51118D01*
X48600Y-51118D02*
X48575Y-51075D01*
X48575Y-51075D02*
X48600Y-51032D01*
X48600Y-51032D02*
X48650Y-51032D01*
X48650Y-51032D02*
X48675Y-51075D01*
X48625Y-50625D02*
X48625Y-51025D01*
X48625Y-51025D02*
X49225Y-51025D01*
X49225Y-51025D02*
X49225Y-50625D01*
X49225Y-50225D02*
X49225Y-49825D01*
X49225Y-49825D02*
X48625Y-49825D01*
X48625Y-49825D02*
X48625Y-50225D01*
X59290Y-67130D02*
X59265Y-67173D01*
X59265Y-67173D02*
X59215Y-67173D01*
X59215Y-67173D02*
X59190Y-67130D01*
X59190Y-67130D02*
X59215Y-67087D01*
X59215Y-67087D02*
X59265Y-67087D01*
X59265Y-67087D02*
X59290Y-67130D01*
X59240Y-66680D02*
X59240Y-67080D01*
X59240Y-67080D02*
X59840Y-67080D01*
X59840Y-67080D02*
X59840Y-66680D01*
X59840Y-66280D02*
X59840Y-65880D01*
X59840Y-65880D02*
X59240Y-65880D01*
X59240Y-65880D02*
X59240Y-66280D01*
X60250Y-67150D02*
X60225Y-67193D01*
X60225Y-67193D02*
X60175Y-67193D01*
X60175Y-67193D02*
X60150Y-67150D01*
X60150Y-67150D02*
X60175Y-67107D01*
X60175Y-67107D02*
X60225Y-67107D01*
X60225Y-67107D02*
X60250Y-67150D01*
X60200Y-66700D02*
X60200Y-67100D01*
X60200Y-67100D02*
X60800Y-67100D01*
X60800Y-67100D02*
X60800Y-66700D01*
X60800Y-66300D02*
X60800Y-65900D01*
X60800Y-65900D02*
X60200Y-65900D01*
X60200Y-65900D02*
X60200Y-66300D01*
X50625Y-52975D02*
X50600Y-53018D01*
X50600Y-53018D02*
X50550Y-53018D01*
X50550Y-53018D02*
X50525Y-52975D01*
X50525Y-52975D02*
X50550Y-52932D01*
X50550Y-52932D02*
X50600Y-52932D01*
X50600Y-52932D02*
X50625Y-52975D01*
X50575Y-52525D02*
X50575Y-52925D01*
X50575Y-52925D02*
X51175Y-52925D01*
X51175Y-52925D02*
X51175Y-52525D01*
X51175Y-52125D02*
X51175Y-51725D01*
X51175Y-51725D02*
X50575Y-51725D01*
X50575Y-51725D02*
X50575Y-52125D01*
X49450Y-52950D02*
X49425Y-52993D01*
X49425Y-52993D02*
X49375Y-52993D01*
X49375Y-52993D02*
X49350Y-52950D01*
X49350Y-52950D02*
X49375Y-52907D01*
X49375Y-52907D02*
X49425Y-52907D01*
X49425Y-52907D02*
X49450Y-52950D01*
X49400Y-52500D02*
X49400Y-52900D01*
X49400Y-52900D02*
X50000Y-52900D01*
X50000Y-52900D02*
X50000Y-52500D01*
X50000Y-52100D02*
X50000Y-51700D01*
X50000Y-51700D02*
X49400Y-51700D01*
X49400Y-51700D02*
X49400Y-52100D01*
X50025Y-50800D02*
X50000Y-50843D01*
X50000Y-50843D02*
X49950Y-50843D01*
X49950Y-50843D02*
X49925Y-50800D01*
X49925Y-50800D02*
X49950Y-50757D01*
X49950Y-50757D02*
X50000Y-50757D01*
X50000Y-50757D02*
X50025Y-50800D01*
X49975Y-50350D02*
X49975Y-50750D01*
X49975Y-50750D02*
X50575Y-50750D01*
X50575Y-50750D02*
X50575Y-50350D01*
X50575Y-49950D02*
X50575Y-49550D01*
X50575Y-49550D02*
X49975Y-49550D01*
X49975Y-49550D02*
X49975Y-49950D01*
X52625Y-55275D02*
X52600Y-55318D01*
X52600Y-55318D02*
X52550Y-55318D01*
X52550Y-55318D02*
X52525Y-55275D01*
X52525Y-55275D02*
X52550Y-55232D01*
X52550Y-55232D02*
X52600Y-55232D01*
X52600Y-55232D02*
X52625Y-55275D01*
X52575Y-54825D02*
X52575Y-55225D01*
X52575Y-55225D02*
X53175Y-55225D01*
X53175Y-55225D02*
X53175Y-54825D01*
X53175Y-54425D02*
X53175Y-54025D01*
X53175Y-54025D02*
X52575Y-54025D01*
X52575Y-54025D02*
X52575Y-54425D01*
X51175Y-51225D02*
X51150Y-51268D01*
X51150Y-51268D02*
X51100Y-51268D01*
X51100Y-51268D02*
X51075Y-51225D01*
X51075Y-51225D02*
X51100Y-51182D01*
X51100Y-51182D02*
X51150Y-51182D01*
X51150Y-51182D02*
X51175Y-51225D01*
X51125Y-50775D02*
X51125Y-51175D01*
X51125Y-51175D02*
X51725Y-51175D01*
X51725Y-51175D02*
X51725Y-50775D01*
X51725Y-50375D02*
X51725Y-49975D01*
X51725Y-49975D02*
X51125Y-49975D01*
X51125Y-49975D02*
X51125Y-50375D01*
X51825Y-54250D02*
X51800Y-54293D01*
X51800Y-54293D02*
X51750Y-54293D01*
X51750Y-54293D02*
X51725Y-54250D01*
X51725Y-54250D02*
X51750Y-54207D01*
X51750Y-54207D02*
X51800Y-54207D01*
X51800Y-54207D02*
X51825Y-54250D01*
X51775Y-53800D02*
X51775Y-54200D01*
X51775Y-54200D02*
X52375Y-54200D01*
X52375Y-54200D02*
X52375Y-53800D01*
X52375Y-53400D02*
X52375Y-53000D01*
X52375Y-53000D02*
X51775Y-53000D01*
X51775Y-53000D02*
X51775Y-53400D01*
X55900Y-63875D02*
X55875Y-63918D01*
X55875Y-63918D02*
X55825Y-63918D01*
X55825Y-63918D02*
X55800Y-63875D01*
X55800Y-63875D02*
X55825Y-63832D01*
X55825Y-63832D02*
X55875Y-63832D01*
X55875Y-63832D02*
X55900Y-63875D01*
X55850Y-63425D02*
X55850Y-63825D01*
X55850Y-63825D02*
X56450Y-63825D01*
X56450Y-63825D02*
X56450Y-63425D01*
X56450Y-63025D02*
X56450Y-62625D01*
X56450Y-62625D02*
X55850Y-62625D01*
X55850Y-62625D02*
X55850Y-63025D01*
X54400Y-59875D02*
X54375Y-59918D01*
X54375Y-59918D02*
X54325Y-59918D01*
X54325Y-59918D02*
X54300Y-59875D01*
X54300Y-59875D02*
X54325Y-59832D01*
X54325Y-59832D02*
X54375Y-59832D01*
X54375Y-59832D02*
X54400Y-59875D01*
X54350Y-59425D02*
X54350Y-59825D01*
X54350Y-59825D02*
X54950Y-59825D01*
X54950Y-59825D02*
X54950Y-59425D01*
X54950Y-59025D02*
X54950Y-58625D01*
X54950Y-58625D02*
X54350Y-58625D01*
X54350Y-58625D02*
X54350Y-59025D01*
X55150Y-61300D02*
X55125Y-61343D01*
X55125Y-61343D02*
X55075Y-61343D01*
X55075Y-61343D02*
X55050Y-61300D01*
X55050Y-61300D02*
X55075Y-61257D01*
X55075Y-61257D02*
X55125Y-61257D01*
X55125Y-61257D02*
X55150Y-61300D01*
X55100Y-60850D02*
X55100Y-61250D01*
X55100Y-61250D02*
X55700Y-61250D01*
X55700Y-61250D02*
X55700Y-60850D01*
X55700Y-60450D02*
X55700Y-60050D01*
X55700Y-60050D02*
X55100Y-60050D01*
X55100Y-60050D02*
X55100Y-60450D01*
X53500Y-92775D02*
X53475Y-92818D01*
X53475Y-92818D02*
X53425Y-92818D01*
X53425Y-92818D02*
X53400Y-92775D01*
X53400Y-92775D02*
X53425Y-92732D01*
X53425Y-92732D02*
X53475Y-92732D01*
X53475Y-92732D02*
X53500Y-92775D01*
X53450Y-92325D02*
X53450Y-92725D01*
X53450Y-92725D02*
X54050Y-92725D01*
X54050Y-92725D02*
X54050Y-92325D01*
X54050Y-91925D02*
X54050Y-91525D01*
X54050Y-91525D02*
X53450Y-91525D01*
X53450Y-91525D02*
X53450Y-91925D01*
X59550Y-96190D02*
X59525Y-96233D01*
X59525Y-96233D02*
X59475Y-96233D01*
X59475Y-96233D02*
X59450Y-96190D01*
X59450Y-96190D02*
X59475Y-96147D01*
X59475Y-96147D02*
X59525Y-96147D01*
X59525Y-96147D02*
X59550Y-96190D01*
X59500Y-95740D02*
X59500Y-96140D01*
X59500Y-96140D02*
X60100Y-96140D01*
X60100Y-96140D02*
X60100Y-95740D01*
X60100Y-95340D02*
X60100Y-94940D01*
X60100Y-94940D02*
X59500Y-94940D01*
X59500Y-94940D02*
X59500Y-95340D01*
X57300Y-64100D02*
X57275Y-64143D01*
X57275Y-64143D02*
X57225Y-64143D01*
X57225Y-64143D02*
X57200Y-64100D01*
X57200Y-64100D02*
X57225Y-64057D01*
X57225Y-64057D02*
X57275Y-64057D01*
X57275Y-64057D02*
X57300Y-64100D01*
X57250Y-63650D02*
X57250Y-64050D01*
X57250Y-64050D02*
X57850Y-64050D01*
X57850Y-64050D02*
X57850Y-63650D01*
X57850Y-63250D02*
X57850Y-62850D01*
X57850Y-62850D02*
X57250Y-62850D01*
X57250Y-62850D02*
X57250Y-63250D01*
X56710Y-92780D02*
X56710Y-92680D01*
X56710Y-92680D02*
X57610Y-92680D01*
X57610Y-92680D02*
X57610Y-92780D01*
X56710Y-92780D02*
X57610Y-92780D01*
X57610Y-92780D02*
X57610Y-93430D01*
X56710Y-94130D02*
X56710Y-94780D01*
X56710Y-94780D02*
X57610Y-94780D01*
X57610Y-94780D02*
X57610Y-94130D01*
X56710Y-93430D02*
X56710Y-92780D01*
X52750Y-91200D02*
X52850Y-91200D01*
X52850Y-91200D02*
X52850Y-92100D01*
X52850Y-92100D02*
X52750Y-92100D01*
X52750Y-91200D02*
X52750Y-92100D01*
X52750Y-92100D02*
X52100Y-92100D01*
X51400Y-91200D02*
X50750Y-91200D01*
X50750Y-91200D02*
X50750Y-92100D01*
X50750Y-92100D02*
X51400Y-92100D01*
X52100Y-91200D02*
X52750Y-91200D01*
X50800Y-93950D02*
X50850Y-93950D01*
X50850Y-93950D02*
X50850Y-96050D01*
X49350Y-96050D02*
X49350Y-93950D01*
X49350Y-93950D02*
X50800Y-93950D01*
X49900Y-93950D02*
X49900Y-94150D01*
X49900Y-94150D02*
X50300Y-94150D01*
X50300Y-94150D02*
X50300Y-93950D01*
X49350Y-96050D02*
X50850Y-96050D01*
X52950Y-95040D02*
X53650Y-95040D01*
X53650Y-95040D02*
X53650Y-93840D01*
X53650Y-93840D02*
X52950Y-93840D01*
X52950Y-93840D02*
X52950Y-95040D01*
X56300Y-39800D02*
X56300Y-41000D01*
X56300Y-41000D02*
X56600Y-41000D01*
X56600Y-41000D02*
X56600Y-39800D01*
X56600Y-39800D02*
X56300Y-39800D01*
X59200Y-38700D02*
X59200Y-39900D01*
X59200Y-39900D02*
X59500Y-39900D01*
X59500Y-39900D02*
X59500Y-38700D01*
X59500Y-38700D02*
X59200Y-38700D01*
X59950Y-39900D02*
X59950Y-41100D01*
X59950Y-41100D02*
X60250Y-41100D01*
X60250Y-41100D02*
X60250Y-39900D01*
X60250Y-39900D02*
X59950Y-39900D01*
X58900Y-41650D02*
X58900Y-42850D01*
X58900Y-42850D02*
X59200Y-42850D01*
X59200Y-42850D02*
X59200Y-41650D01*
X59200Y-41650D02*
X58900Y-41650D01*
X57650Y-40750D02*
X57650Y-41950D01*
X57650Y-41950D02*
X57950Y-41950D01*
X57950Y-41950D02*
X57950Y-40750D01*
X57950Y-40750D02*
X57650Y-40750D01*
X60250Y-42350D02*
X60250Y-43550D01*
X60250Y-43550D02*
X60550Y-43550D01*
X60550Y-43550D02*
X60550Y-42350D01*
X60550Y-42350D02*
X60250Y-42350D01*
G54D31*
X53650Y-47200D02*
X53616Y-47325D01*
X53616Y-47325D02*
X53525Y-47416D01*
X53525Y-47416D02*
X53400Y-47450D01*
X53400Y-47450D02*
X53275Y-47416D01*
X53275Y-47416D02*
X53184Y-47325D01*
X53184Y-47325D02*
X53150Y-47200D01*
X53150Y-47200D02*
X53184Y-47075D01*
X53184Y-47075D02*
X53275Y-46984D01*
X53275Y-46984D02*
X53400Y-46950D01*
X53400Y-46950D02*
X53525Y-46984D01*
X53525Y-46984D02*
X53616Y-47075D01*
X53616Y-47075D02*
X53650Y-47200D01*
X52900Y-46700D02*
X52900Y-50700D01*
X52900Y-50700D02*
X56900Y-50700D01*
X56900Y-50700D02*
X56900Y-46700D01*
X56900Y-46700D02*
X52900Y-46700D01*
G54D10*
X53650Y-87700D02*
X53615Y-88027D01*
X53615Y-88027D02*
X53513Y-88340D01*
X53513Y-88340D02*
X53349Y-88625D01*
X53349Y-88625D02*
X53128Y-88870D01*
X53128Y-88870D02*
X52862Y-89063D01*
X52862Y-89063D02*
X52561Y-89197D01*
X52561Y-89197D02*
X52239Y-89266D01*
X52239Y-89266D02*
X51911Y-89266D01*
X51911Y-89266D02*
X51589Y-89197D01*
X51589Y-89197D02*
X51288Y-89063D01*
X51288Y-89063D02*
X51022Y-88870D01*
X51022Y-88870D02*
X50801Y-88625D01*
X50801Y-88625D02*
X50637Y-88340D01*
X50637Y-88340D02*
X50535Y-88027D01*
X50535Y-88027D02*
X50500Y-87700D01*
X50500Y-87700D02*
X50535Y-87373D01*
X50535Y-87373D02*
X50637Y-87060D01*
X50637Y-87060D02*
X50801Y-86775D01*
X50801Y-86775D02*
X51022Y-86530D01*
X51022Y-86530D02*
X51288Y-86337D01*
X51288Y-86337D02*
X51589Y-86203D01*
X51589Y-86203D02*
X51911Y-86134D01*
X51911Y-86134D02*
X52239Y-86134D01*
X52239Y-86134D02*
X52561Y-86203D01*
X52561Y-86203D02*
X52862Y-86337D01*
X52862Y-86337D02*
X53128Y-86530D01*
X53128Y-86530D02*
X53349Y-86775D01*
X53349Y-86775D02*
X53513Y-87060D01*
X53513Y-87060D02*
X53615Y-87373D01*
X53615Y-87373D02*
X53650Y-87700D01*
X51484Y-85338D02*
X52666Y-85338D01*
X50303Y-87109D02*
X50303Y-88291D01*
X53847Y-88291D02*
X53847Y-87109D01*
X52666Y-90062D02*
X51484Y-90062D01*
X50303Y-87109D02*
X51484Y-85338D01*
X51484Y-90062D02*
X50303Y-88291D01*
X53847Y-87109D02*
X52666Y-85338D01*
X53847Y-88291D02*
X52666Y-90062D01*
G54D29*
X52200Y-95560D02*
X52175Y-95603D01*
X52175Y-95603D02*
X52125Y-95603D01*
X52125Y-95603D02*
X52100Y-95560D01*
X52100Y-95560D02*
X52125Y-95517D01*
X52125Y-95517D02*
X52175Y-95517D01*
X52175Y-95517D02*
X52200Y-95560D01*
X52600Y-95560D02*
X52200Y-95560D01*
X52200Y-95560D02*
X52200Y-96160D01*
X52200Y-96160D02*
X52600Y-96160D01*
X53000Y-96160D02*
X53400Y-96160D01*
X53400Y-96160D02*
X53400Y-95560D01*
X53400Y-95560D02*
X53000Y-95560D01*
G54D30*
X42130Y-34500D02*
X42116Y-34630D01*
X42116Y-34630D02*
X42075Y-34756D01*
X42075Y-34756D02*
X42009Y-34870D01*
X42009Y-34870D02*
X41921Y-34968D01*
X41921Y-34968D02*
X41815Y-35045D01*
X41815Y-35045D02*
X41694Y-35099D01*
X41694Y-35099D02*
X41565Y-35126D01*
X41565Y-35126D02*
X41435Y-35126D01*
X41435Y-35126D02*
X41306Y-35099D01*
X41306Y-35099D02*
X41185Y-35045D01*
X41185Y-35045D02*
X41079Y-34968D01*
X41079Y-34968D02*
X40991Y-34870D01*
X40991Y-34870D02*
X40925Y-34756D01*
X40925Y-34756D02*
X40884Y-34630D01*
X40884Y-34630D02*
X40870Y-34500D01*
X40870Y-34500D02*
X40884Y-34370D01*
X40884Y-34370D02*
X40925Y-34244D01*
X40925Y-34244D02*
X40991Y-34130D01*
X40991Y-34130D02*
X41079Y-34032D01*
X41079Y-34032D02*
X41185Y-33955D01*
X41185Y-33955D02*
X41306Y-33901D01*
X41306Y-33901D02*
X41435Y-33874D01*
X41435Y-33874D02*
X41565Y-33874D01*
X41565Y-33874D02*
X41694Y-33901D01*
X41694Y-33901D02*
X41815Y-33955D01*
X41815Y-33955D02*
X41921Y-34032D01*
X41921Y-34032D02*
X42009Y-34130D01*
X42009Y-34130D02*
X42075Y-34244D01*
X42075Y-34244D02*
X42116Y-34370D01*
X42116Y-34370D02*
X42130Y-34500D01*
X42130Y-43500D02*
X42116Y-43630D01*
X42116Y-43630D02*
X42075Y-43756D01*
X42075Y-43756D02*
X42009Y-43870D01*
X42009Y-43870D02*
X41921Y-43968D01*
X41921Y-43968D02*
X41815Y-44045D01*
X41815Y-44045D02*
X41694Y-44099D01*
X41694Y-44099D02*
X41565Y-44126D01*
X41565Y-44126D02*
X41435Y-44126D01*
X41435Y-44126D02*
X41306Y-44099D01*
X41306Y-44099D02*
X41185Y-44045D01*
X41185Y-44045D02*
X41079Y-43968D01*
X41079Y-43968D02*
X40991Y-43870D01*
X40991Y-43870D02*
X40925Y-43756D01*
X40925Y-43756D02*
X40884Y-43630D01*
X40884Y-43630D02*
X40870Y-43500D01*
X40870Y-43500D02*
X40884Y-43370D01*
X40884Y-43370D02*
X40925Y-43244D01*
X40925Y-43244D02*
X40991Y-43130D01*
X40991Y-43130D02*
X41079Y-43032D01*
X41079Y-43032D02*
X41185Y-42955D01*
X41185Y-42955D02*
X41306Y-42901D01*
X41306Y-42901D02*
X41435Y-42874D01*
X41435Y-42874D02*
X41565Y-42874D01*
X41565Y-42874D02*
X41694Y-42901D01*
X41694Y-42901D02*
X41815Y-42955D01*
X41815Y-42955D02*
X41921Y-43032D01*
X41921Y-43032D02*
X42009Y-43130D01*
X42009Y-43130D02*
X42075Y-43244D01*
X42075Y-43244D02*
X42116Y-43370D01*
X42116Y-43370D02*
X42130Y-43500D01*
X42130Y-52500D02*
X42116Y-52630D01*
X42116Y-52630D02*
X42075Y-52756D01*
X42075Y-52756D02*
X42009Y-52870D01*
X42009Y-52870D02*
X41921Y-52968D01*
X41921Y-52968D02*
X41815Y-53045D01*
X41815Y-53045D02*
X41694Y-53099D01*
X41694Y-53099D02*
X41565Y-53126D01*
X41565Y-53126D02*
X41435Y-53126D01*
X41435Y-53126D02*
X41306Y-53099D01*
X41306Y-53099D02*
X41185Y-53045D01*
X41185Y-53045D02*
X41079Y-52968D01*
X41079Y-52968D02*
X40991Y-52870D01*
X40991Y-52870D02*
X40925Y-52756D01*
X40925Y-52756D02*
X40884Y-52630D01*
X40884Y-52630D02*
X40870Y-52500D01*
X40870Y-52500D02*
X40884Y-52370D01*
X40884Y-52370D02*
X40925Y-52244D01*
X40925Y-52244D02*
X40991Y-52130D01*
X40991Y-52130D02*
X41079Y-52032D01*
X41079Y-52032D02*
X41185Y-51955D01*
X41185Y-51955D02*
X41306Y-51901D01*
X41306Y-51901D02*
X41435Y-51874D01*
X41435Y-51874D02*
X41565Y-51874D01*
X41565Y-51874D02*
X41694Y-51901D01*
X41694Y-51901D02*
X41815Y-51955D01*
X41815Y-51955D02*
X41921Y-52032D01*
X41921Y-52032D02*
X42009Y-52130D01*
X42009Y-52130D02*
X42075Y-52244D01*
X42075Y-52244D02*
X42116Y-52370D01*
X42116Y-52370D02*
X42130Y-52500D01*
X42130Y-61500D02*
X42116Y-61630D01*
X42116Y-61630D02*
X42075Y-61756D01*
X42075Y-61756D02*
X42009Y-61870D01*
X42009Y-61870D02*
X41921Y-61968D01*
X41921Y-61968D02*
X41815Y-62045D01*
X41815Y-62045D02*
X41694Y-62099D01*
X41694Y-62099D02*
X41565Y-62126D01*
X41565Y-62126D02*
X41435Y-62126D01*
X41435Y-62126D02*
X41306Y-62099D01*
X41306Y-62099D02*
X41185Y-62045D01*
X41185Y-62045D02*
X41079Y-61968D01*
X41079Y-61968D02*
X40991Y-61870D01*
X40991Y-61870D02*
X40925Y-61756D01*
X40925Y-61756D02*
X40884Y-61630D01*
X40884Y-61630D02*
X40870Y-61500D01*
X40870Y-61500D02*
X40884Y-61370D01*
X40884Y-61370D02*
X40925Y-61244D01*
X40925Y-61244D02*
X40991Y-61130D01*
X40991Y-61130D02*
X41079Y-61032D01*
X41079Y-61032D02*
X41185Y-60955D01*
X41185Y-60955D02*
X41306Y-60901D01*
X41306Y-60901D02*
X41435Y-60874D01*
X41435Y-60874D02*
X41565Y-60874D01*
X41565Y-60874D02*
X41694Y-60901D01*
X41694Y-60901D02*
X41815Y-60955D01*
X41815Y-60955D02*
X41921Y-61032D01*
X41921Y-61032D02*
X42009Y-61130D01*
X42009Y-61130D02*
X42075Y-61244D01*
X42075Y-61244D02*
X42116Y-61370D01*
X42116Y-61370D02*
X42130Y-61500D01*
X42130Y-70500D02*
X42116Y-70630D01*
X42116Y-70630D02*
X42075Y-70756D01*
X42075Y-70756D02*
X42009Y-70870D01*
X42009Y-70870D02*
X41921Y-70968D01*
X41921Y-70968D02*
X41815Y-71045D01*
X41815Y-71045D02*
X41694Y-71099D01*
X41694Y-71099D02*
X41565Y-71126D01*
X41565Y-71126D02*
X41435Y-71126D01*
X41435Y-71126D02*
X41306Y-71099D01*
X41306Y-71099D02*
X41185Y-71045D01*
X41185Y-71045D02*
X41079Y-70968D01*
X41079Y-70968D02*
X40991Y-70870D01*
X40991Y-70870D02*
X40925Y-70756D01*
X40925Y-70756D02*
X40884Y-70630D01*
X40884Y-70630D02*
X40870Y-70500D01*
X40870Y-70500D02*
X40884Y-70370D01*
X40884Y-70370D02*
X40925Y-70244D01*
X40925Y-70244D02*
X40991Y-70130D01*
X40991Y-70130D02*
X41079Y-70032D01*
X41079Y-70032D02*
X41185Y-69955D01*
X41185Y-69955D02*
X41306Y-69901D01*
X41306Y-69901D02*
X41435Y-69874D01*
X41435Y-69874D02*
X41565Y-69874D01*
X41565Y-69874D02*
X41694Y-69901D01*
X41694Y-69901D02*
X41815Y-69955D01*
X41815Y-69955D02*
X41921Y-70032D01*
X41921Y-70032D02*
X42009Y-70130D01*
X42009Y-70130D02*
X42075Y-70244D01*
X42075Y-70244D02*
X42116Y-70370D01*
X42116Y-70370D02*
X42130Y-70500D01*
X42130Y-79500D02*
X42116Y-79630D01*
X42116Y-79630D02*
X42075Y-79756D01*
X42075Y-79756D02*
X42009Y-79870D01*
X42009Y-79870D02*
X41921Y-79968D01*
X41921Y-79968D02*
X41815Y-80045D01*
X41815Y-80045D02*
X41694Y-80099D01*
X41694Y-80099D02*
X41565Y-80126D01*
X41565Y-80126D02*
X41435Y-80126D01*
X41435Y-80126D02*
X41306Y-80099D01*
X41306Y-80099D02*
X41185Y-80045D01*
X41185Y-80045D02*
X41079Y-79968D01*
X41079Y-79968D02*
X40991Y-79870D01*
X40991Y-79870D02*
X40925Y-79756D01*
X40925Y-79756D02*
X40884Y-79630D01*
X40884Y-79630D02*
X40870Y-79500D01*
X40870Y-79500D02*
X40884Y-79370D01*
X40884Y-79370D02*
X40925Y-79244D01*
X40925Y-79244D02*
X40991Y-79130D01*
X40991Y-79130D02*
X41079Y-79032D01*
X41079Y-79032D02*
X41185Y-78955D01*
X41185Y-78955D02*
X41306Y-78901D01*
X41306Y-78901D02*
X41435Y-78874D01*
X41435Y-78874D02*
X41565Y-78874D01*
X41565Y-78874D02*
X41694Y-78901D01*
X41694Y-78901D02*
X41815Y-78955D01*
X41815Y-78955D02*
X41921Y-79032D01*
X41921Y-79032D02*
X42009Y-79130D01*
X42009Y-79130D02*
X42075Y-79244D01*
X42075Y-79244D02*
X42116Y-79370D01*
X42116Y-79370D02*
X42130Y-79500D01*
X42130Y-88500D02*
X42116Y-88630D01*
X42116Y-88630D02*
X42075Y-88756D01*
X42075Y-88756D02*
X42009Y-88870D01*
X42009Y-88870D02*
X41921Y-88968D01*
X41921Y-88968D02*
X41815Y-89045D01*
X41815Y-89045D02*
X41694Y-89099D01*
X41694Y-89099D02*
X41565Y-89126D01*
X41565Y-89126D02*
X41435Y-89126D01*
X41435Y-89126D02*
X41306Y-89099D01*
X41306Y-89099D02*
X41185Y-89045D01*
X41185Y-89045D02*
X41079Y-88968D01*
X41079Y-88968D02*
X40991Y-88870D01*
X40991Y-88870D02*
X40925Y-88756D01*
X40925Y-88756D02*
X40884Y-88630D01*
X40884Y-88630D02*
X40870Y-88500D01*
X40870Y-88500D02*
X40884Y-88370D01*
X40884Y-88370D02*
X40925Y-88244D01*
X40925Y-88244D02*
X40991Y-88130D01*
X40991Y-88130D02*
X41079Y-88032D01*
X41079Y-88032D02*
X41185Y-87955D01*
X41185Y-87955D02*
X41306Y-87901D01*
X41306Y-87901D02*
X41435Y-87874D01*
X41435Y-87874D02*
X41565Y-87874D01*
X41565Y-87874D02*
X41694Y-87901D01*
X41694Y-87901D02*
X41815Y-87955D01*
X41815Y-87955D02*
X41921Y-88032D01*
X41921Y-88032D02*
X42009Y-88130D01*
X42009Y-88130D02*
X42075Y-88244D01*
X42075Y-88244D02*
X42116Y-88370D01*
X42116Y-88370D02*
X42130Y-88500D01*
X42130Y-98175D02*
X42116Y-98305D01*
X42116Y-98305D02*
X42075Y-98431D01*
X42075Y-98431D02*
X42009Y-98545D01*
X42009Y-98545D02*
X41921Y-98643D01*
X41921Y-98643D02*
X41815Y-98720D01*
X41815Y-98720D02*
X41694Y-98774D01*
X41694Y-98774D02*
X41565Y-98801D01*
X41565Y-98801D02*
X41435Y-98801D01*
X41435Y-98801D02*
X41306Y-98774D01*
X41306Y-98774D02*
X41185Y-98720D01*
X41185Y-98720D02*
X41079Y-98643D01*
X41079Y-98643D02*
X40991Y-98545D01*
X40991Y-98545D02*
X40925Y-98431D01*
X40925Y-98431D02*
X40884Y-98305D01*
X40884Y-98305D02*
X40870Y-98175D01*
X40870Y-98175D02*
X40884Y-98045D01*
X40884Y-98045D02*
X40925Y-97919D01*
X40925Y-97919D02*
X40991Y-97805D01*
X40991Y-97805D02*
X41079Y-97707D01*
X41079Y-97707D02*
X41185Y-97630D01*
X41185Y-97630D02*
X41306Y-97576D01*
X41306Y-97576D02*
X41435Y-97549D01*
X41435Y-97549D02*
X41565Y-97549D01*
X41565Y-97549D02*
X41694Y-97576D01*
X41694Y-97576D02*
X41815Y-97630D01*
X41815Y-97630D02*
X41921Y-97707D01*
X41921Y-97707D02*
X42009Y-97805D01*
X42009Y-97805D02*
X42075Y-97919D01*
X42075Y-97919D02*
X42116Y-98045D01*
X42116Y-98045D02*
X42130Y-98175D01*
X44780Y-98175D02*
X44766Y-98305D01*
X44766Y-98305D02*
X44725Y-98431D01*
X44725Y-98431D02*
X44659Y-98545D01*
X44659Y-98545D02*
X44571Y-98643D01*
X44571Y-98643D02*
X44465Y-98720D01*
X44465Y-98720D02*
X44344Y-98774D01*
X44344Y-98774D02*
X44215Y-98801D01*
X44215Y-98801D02*
X44085Y-98801D01*
X44085Y-98801D02*
X43956Y-98774D01*
X43956Y-98774D02*
X43835Y-98720D01*
X43835Y-98720D02*
X43729Y-98643D01*
X43729Y-98643D02*
X43641Y-98545D01*
X43641Y-98545D02*
X43575Y-98431D01*
X43575Y-98431D02*
X43534Y-98305D01*
X43534Y-98305D02*
X43520Y-98175D01*
X43520Y-98175D02*
X43534Y-98045D01*
X43534Y-98045D02*
X43575Y-97919D01*
X43575Y-97919D02*
X43641Y-97805D01*
X43641Y-97805D02*
X43729Y-97707D01*
X43729Y-97707D02*
X43835Y-97630D01*
X43835Y-97630D02*
X43956Y-97576D01*
X43956Y-97576D02*
X44085Y-97549D01*
X44085Y-97549D02*
X44215Y-97549D01*
X44215Y-97549D02*
X44344Y-97576D01*
X44344Y-97576D02*
X44465Y-97630D01*
X44465Y-97630D02*
X44571Y-97707D01*
X44571Y-97707D02*
X44659Y-97805D01*
X44659Y-97805D02*
X44725Y-97919D01*
X44725Y-97919D02*
X44766Y-98045D01*
X44766Y-98045D02*
X44780Y-98175D01*
X46755Y-98175D02*
X46741Y-98305D01*
X46741Y-98305D02*
X46700Y-98431D01*
X46700Y-98431D02*
X46634Y-98545D01*
X46634Y-98545D02*
X46546Y-98643D01*
X46546Y-98643D02*
X46440Y-98720D01*
X46440Y-98720D02*
X46319Y-98774D01*
X46319Y-98774D02*
X46190Y-98801D01*
X46190Y-98801D02*
X46060Y-98801D01*
X46060Y-98801D02*
X45931Y-98774D01*
X45931Y-98774D02*
X45810Y-98720D01*
X45810Y-98720D02*
X45704Y-98643D01*
X45704Y-98643D02*
X45616Y-98545D01*
X45616Y-98545D02*
X45550Y-98431D01*
X45550Y-98431D02*
X45509Y-98305D01*
X45509Y-98305D02*
X45495Y-98175D01*
X45495Y-98175D02*
X45509Y-98045D01*
X45509Y-98045D02*
X45550Y-97919D01*
X45550Y-97919D02*
X45616Y-97805D01*
X45616Y-97805D02*
X45704Y-97707D01*
X45704Y-97707D02*
X45810Y-97630D01*
X45810Y-97630D02*
X45931Y-97576D01*
X45931Y-97576D02*
X46060Y-97549D01*
X46060Y-97549D02*
X46190Y-97549D01*
X46190Y-97549D02*
X46319Y-97576D01*
X46319Y-97576D02*
X46440Y-97630D01*
X46440Y-97630D02*
X46546Y-97707D01*
X46546Y-97707D02*
X46634Y-97805D01*
X46634Y-97805D02*
X46700Y-97919D01*
X46700Y-97919D02*
X46741Y-98045D01*
X46741Y-98045D02*
X46755Y-98175D01*
X48730Y-98175D02*
X48716Y-98305D01*
X48716Y-98305D02*
X48675Y-98431D01*
X48675Y-98431D02*
X48609Y-98545D01*
X48609Y-98545D02*
X48521Y-98643D01*
X48521Y-98643D02*
X48415Y-98720D01*
X48415Y-98720D02*
X48294Y-98774D01*
X48294Y-98774D02*
X48165Y-98801D01*
X48165Y-98801D02*
X48035Y-98801D01*
X48035Y-98801D02*
X47906Y-98774D01*
X47906Y-98774D02*
X47785Y-98720D01*
X47785Y-98720D02*
X47679Y-98643D01*
X47679Y-98643D02*
X47591Y-98545D01*
X47591Y-98545D02*
X47525Y-98431D01*
X47525Y-98431D02*
X47484Y-98305D01*
X47484Y-98305D02*
X47470Y-98175D01*
X47470Y-98175D02*
X47484Y-98045D01*
X47484Y-98045D02*
X47525Y-97919D01*
X47525Y-97919D02*
X47591Y-97805D01*
X47591Y-97805D02*
X47679Y-97707D01*
X47679Y-97707D02*
X47785Y-97630D01*
X47785Y-97630D02*
X47906Y-97576D01*
X47906Y-97576D02*
X48035Y-97549D01*
X48035Y-97549D02*
X48165Y-97549D01*
X48165Y-97549D02*
X48294Y-97576D01*
X48294Y-97576D02*
X48415Y-97630D01*
X48415Y-97630D02*
X48521Y-97707D01*
X48521Y-97707D02*
X48609Y-97805D01*
X48609Y-97805D02*
X48675Y-97919D01*
X48675Y-97919D02*
X48716Y-98045D01*
X48716Y-98045D02*
X48730Y-98175D01*
X50705Y-98175D02*
X50691Y-98305D01*
X50691Y-98305D02*
X50650Y-98431D01*
X50650Y-98431D02*
X50584Y-98545D01*
X50584Y-98545D02*
X50496Y-98643D01*
X50496Y-98643D02*
X50390Y-98720D01*
X50390Y-98720D02*
X50269Y-98774D01*
X50269Y-98774D02*
X50140Y-98801D01*
X50140Y-98801D02*
X50010Y-98801D01*
X50010Y-98801D02*
X49881Y-98774D01*
X49881Y-98774D02*
X49760Y-98720D01*
X49760Y-98720D02*
X49654Y-98643D01*
X49654Y-98643D02*
X49566Y-98545D01*
X49566Y-98545D02*
X49500Y-98431D01*
X49500Y-98431D02*
X49459Y-98305D01*
X49459Y-98305D02*
X49445Y-98175D01*
X49445Y-98175D02*
X49459Y-98045D01*
X49459Y-98045D02*
X49500Y-97919D01*
X49500Y-97919D02*
X49566Y-97805D01*
X49566Y-97805D02*
X49654Y-97707D01*
X49654Y-97707D02*
X49760Y-97630D01*
X49760Y-97630D02*
X49881Y-97576D01*
X49881Y-97576D02*
X50010Y-97549D01*
X50010Y-97549D02*
X50140Y-97549D01*
X50140Y-97549D02*
X50269Y-97576D01*
X50269Y-97576D02*
X50390Y-97630D01*
X50390Y-97630D02*
X50496Y-97707D01*
X50496Y-97707D02*
X50584Y-97805D01*
X50584Y-97805D02*
X50650Y-97919D01*
X50650Y-97919D02*
X50691Y-98045D01*
X50691Y-98045D02*
X50705Y-98175D01*
X52680Y-98175D02*
X52666Y-98305D01*
X52666Y-98305D02*
X52625Y-98431D01*
X52625Y-98431D02*
X52559Y-98545D01*
X52559Y-98545D02*
X52471Y-98643D01*
X52471Y-98643D02*
X52365Y-98720D01*
X52365Y-98720D02*
X52244Y-98774D01*
X52244Y-98774D02*
X52115Y-98801D01*
X52115Y-98801D02*
X51985Y-98801D01*
X51985Y-98801D02*
X51856Y-98774D01*
X51856Y-98774D02*
X51735Y-98720D01*
X51735Y-98720D02*
X51629Y-98643D01*
X51629Y-98643D02*
X51541Y-98545D01*
X51541Y-98545D02*
X51475Y-98431D01*
X51475Y-98431D02*
X51434Y-98305D01*
X51434Y-98305D02*
X51420Y-98175D01*
X51420Y-98175D02*
X51434Y-98045D01*
X51434Y-98045D02*
X51475Y-97919D01*
X51475Y-97919D02*
X51541Y-97805D01*
X51541Y-97805D02*
X51629Y-97707D01*
X51629Y-97707D02*
X51735Y-97630D01*
X51735Y-97630D02*
X51856Y-97576D01*
X51856Y-97576D02*
X51985Y-97549D01*
X51985Y-97549D02*
X52115Y-97549D01*
X52115Y-97549D02*
X52244Y-97576D01*
X52244Y-97576D02*
X52365Y-97630D01*
X52365Y-97630D02*
X52471Y-97707D01*
X52471Y-97707D02*
X52559Y-97805D01*
X52559Y-97805D02*
X52625Y-97919D01*
X52625Y-97919D02*
X52666Y-98045D01*
X52666Y-98045D02*
X52680Y-98175D01*
X54655Y-98175D02*
X54641Y-98305D01*
X54641Y-98305D02*
X54600Y-98431D01*
X54600Y-98431D02*
X54534Y-98545D01*
X54534Y-98545D02*
X54446Y-98643D01*
X54446Y-98643D02*
X54340Y-98720D01*
X54340Y-98720D02*
X54219Y-98774D01*
X54219Y-98774D02*
X54090Y-98801D01*
X54090Y-98801D02*
X53960Y-98801D01*
X53960Y-98801D02*
X53831Y-98774D01*
X53831Y-98774D02*
X53710Y-98720D01*
X53710Y-98720D02*
X53604Y-98643D01*
X53604Y-98643D02*
X53516Y-98545D01*
X53516Y-98545D02*
X53450Y-98431D01*
X53450Y-98431D02*
X53409Y-98305D01*
X53409Y-98305D02*
X53395Y-98175D01*
X53395Y-98175D02*
X53409Y-98045D01*
X53409Y-98045D02*
X53450Y-97919D01*
X53450Y-97919D02*
X53516Y-97805D01*
X53516Y-97805D02*
X53604Y-97707D01*
X53604Y-97707D02*
X53710Y-97630D01*
X53710Y-97630D02*
X53831Y-97576D01*
X53831Y-97576D02*
X53960Y-97549D01*
X53960Y-97549D02*
X54090Y-97549D01*
X54090Y-97549D02*
X54219Y-97576D01*
X54219Y-97576D02*
X54340Y-97630D01*
X54340Y-97630D02*
X54446Y-97707D01*
X54446Y-97707D02*
X54534Y-97805D01*
X54534Y-97805D02*
X54600Y-97919D01*
X54600Y-97919D02*
X54641Y-98045D01*
X54641Y-98045D02*
X54655Y-98175D01*
X56630Y-98175D02*
X56616Y-98305D01*
X56616Y-98305D02*
X56575Y-98431D01*
X56575Y-98431D02*
X56509Y-98545D01*
X56509Y-98545D02*
X56421Y-98643D01*
X56421Y-98643D02*
X56315Y-98720D01*
X56315Y-98720D02*
X56194Y-98774D01*
X56194Y-98774D02*
X56065Y-98801D01*
X56065Y-98801D02*
X55935Y-98801D01*
X55935Y-98801D02*
X55806Y-98774D01*
X55806Y-98774D02*
X55685Y-98720D01*
X55685Y-98720D02*
X55579Y-98643D01*
X55579Y-98643D02*
X55491Y-98545D01*
X55491Y-98545D02*
X55425Y-98431D01*
X55425Y-98431D02*
X55384Y-98305D01*
X55384Y-98305D02*
X55370Y-98175D01*
X55370Y-98175D02*
X55384Y-98045D01*
X55384Y-98045D02*
X55425Y-97919D01*
X55425Y-97919D02*
X55491Y-97805D01*
X55491Y-97805D02*
X55579Y-97707D01*
X55579Y-97707D02*
X55685Y-97630D01*
X55685Y-97630D02*
X55806Y-97576D01*
X55806Y-97576D02*
X55935Y-97549D01*
X55935Y-97549D02*
X56065Y-97549D01*
X56065Y-97549D02*
X56194Y-97576D01*
X56194Y-97576D02*
X56315Y-97630D01*
X56315Y-97630D02*
X56421Y-97707D01*
X56421Y-97707D02*
X56509Y-97805D01*
X56509Y-97805D02*
X56575Y-97919D01*
X56575Y-97919D02*
X56616Y-98045D01*
X56616Y-98045D02*
X56630Y-98175D01*
X58580Y-98175D02*
X58566Y-98305D01*
X58566Y-98305D02*
X58525Y-98431D01*
X58525Y-98431D02*
X58459Y-98545D01*
X58459Y-98545D02*
X58371Y-98643D01*
X58371Y-98643D02*
X58265Y-98720D01*
X58265Y-98720D02*
X58144Y-98774D01*
X58144Y-98774D02*
X58015Y-98801D01*
X58015Y-98801D02*
X57885Y-98801D01*
X57885Y-98801D02*
X57756Y-98774D01*
X57756Y-98774D02*
X57635Y-98720D01*
X57635Y-98720D02*
X57529Y-98643D01*
X57529Y-98643D02*
X57441Y-98545D01*
X57441Y-98545D02*
X57375Y-98431D01*
X57375Y-98431D02*
X57334Y-98305D01*
X57334Y-98305D02*
X57320Y-98175D01*
X57320Y-98175D02*
X57334Y-98045D01*
X57334Y-98045D02*
X57375Y-97919D01*
X57375Y-97919D02*
X57441Y-97805D01*
X57441Y-97805D02*
X57529Y-97707D01*
X57529Y-97707D02*
X57635Y-97630D01*
X57635Y-97630D02*
X57756Y-97576D01*
X57756Y-97576D02*
X57885Y-97549D01*
X57885Y-97549D02*
X58015Y-97549D01*
X58015Y-97549D02*
X58144Y-97576D01*
X58144Y-97576D02*
X58265Y-97630D01*
X58265Y-97630D02*
X58371Y-97707D01*
X58371Y-97707D02*
X58459Y-97805D01*
X58459Y-97805D02*
X58525Y-97919D01*
X58525Y-97919D02*
X58566Y-98045D01*
X58566Y-98045D02*
X58580Y-98175D01*
X60555Y-98175D02*
X60541Y-98305D01*
X60541Y-98305D02*
X60500Y-98431D01*
X60500Y-98431D02*
X60434Y-98545D01*
X60434Y-98545D02*
X60346Y-98643D01*
X60346Y-98643D02*
X60240Y-98720D01*
X60240Y-98720D02*
X60119Y-98774D01*
X60119Y-98774D02*
X59990Y-98801D01*
X59990Y-98801D02*
X59860Y-98801D01*
X59860Y-98801D02*
X59731Y-98774D01*
X59731Y-98774D02*
X59610Y-98720D01*
X59610Y-98720D02*
X59504Y-98643D01*
X59504Y-98643D02*
X59416Y-98545D01*
X59416Y-98545D02*
X59350Y-98431D01*
X59350Y-98431D02*
X59309Y-98305D01*
X59309Y-98305D02*
X59295Y-98175D01*
X59295Y-98175D02*
X59309Y-98045D01*
X59309Y-98045D02*
X59350Y-97919D01*
X59350Y-97919D02*
X59416Y-97805D01*
X59416Y-97805D02*
X59504Y-97707D01*
X59504Y-97707D02*
X59610Y-97630D01*
X59610Y-97630D02*
X59731Y-97576D01*
X59731Y-97576D02*
X59860Y-97549D01*
X59860Y-97549D02*
X59990Y-97549D01*
X59990Y-97549D02*
X60119Y-97576D01*
X60119Y-97576D02*
X60240Y-97630D01*
X60240Y-97630D02*
X60346Y-97707D01*
X60346Y-97707D02*
X60434Y-97805D01*
X60434Y-97805D02*
X60500Y-97919D01*
X60500Y-97919D02*
X60541Y-98045D01*
X60541Y-98045D02*
X60555Y-98175D01*
X59505Y-86275D02*
X59491Y-86405D01*
X59491Y-86405D02*
X59450Y-86531D01*
X59450Y-86531D02*
X59384Y-86645D01*
X59384Y-86645D02*
X59296Y-86743D01*
X59296Y-86743D02*
X59190Y-86820D01*
X59190Y-86820D02*
X59069Y-86874D01*
X59069Y-86874D02*
X58940Y-86901D01*
X58940Y-86901D02*
X58810Y-86901D01*
X58810Y-86901D02*
X58681Y-86874D01*
X58681Y-86874D02*
X58560Y-86820D01*
X58560Y-86820D02*
X58454Y-86743D01*
X58454Y-86743D02*
X58366Y-86645D01*
X58366Y-86645D02*
X58300Y-86531D01*
X58300Y-86531D02*
X58259Y-86405D01*
X58259Y-86405D02*
X58245Y-86275D01*
X58245Y-86275D02*
X58259Y-86145D01*
X58259Y-86145D02*
X58300Y-86019D01*
X58300Y-86019D02*
X58366Y-85905D01*
X58366Y-85905D02*
X58454Y-85807D01*
X58454Y-85807D02*
X58560Y-85730D01*
X58560Y-85730D02*
X58681Y-85676D01*
X58681Y-85676D02*
X58810Y-85649D01*
X58810Y-85649D02*
X58940Y-85649D01*
X58940Y-85649D02*
X59069Y-85676D01*
X59069Y-85676D02*
X59190Y-85730D01*
X59190Y-85730D02*
X59296Y-85807D01*
X59296Y-85807D02*
X59384Y-85905D01*
X59384Y-85905D02*
X59450Y-86019D01*
X59450Y-86019D02*
X59491Y-86145D01*
X59491Y-86145D02*
X59505Y-86275D01*
X59505Y-89100D02*
X59491Y-89230D01*
X59491Y-89230D02*
X59450Y-89356D01*
X59450Y-89356D02*
X59384Y-89470D01*
X59384Y-89470D02*
X59296Y-89568D01*
X59296Y-89568D02*
X59190Y-89645D01*
X59190Y-89645D02*
X59069Y-89699D01*
X59069Y-89699D02*
X58940Y-89726D01*
X58940Y-89726D02*
X58810Y-89726D01*
X58810Y-89726D02*
X58681Y-89699D01*
X58681Y-89699D02*
X58560Y-89645D01*
X58560Y-89645D02*
X58454Y-89568D01*
X58454Y-89568D02*
X58366Y-89470D01*
X58366Y-89470D02*
X58300Y-89356D01*
X58300Y-89356D02*
X58259Y-89230D01*
X58259Y-89230D02*
X58245Y-89100D01*
X58245Y-89100D02*
X58259Y-88970D01*
X58259Y-88970D02*
X58300Y-88844D01*
X58300Y-88844D02*
X58366Y-88730D01*
X58366Y-88730D02*
X58454Y-88632D01*
X58454Y-88632D02*
X58560Y-88555D01*
X58560Y-88555D02*
X58681Y-88501D01*
X58681Y-88501D02*
X58810Y-88474D01*
X58810Y-88474D02*
X58940Y-88474D01*
X58940Y-88474D02*
X59069Y-88501D01*
X59069Y-88501D02*
X59190Y-88555D01*
X59190Y-88555D02*
X59296Y-88632D01*
X59296Y-88632D02*
X59384Y-88730D01*
X59384Y-88730D02*
X59450Y-88844D01*
X59450Y-88844D02*
X59491Y-88970D01*
X59491Y-88970D02*
X59505Y-89100D01*
X60330Y-76500D02*
X60316Y-76630D01*
X60316Y-76630D02*
X60275Y-76756D01*
X60275Y-76756D02*
X60209Y-76870D01*
X60209Y-76870D02*
X60121Y-76968D01*
X60121Y-76968D02*
X60015Y-77045D01*
X60015Y-77045D02*
X59894Y-77099D01*
X59894Y-77099D02*
X59765Y-77126D01*
X59765Y-77126D02*
X59635Y-77126D01*
X59635Y-77126D02*
X59506Y-77099D01*
X59506Y-77099D02*
X59385Y-77045D01*
X59385Y-77045D02*
X59279Y-76968D01*
X59279Y-76968D02*
X59191Y-76870D01*
X59191Y-76870D02*
X59125Y-76756D01*
X59125Y-76756D02*
X59084Y-76630D01*
X59084Y-76630D02*
X59070Y-76500D01*
X59070Y-76500D02*
X59084Y-76370D01*
X59084Y-76370D02*
X59125Y-76244D01*
X59125Y-76244D02*
X59191Y-76130D01*
X59191Y-76130D02*
X59279Y-76032D01*
X59279Y-76032D02*
X59385Y-75955D01*
X59385Y-75955D02*
X59506Y-75901D01*
X59506Y-75901D02*
X59635Y-75874D01*
X59635Y-75874D02*
X59765Y-75874D01*
X59765Y-75874D02*
X59894Y-75901D01*
X59894Y-75901D02*
X60015Y-75955D01*
X60015Y-75955D02*
X60121Y-76032D01*
X60121Y-76032D02*
X60209Y-76130D01*
X60209Y-76130D02*
X60275Y-76244D01*
X60275Y-76244D02*
X60316Y-76370D01*
X60316Y-76370D02*
X60330Y-76500D01*
X61155Y-32200D02*
X61141Y-32330D01*
X61141Y-32330D02*
X61100Y-32456D01*
X61100Y-32456D02*
X61034Y-32570D01*
X61034Y-32570D02*
X60946Y-32668D01*
X60946Y-32668D02*
X60840Y-32745D01*
X60840Y-32745D02*
X60719Y-32799D01*
X60719Y-32799D02*
X60590Y-32826D01*
X60590Y-32826D02*
X60460Y-32826D01*
X60460Y-32826D02*
X60331Y-32799D01*
X60331Y-32799D02*
X60210Y-32745D01*
X60210Y-32745D02*
X60104Y-32668D01*
X60104Y-32668D02*
X60016Y-32570D01*
X60016Y-32570D02*
X59950Y-32456D01*
X59950Y-32456D02*
X59909Y-32330D01*
X59909Y-32330D02*
X59895Y-32200D01*
X59895Y-32200D02*
X59909Y-32070D01*
X59909Y-32070D02*
X59950Y-31944D01*
X59950Y-31944D02*
X60016Y-31830D01*
X60016Y-31830D02*
X60104Y-31732D01*
X60104Y-31732D02*
X60210Y-31655D01*
X60210Y-31655D02*
X60331Y-31601D01*
X60331Y-31601D02*
X60460Y-31574D01*
X60460Y-31574D02*
X60590Y-31574D01*
X60590Y-31574D02*
X60719Y-31601D01*
X60719Y-31601D02*
X60840Y-31655D01*
X60840Y-31655D02*
X60946Y-31732D01*
X60946Y-31732D02*
X61034Y-31830D01*
X61034Y-31830D02*
X61100Y-31944D01*
X61100Y-31944D02*
X61141Y-32070D01*
X61141Y-32070D02*
X61155Y-32200D01*
X61155Y-27525D02*
X61141Y-27655D01*
X61141Y-27655D02*
X61100Y-27781D01*
X61100Y-27781D02*
X61034Y-27895D01*
X61034Y-27895D02*
X60946Y-27993D01*
X60946Y-27993D02*
X60840Y-28070D01*
X60840Y-28070D02*
X60719Y-28124D01*
X60719Y-28124D02*
X60590Y-28151D01*
X60590Y-28151D02*
X60460Y-28151D01*
X60460Y-28151D02*
X60331Y-28124D01*
X60331Y-28124D02*
X60210Y-28070D01*
X60210Y-28070D02*
X60104Y-27993D01*
X60104Y-27993D02*
X60016Y-27895D01*
X60016Y-27895D02*
X59950Y-27781D01*
X59950Y-27781D02*
X59909Y-27655D01*
X59909Y-27655D02*
X59895Y-27525D01*
X59895Y-27525D02*
X59909Y-27395D01*
X59909Y-27395D02*
X59950Y-27269D01*
X59950Y-27269D02*
X60016Y-27155D01*
X60016Y-27155D02*
X60104Y-27057D01*
X60104Y-27057D02*
X60210Y-26980D01*
X60210Y-26980D02*
X60331Y-26926D01*
X60331Y-26926D02*
X60460Y-26899D01*
X60460Y-26899D02*
X60590Y-26899D01*
X60590Y-26899D02*
X60719Y-26926D01*
X60719Y-26926D02*
X60840Y-26980D01*
X60840Y-26980D02*
X60946Y-27057D01*
X60946Y-27057D02*
X61034Y-27155D01*
X61034Y-27155D02*
X61100Y-27269D01*
X61100Y-27269D02*
X61141Y-27395D01*
X61141Y-27395D02*
X61155Y-27525D01*
X53330Y-83325D02*
X53316Y-83455D01*
X53316Y-83455D02*
X53275Y-83581D01*
X53275Y-83581D02*
X53209Y-83695D01*
X53209Y-83695D02*
X53121Y-83793D01*
X53121Y-83793D02*
X53015Y-83870D01*
X53015Y-83870D02*
X52894Y-83924D01*
X52894Y-83924D02*
X52765Y-83951D01*
X52765Y-83951D02*
X52635Y-83951D01*
X52635Y-83951D02*
X52506Y-83924D01*
X52506Y-83924D02*
X52385Y-83870D01*
X52385Y-83870D02*
X52279Y-83793D01*
X52279Y-83793D02*
X52191Y-83695D01*
X52191Y-83695D02*
X52125Y-83581D01*
X52125Y-83581D02*
X52084Y-83455D01*
X52084Y-83455D02*
X52070Y-83325D01*
X52070Y-83325D02*
X52084Y-83195D01*
X52084Y-83195D02*
X52125Y-83069D01*
X52125Y-83069D02*
X52191Y-82955D01*
X52191Y-82955D02*
X52279Y-82857D01*
X52279Y-82857D02*
X52385Y-82780D01*
X52385Y-82780D02*
X52506Y-82726D01*
X52506Y-82726D02*
X52635Y-82699D01*
X52635Y-82699D02*
X52765Y-82699D01*
X52765Y-82699D02*
X52894Y-82726D01*
X52894Y-82726D02*
X53015Y-82780D01*
X53015Y-82780D02*
X53121Y-82857D01*
X53121Y-82857D02*
X53209Y-82955D01*
X53209Y-82955D02*
X53275Y-83069D01*
X53275Y-83069D02*
X53316Y-83195D01*
X53316Y-83195D02*
X53330Y-83325D01*
X42130Y-25975D02*
X42116Y-26105D01*
X42116Y-26105D02*
X42075Y-26231D01*
X42075Y-26231D02*
X42009Y-26345D01*
X42009Y-26345D02*
X41921Y-26443D01*
X41921Y-26443D02*
X41815Y-26520D01*
X41815Y-26520D02*
X41694Y-26574D01*
X41694Y-26574D02*
X41565Y-26601D01*
X41565Y-26601D02*
X41435Y-26601D01*
X41435Y-26601D02*
X41306Y-26574D01*
X41306Y-26574D02*
X41185Y-26520D01*
X41185Y-26520D02*
X41079Y-26443D01*
X41079Y-26443D02*
X40991Y-26345D01*
X40991Y-26345D02*
X40925Y-26231D01*
X40925Y-26231D02*
X40884Y-26105D01*
X40884Y-26105D02*
X40870Y-25975D01*
X40870Y-25975D02*
X40884Y-25845D01*
X40884Y-25845D02*
X40925Y-25719D01*
X40925Y-25719D02*
X40991Y-25605D01*
X40991Y-25605D02*
X41079Y-25507D01*
X41079Y-25507D02*
X41185Y-25430D01*
X41185Y-25430D02*
X41306Y-25376D01*
X41306Y-25376D02*
X41435Y-25349D01*
X41435Y-25349D02*
X41565Y-25349D01*
X41565Y-25349D02*
X41694Y-25376D01*
X41694Y-25376D02*
X41815Y-25430D01*
X41815Y-25430D02*
X41921Y-25507D01*
X41921Y-25507D02*
X42009Y-25605D01*
X42009Y-25605D02*
X42075Y-25719D01*
X42075Y-25719D02*
X42116Y-25845D01*
X42116Y-25845D02*
X42130Y-25975D01*
G54D32*
X44350Y-48574D02*
X44950Y-48574D01*
X44950Y-48649D02*
X44950Y-48199D01*
X44950Y-48199D02*
X44883Y-48124D01*
X44883Y-48124D02*
X44416Y-48124D01*
X44416Y-48124D02*
X44350Y-48199D01*
X44350Y-48199D02*
X44350Y-48649D01*
X44883Y-47338D02*
X44950Y-47413D01*
X44950Y-47413D02*
X44950Y-47788D01*
X44950Y-47788D02*
X44883Y-47863D01*
X44883Y-47863D02*
X44416Y-47863D01*
X44416Y-47863D02*
X44350Y-47788D01*
X44350Y-47788D02*
X44350Y-47413D01*
X44350Y-47413D02*
X44416Y-47338D01*
X44416Y-47338D02*
X44616Y-47338D01*
X44616Y-47338D02*
X44683Y-47413D01*
X44683Y-47413D02*
X44683Y-47788D01*
X44683Y-47788D02*
X44616Y-47863D01*
X44375Y-72574D02*
X44975Y-72574D01*
X44975Y-72649D02*
X44975Y-72199D01*
X44975Y-72199D02*
X44908Y-72124D01*
X44908Y-72124D02*
X44441Y-72124D01*
X44441Y-72124D02*
X44375Y-72199D01*
X44375Y-72199D02*
X44375Y-72649D01*
X44975Y-71863D02*
X44975Y-71338D01*
X44975Y-71338D02*
X44375Y-71863D01*
X44300Y-45967D02*
X44900Y-45967D01*
X44900Y-46042D02*
X44900Y-45592D01*
X44900Y-45592D02*
X44833Y-45517D01*
X44833Y-45517D02*
X44366Y-45517D01*
X44366Y-45517D02*
X44300Y-45592D01*
X44300Y-45592D02*
X44300Y-46042D01*
X44300Y-45106D02*
X44300Y-44806D01*
X44300Y-44956D02*
X44900Y-44956D01*
X44833Y-44956D02*
X44700Y-45106D01*
X44300Y-43945D02*
X44300Y-44470D01*
X44300Y-44470D02*
X44500Y-44470D01*
X44500Y-44470D02*
X44566Y-44395D01*
X44566Y-44395D02*
X44566Y-44020D01*
X44566Y-44020D02*
X44633Y-43945D01*
X44633Y-43945D02*
X44833Y-43945D01*
X44833Y-43945D02*
X44900Y-44020D01*
X44900Y-44020D02*
X44900Y-44395D01*
X44900Y-44395D02*
X44833Y-44470D01*
X44300Y-69942D02*
X44900Y-69942D01*
X44900Y-70017D02*
X44900Y-69567D01*
X44900Y-69567D02*
X44833Y-69492D01*
X44833Y-69492D02*
X44366Y-69492D01*
X44366Y-69492D02*
X44300Y-69567D01*
X44300Y-69567D02*
X44300Y-70017D01*
X44300Y-69081D02*
X44300Y-68781D01*
X44300Y-68931D02*
X44900Y-68931D01*
X44833Y-68931D02*
X44700Y-69081D01*
X44900Y-68445D02*
X44900Y-67920D01*
X44900Y-67920D02*
X44833Y-67920D01*
X44833Y-67920D02*
X44633Y-68220D01*
X44633Y-68220D02*
X44633Y-67995D01*
X44633Y-67995D02*
X44566Y-67920D01*
X44566Y-67920D02*
X44366Y-67920D01*
X44366Y-67920D02*
X44300Y-67995D01*
X44300Y-67995D02*
X44300Y-68370D01*
X44300Y-68370D02*
X44366Y-68445D01*
X44300Y-42917D02*
X44900Y-42917D01*
X44900Y-42992D02*
X44900Y-42542D01*
X44900Y-42542D02*
X44833Y-42467D01*
X44833Y-42467D02*
X44366Y-42467D01*
X44366Y-42467D02*
X44300Y-42542D01*
X44300Y-42542D02*
X44300Y-42992D01*
X44300Y-42056D02*
X44300Y-41756D01*
X44300Y-41906D02*
X44900Y-41906D01*
X44833Y-41906D02*
X44700Y-42056D01*
X44300Y-41345D02*
X44366Y-41420D01*
X44366Y-41420D02*
X44566Y-41420D01*
X44566Y-41420D02*
X44633Y-41345D01*
X44633Y-41345D02*
X44633Y-40970D01*
X44633Y-40970D02*
X44700Y-40895D01*
X44700Y-40895D02*
X44833Y-40895D01*
X44833Y-40895D02*
X44900Y-40970D01*
X44900Y-40970D02*
X44900Y-41345D01*
X44900Y-41345D02*
X44833Y-41420D01*
X44833Y-41420D02*
X44700Y-41420D01*
X44700Y-41420D02*
X44633Y-41345D01*
X44633Y-40970D02*
X44566Y-40895D01*
X44566Y-40895D02*
X44366Y-40895D01*
X44366Y-40895D02*
X44300Y-40970D01*
X44300Y-40970D02*
X44300Y-41345D01*
X44250Y-66942D02*
X44850Y-66942D01*
X44850Y-67017D02*
X44850Y-66567D01*
X44850Y-66567D02*
X44783Y-66492D01*
X44783Y-66492D02*
X44316Y-66492D01*
X44316Y-66492D02*
X44250Y-66567D01*
X44250Y-66567D02*
X44250Y-67017D01*
X44250Y-66081D02*
X44250Y-65781D01*
X44250Y-65931D02*
X44850Y-65931D01*
X44783Y-65931D02*
X44650Y-66081D01*
X44250Y-65370D02*
X44250Y-64995D01*
X44250Y-64995D02*
X44316Y-64920D01*
X44316Y-64920D02*
X44783Y-64920D01*
X44783Y-64920D02*
X44850Y-64995D01*
X44850Y-64995D02*
X44850Y-65370D01*
X44850Y-65370D02*
X44783Y-65445D01*
X44783Y-65445D02*
X44583Y-65445D01*
X44583Y-65445D02*
X44516Y-65370D01*
X44516Y-65370D02*
X44516Y-64995D01*
X44516Y-64995D02*
X44583Y-64920D01*
X44350Y-39917D02*
X44950Y-39917D01*
X44950Y-39992D02*
X44950Y-39542D01*
X44950Y-39542D02*
X44883Y-39467D01*
X44883Y-39467D02*
X44416Y-39467D01*
X44416Y-39467D02*
X44350Y-39542D01*
X44350Y-39542D02*
X44350Y-39992D01*
X44350Y-38681D02*
X44350Y-39206D01*
X44350Y-39206D02*
X44550Y-39206D01*
X44550Y-39206D02*
X44616Y-39131D01*
X44616Y-39131D02*
X44616Y-38756D01*
X44616Y-38756D02*
X44683Y-38681D01*
X44683Y-38681D02*
X44883Y-38681D01*
X44883Y-38681D02*
X44950Y-38756D01*
X44950Y-38756D02*
X44950Y-39131D01*
X44950Y-39131D02*
X44883Y-39206D01*
X44350Y-38045D02*
X44950Y-38045D01*
X44950Y-38045D02*
X44483Y-38420D01*
X44483Y-38420D02*
X44483Y-37895D01*
X44275Y-63942D02*
X44875Y-63942D01*
X44875Y-64017D02*
X44875Y-63567D01*
X44875Y-63567D02*
X44808Y-63492D01*
X44808Y-63492D02*
X44341Y-63492D01*
X44341Y-63492D02*
X44275Y-63567D01*
X44275Y-63567D02*
X44275Y-64017D01*
X44275Y-62706D02*
X44275Y-63231D01*
X44275Y-63231D02*
X44475Y-63231D01*
X44475Y-63231D02*
X44541Y-63156D01*
X44541Y-63156D02*
X44541Y-62781D01*
X44541Y-62781D02*
X44608Y-62706D01*
X44608Y-62706D02*
X44808Y-62706D01*
X44808Y-62706D02*
X44875Y-62781D01*
X44875Y-62781D02*
X44875Y-63156D01*
X44875Y-63156D02*
X44808Y-63231D01*
X44408Y-62445D02*
X44341Y-62445D01*
X44341Y-62445D02*
X44275Y-62370D01*
X44275Y-62370D02*
X44275Y-61995D01*
X44275Y-61995D02*
X44341Y-61920D01*
X44341Y-61920D02*
X44541Y-61920D01*
X44541Y-61920D02*
X44675Y-62070D01*
X44675Y-62070D02*
X44675Y-62445D01*
X44675Y-62445D02*
X44875Y-62445D01*
X44875Y-62445D02*
X44875Y-61920D01*
X44275Y-36917D02*
X44875Y-36917D01*
X44875Y-36992D02*
X44875Y-36542D01*
X44875Y-36542D02*
X44808Y-36467D01*
X44808Y-36467D02*
X44341Y-36467D01*
X44341Y-36467D02*
X44275Y-36542D01*
X44275Y-36542D02*
X44275Y-36992D01*
X44875Y-36206D02*
X44875Y-35681D01*
X44875Y-35681D02*
X44808Y-35681D01*
X44808Y-35681D02*
X44608Y-35981D01*
X44608Y-35981D02*
X44608Y-35756D01*
X44608Y-35756D02*
X44541Y-35681D01*
X44541Y-35681D02*
X44341Y-35681D01*
X44341Y-35681D02*
X44275Y-35756D01*
X44275Y-35756D02*
X44275Y-36131D01*
X44275Y-36131D02*
X44341Y-36206D01*
X44275Y-35420D02*
X44875Y-34895D01*
X44341Y-35420D02*
X44808Y-35420D01*
X44808Y-35420D02*
X44875Y-35345D01*
X44875Y-35345D02*
X44875Y-34970D01*
X44875Y-34970D02*
X44808Y-34895D01*
X44808Y-34895D02*
X44341Y-34895D01*
X44341Y-34895D02*
X44275Y-34970D01*
X44275Y-34970D02*
X44275Y-35345D01*
X44275Y-35345D02*
X44341Y-35420D01*
X44300Y-61017D02*
X44900Y-61017D01*
X44900Y-61092D02*
X44900Y-60642D01*
X44900Y-60642D02*
X44833Y-60567D01*
X44833Y-60567D02*
X44366Y-60567D01*
X44366Y-60567D02*
X44300Y-60642D01*
X44300Y-60642D02*
X44300Y-61092D01*
X44900Y-60306D02*
X44900Y-59781D01*
X44900Y-59781D02*
X44833Y-59781D01*
X44833Y-59781D02*
X44633Y-60081D01*
X44633Y-60081D02*
X44633Y-59856D01*
X44633Y-59856D02*
X44566Y-59781D01*
X44566Y-59781D02*
X44366Y-59781D01*
X44366Y-59781D02*
X44300Y-59856D01*
X44300Y-59856D02*
X44300Y-60231D01*
X44300Y-60231D02*
X44366Y-60306D01*
X44300Y-59370D02*
X44300Y-59070D01*
X44300Y-59220D02*
X44900Y-59220D01*
X44833Y-59220D02*
X44700Y-59370D01*
X44300Y-33917D02*
X44900Y-33917D01*
X44900Y-33992D02*
X44900Y-33542D01*
X44900Y-33542D02*
X44833Y-33467D01*
X44833Y-33467D02*
X44366Y-33467D01*
X44366Y-33467D02*
X44300Y-33542D01*
X44300Y-33542D02*
X44300Y-33992D01*
X44900Y-33206D02*
X44900Y-32681D01*
X44900Y-32681D02*
X44833Y-32681D01*
X44833Y-32681D02*
X44633Y-32981D01*
X44633Y-32981D02*
X44633Y-32756D01*
X44633Y-32756D02*
X44566Y-32681D01*
X44566Y-32681D02*
X44366Y-32681D01*
X44366Y-32681D02*
X44300Y-32756D01*
X44300Y-32756D02*
X44300Y-33131D01*
X44300Y-33131D02*
X44366Y-33206D01*
X44833Y-31895D02*
X44900Y-31970D01*
X44900Y-31970D02*
X44900Y-32345D01*
X44900Y-32345D02*
X44833Y-32420D01*
X44833Y-32420D02*
X44366Y-32420D01*
X44366Y-32420D02*
X44300Y-32345D01*
X44300Y-32345D02*
X44300Y-31970D01*
X44300Y-31970D02*
X44366Y-31895D01*
X44366Y-31895D02*
X44566Y-31895D01*
X44566Y-31895D02*
X44633Y-31970D01*
X44633Y-31970D02*
X44633Y-32345D01*
X44633Y-32345D02*
X44566Y-32420D01*
X44325Y-57992D02*
X44925Y-57992D01*
X44925Y-58067D02*
X44925Y-57617D01*
X44925Y-57617D02*
X44858Y-57542D01*
X44858Y-57542D02*
X44391Y-57542D01*
X44391Y-57542D02*
X44325Y-57617D01*
X44325Y-57617D02*
X44325Y-58067D01*
X44925Y-57281D02*
X44925Y-56756D01*
X44925Y-56756D02*
X44858Y-56756D01*
X44858Y-56756D02*
X44658Y-57056D01*
X44658Y-57056D02*
X44658Y-56831D01*
X44658Y-56831D02*
X44591Y-56756D01*
X44591Y-56756D02*
X44391Y-56756D01*
X44391Y-56756D02*
X44325Y-56831D01*
X44325Y-56831D02*
X44325Y-57206D01*
X44325Y-57206D02*
X44391Y-57281D01*
X44925Y-56495D02*
X44925Y-55970D01*
X44925Y-55970D02*
X44325Y-56495D01*
X44250Y-30942D02*
X44850Y-30942D01*
X44850Y-31017D02*
X44850Y-30567D01*
X44850Y-30567D02*
X44783Y-30492D01*
X44783Y-30492D02*
X44316Y-30492D01*
X44316Y-30492D02*
X44250Y-30567D01*
X44250Y-30567D02*
X44250Y-31017D01*
X44250Y-29856D02*
X44850Y-29856D01*
X44850Y-29856D02*
X44383Y-30231D01*
X44383Y-30231D02*
X44383Y-29706D01*
X44250Y-28920D02*
X44250Y-29445D01*
X44250Y-29445D02*
X44450Y-29445D01*
X44450Y-29445D02*
X44516Y-29370D01*
X44516Y-29370D02*
X44516Y-28995D01*
X44516Y-28995D02*
X44583Y-28920D01*
X44583Y-28920D02*
X44783Y-28920D01*
X44783Y-28920D02*
X44850Y-28995D01*
X44850Y-28995D02*
X44850Y-29370D01*
X44850Y-29370D02*
X44783Y-29445D01*
X44350Y-54967D02*
X44950Y-54967D01*
X44950Y-55042D02*
X44950Y-54592D01*
X44950Y-54592D02*
X44883Y-54517D01*
X44883Y-54517D02*
X44416Y-54517D01*
X44416Y-54517D02*
X44350Y-54592D01*
X44350Y-54592D02*
X44350Y-55042D01*
X44350Y-53881D02*
X44950Y-53881D01*
X44950Y-53881D02*
X44483Y-54256D01*
X44483Y-54256D02*
X44483Y-53731D01*
X44950Y-53470D02*
X44950Y-52945D01*
X44950Y-52945D02*
X44883Y-52945D01*
X44883Y-52945D02*
X44683Y-53245D01*
X44683Y-53245D02*
X44683Y-53020D01*
X44683Y-53020D02*
X44616Y-52945D01*
X44616Y-52945D02*
X44416Y-52945D01*
X44416Y-52945D02*
X44350Y-53020D01*
X44350Y-53020D02*
X44350Y-53395D01*
X44350Y-53395D02*
X44416Y-53470D01*
X41725Y-28517D02*
X42325Y-28517D01*
X42325Y-28592D02*
X42325Y-28142D01*
X42325Y-28142D02*
X42258Y-28067D01*
X42258Y-28067D02*
X41791Y-28067D01*
X41791Y-28067D02*
X41725Y-28142D01*
X41725Y-28142D02*
X41725Y-28592D01*
X41725Y-27431D02*
X42325Y-27431D01*
X42325Y-27431D02*
X41858Y-27806D01*
X41858Y-27806D02*
X41858Y-27281D01*
X41725Y-26945D02*
X41791Y-27020D01*
X41791Y-27020D02*
X41991Y-27020D01*
X41991Y-27020D02*
X42058Y-26945D01*
X42058Y-26945D02*
X42058Y-26570D01*
X42058Y-26570D02*
X42125Y-26495D01*
X42125Y-26495D02*
X42258Y-26495D01*
X42258Y-26495D02*
X42325Y-26570D01*
X42325Y-26570D02*
X42325Y-26945D01*
X42325Y-26945D02*
X42258Y-27020D01*
X42258Y-27020D02*
X42125Y-27020D01*
X42125Y-27020D02*
X42058Y-26945D01*
X42058Y-26570D02*
X41991Y-26495D01*
X41991Y-26495D02*
X41791Y-26495D01*
X41791Y-26495D02*
X41725Y-26570D01*
X41725Y-26570D02*
X41725Y-26945D01*
X44375Y-52042D02*
X44975Y-52042D01*
X44975Y-52117D02*
X44975Y-51667D01*
X44975Y-51667D02*
X44908Y-51592D01*
X44908Y-51592D02*
X44441Y-51592D01*
X44441Y-51592D02*
X44375Y-51667D01*
X44375Y-51667D02*
X44375Y-52117D01*
X44375Y-50956D02*
X44975Y-50956D01*
X44975Y-50956D02*
X44508Y-51331D01*
X44508Y-51331D02*
X44508Y-50806D01*
X44375Y-50470D02*
X44375Y-50095D01*
X44375Y-50095D02*
X44441Y-50020D01*
X44441Y-50020D02*
X44908Y-50020D01*
X44908Y-50020D02*
X44975Y-50095D01*
X44975Y-50095D02*
X44975Y-50470D01*
X44975Y-50470D02*
X44908Y-50545D01*
X44908Y-50545D02*
X44708Y-50545D01*
X44708Y-50545D02*
X44641Y-50470D01*
X44641Y-50470D02*
X44641Y-50095D01*
X44641Y-50095D02*
X44708Y-50020D01*
X44350Y-96599D02*
X44950Y-96599D01*
X44950Y-96674D02*
X44950Y-96224D01*
X44950Y-96224D02*
X44883Y-96149D01*
X44883Y-96149D02*
X44416Y-96149D01*
X44416Y-96149D02*
X44350Y-96224D01*
X44350Y-96224D02*
X44350Y-96674D01*
X44350Y-95813D02*
X44416Y-95888D01*
X44416Y-95888D02*
X44616Y-95888D01*
X44616Y-95888D02*
X44683Y-95813D01*
X44683Y-95813D02*
X44683Y-95438D01*
X44683Y-95438D02*
X44750Y-95363D01*
X44750Y-95363D02*
X44883Y-95363D01*
X44883Y-95363D02*
X44950Y-95438D01*
X44950Y-95438D02*
X44950Y-95813D01*
X44950Y-95813D02*
X44883Y-95888D01*
X44883Y-95888D02*
X44750Y-95888D01*
X44750Y-95888D02*
X44683Y-95813D01*
X44683Y-95438D02*
X44616Y-95363D01*
X44616Y-95363D02*
X44416Y-95363D01*
X44416Y-95363D02*
X44350Y-95438D01*
X44350Y-95438D02*
X44350Y-95813D01*
X44325Y-93992D02*
X44925Y-93992D01*
X44925Y-94067D02*
X44925Y-93617D01*
X44925Y-93617D02*
X44858Y-93542D01*
X44858Y-93542D02*
X44391Y-93542D01*
X44391Y-93542D02*
X44325Y-93617D01*
X44325Y-93617D02*
X44325Y-94067D01*
X44325Y-93131D02*
X44325Y-92831D01*
X44325Y-92981D02*
X44925Y-92981D01*
X44858Y-92981D02*
X44725Y-93131D01*
X44325Y-92120D02*
X44925Y-92120D01*
X44925Y-92120D02*
X44458Y-92495D01*
X44458Y-92495D02*
X44458Y-91970D01*
X44325Y-90917D02*
X44925Y-90917D01*
X44925Y-90992D02*
X44925Y-90542D01*
X44925Y-90542D02*
X44858Y-90467D01*
X44858Y-90467D02*
X44391Y-90467D01*
X44391Y-90467D02*
X44325Y-90542D01*
X44325Y-90542D02*
X44325Y-90992D01*
X44325Y-89681D02*
X44325Y-90206D01*
X44325Y-90206D02*
X44525Y-90206D01*
X44525Y-90206D02*
X44591Y-90131D01*
X44591Y-90131D02*
X44591Y-89756D01*
X44591Y-89756D02*
X44658Y-89681D01*
X44658Y-89681D02*
X44858Y-89681D01*
X44858Y-89681D02*
X44925Y-89756D01*
X44925Y-89756D02*
X44925Y-90131D01*
X44925Y-90131D02*
X44858Y-90206D01*
X44325Y-89420D02*
X44925Y-88895D01*
X44391Y-89420D02*
X44858Y-89420D01*
X44858Y-89420D02*
X44925Y-89345D01*
X44925Y-89345D02*
X44925Y-88970D01*
X44925Y-88970D02*
X44858Y-88895D01*
X44858Y-88895D02*
X44391Y-88895D01*
X44391Y-88895D02*
X44325Y-88970D01*
X44325Y-88970D02*
X44325Y-89345D01*
X44325Y-89345D02*
X44391Y-89420D01*
X44350Y-87892D02*
X44950Y-87892D01*
X44950Y-87967D02*
X44950Y-87517D01*
X44950Y-87517D02*
X44883Y-87442D01*
X44883Y-87442D02*
X44416Y-87442D01*
X44416Y-87442D02*
X44350Y-87517D01*
X44350Y-87517D02*
X44350Y-87967D01*
X44350Y-86656D02*
X44350Y-87181D01*
X44350Y-87181D02*
X44550Y-87181D01*
X44550Y-87181D02*
X44616Y-87106D01*
X44616Y-87106D02*
X44616Y-86731D01*
X44616Y-86731D02*
X44683Y-86656D01*
X44683Y-86656D02*
X44883Y-86656D01*
X44883Y-86656D02*
X44950Y-86731D01*
X44950Y-86731D02*
X44950Y-87106D01*
X44950Y-87106D02*
X44883Y-87181D01*
X44883Y-85870D02*
X44950Y-85945D01*
X44950Y-85945D02*
X44950Y-86320D01*
X44950Y-86320D02*
X44883Y-86395D01*
X44883Y-86395D02*
X44416Y-86395D01*
X44416Y-86395D02*
X44350Y-86320D01*
X44350Y-86320D02*
X44350Y-85945D01*
X44350Y-85945D02*
X44416Y-85870D01*
X44416Y-85870D02*
X44616Y-85870D01*
X44616Y-85870D02*
X44683Y-85945D01*
X44683Y-85945D02*
X44683Y-86320D01*
X44683Y-86320D02*
X44616Y-86395D01*
X44350Y-85017D02*
X44950Y-85017D01*
X44950Y-85092D02*
X44950Y-84642D01*
X44950Y-84642D02*
X44883Y-84567D01*
X44883Y-84567D02*
X44416Y-84567D01*
X44416Y-84567D02*
X44350Y-84642D01*
X44350Y-84642D02*
X44350Y-85092D01*
X44950Y-84306D02*
X44950Y-83781D01*
X44950Y-83781D02*
X44883Y-83781D01*
X44883Y-83781D02*
X44683Y-84081D01*
X44683Y-84081D02*
X44683Y-83856D01*
X44683Y-83856D02*
X44616Y-83781D01*
X44616Y-83781D02*
X44416Y-83781D01*
X44416Y-83781D02*
X44350Y-83856D01*
X44350Y-83856D02*
X44350Y-84231D01*
X44350Y-84231D02*
X44416Y-84306D01*
X44350Y-82995D02*
X44350Y-83520D01*
X44350Y-83520D02*
X44550Y-83520D01*
X44550Y-83520D02*
X44616Y-83445D01*
X44616Y-83445D02*
X44616Y-83070D01*
X44616Y-83070D02*
X44683Y-82995D01*
X44683Y-82995D02*
X44883Y-82995D01*
X44883Y-82995D02*
X44950Y-83070D01*
X44950Y-83070D02*
X44950Y-83445D01*
X44950Y-83445D02*
X44883Y-83520D01*
X44300Y-81917D02*
X44900Y-81917D01*
X44900Y-81992D02*
X44900Y-81542D01*
X44900Y-81542D02*
X44833Y-81467D01*
X44833Y-81467D02*
X44366Y-81467D01*
X44366Y-81467D02*
X44300Y-81542D01*
X44300Y-81542D02*
X44300Y-81992D01*
X44900Y-81206D02*
X44900Y-80681D01*
X44900Y-80681D02*
X44833Y-80681D01*
X44833Y-80681D02*
X44633Y-80981D01*
X44633Y-80981D02*
X44633Y-80756D01*
X44633Y-80756D02*
X44566Y-80681D01*
X44566Y-80681D02*
X44366Y-80681D01*
X44366Y-80681D02*
X44300Y-80756D01*
X44300Y-80756D02*
X44300Y-81131D01*
X44300Y-81131D02*
X44366Y-81206D01*
X44300Y-80345D02*
X44366Y-80420D01*
X44366Y-80420D02*
X44566Y-80420D01*
X44566Y-80420D02*
X44633Y-80345D01*
X44633Y-80345D02*
X44633Y-79970D01*
X44633Y-79970D02*
X44700Y-79895D01*
X44700Y-79895D02*
X44833Y-79895D01*
X44833Y-79895D02*
X44900Y-79970D01*
X44900Y-79970D02*
X44900Y-80345D01*
X44900Y-80345D02*
X44833Y-80420D01*
X44833Y-80420D02*
X44700Y-80420D01*
X44700Y-80420D02*
X44633Y-80345D01*
X44633Y-79970D02*
X44566Y-79895D01*
X44566Y-79895D02*
X44366Y-79895D01*
X44366Y-79895D02*
X44300Y-79970D01*
X44300Y-79970D02*
X44300Y-80345D01*
X44350Y-79017D02*
X44950Y-79017D01*
X44950Y-79092D02*
X44950Y-78642D01*
X44950Y-78642D02*
X44883Y-78567D01*
X44883Y-78567D02*
X44416Y-78567D01*
X44416Y-78567D02*
X44350Y-78642D01*
X44350Y-78642D02*
X44350Y-79092D01*
X44350Y-77931D02*
X44950Y-77931D01*
X44950Y-77931D02*
X44483Y-78306D01*
X44483Y-78306D02*
X44483Y-77781D01*
X44350Y-77145D02*
X44950Y-77145D01*
X44950Y-77145D02*
X44483Y-77520D01*
X44483Y-77520D02*
X44483Y-76995D01*
X44300Y-75967D02*
X44900Y-75967D01*
X44900Y-76042D02*
X44900Y-75592D01*
X44900Y-75592D02*
X44833Y-75517D01*
X44833Y-75517D02*
X44366Y-75517D01*
X44366Y-75517D02*
X44300Y-75592D01*
X44300Y-75592D02*
X44300Y-76042D01*
X44433Y-75256D02*
X44366Y-75256D01*
X44366Y-75256D02*
X44300Y-75181D01*
X44300Y-75181D02*
X44300Y-74806D01*
X44300Y-74806D02*
X44366Y-74731D01*
X44366Y-74731D02*
X44566Y-74731D01*
X44566Y-74731D02*
X44700Y-74881D01*
X44700Y-74881D02*
X44700Y-75256D01*
X44700Y-75256D02*
X44900Y-75256D01*
X44900Y-75256D02*
X44900Y-74731D01*
X44300Y-74470D02*
X44900Y-73945D01*
X44366Y-74470D02*
X44833Y-74470D01*
X44833Y-74470D02*
X44900Y-74395D01*
X44900Y-74395D02*
X44900Y-74020D01*
X44900Y-74020D02*
X44833Y-73945D01*
X44833Y-73945D02*
X44366Y-73945D01*
X44366Y-73945D02*
X44300Y-74020D01*
X44300Y-74020D02*
X44300Y-74395D01*
X44300Y-74395D02*
X44366Y-74470D01*
G54D29*
X55059Y-54352D02*
X55027Y-54325D01*
X55027Y-54325D02*
X54871Y-54325D01*
X54871Y-54325D02*
X54840Y-54352D01*
X54840Y-54352D02*
X54840Y-54547D01*
X54840Y-54547D02*
X54871Y-54575D01*
X54871Y-54575D02*
X55027Y-54575D01*
X55027Y-54575D02*
X55059Y-54547D01*
X55167Y-54380D02*
X55167Y-54352D01*
X55167Y-54352D02*
X55198Y-54325D01*
X55198Y-54325D02*
X55354Y-54325D01*
X55354Y-54325D02*
X55386Y-54352D01*
X55386Y-54352D02*
X55386Y-54436D01*
X55386Y-54436D02*
X55323Y-54491D01*
X55323Y-54491D02*
X55167Y-54491D01*
X55167Y-54491D02*
X55167Y-54575D01*
X55167Y-54575D02*
X55386Y-54575D01*
X54002Y-56541D02*
X53975Y-56573D01*
X53975Y-56573D02*
X53975Y-56729D01*
X53975Y-56729D02*
X54002Y-56760D01*
X54002Y-56760D02*
X54197Y-56760D01*
X54197Y-56760D02*
X54225Y-56729D01*
X54225Y-56729D02*
X54225Y-56573D01*
X54225Y-56573D02*
X54197Y-56541D01*
X54197Y-56214D02*
X54225Y-56246D01*
X54225Y-56246D02*
X54225Y-56402D01*
X54225Y-56402D02*
X54197Y-56433D01*
X54197Y-56433D02*
X54002Y-56433D01*
X54002Y-56433D02*
X53975Y-56402D01*
X53975Y-56402D02*
X53975Y-56246D01*
X53975Y-56246D02*
X54002Y-56214D01*
X54002Y-56214D02*
X54086Y-56214D01*
X54086Y-56214D02*
X54113Y-56246D01*
X54113Y-56246D02*
X54113Y-56402D01*
X54113Y-56402D02*
X54086Y-56433D01*
X55002Y-90691D02*
X54975Y-90723D01*
X54975Y-90723D02*
X54975Y-90879D01*
X54975Y-90879D02*
X55002Y-90910D01*
X55002Y-90910D02*
X55197Y-90910D01*
X55197Y-90910D02*
X55225Y-90879D01*
X55225Y-90879D02*
X55225Y-90723D01*
X55225Y-90723D02*
X55197Y-90691D01*
X54975Y-90521D02*
X54975Y-90396D01*
X54975Y-90458D02*
X55225Y-90458D01*
X55197Y-90458D02*
X55141Y-90521D01*
X55039Y-53282D02*
X55007Y-53255D01*
X55007Y-53255D02*
X54851Y-53255D01*
X54851Y-53255D02*
X54820Y-53282D01*
X54820Y-53282D02*
X54820Y-53477D01*
X54820Y-53477D02*
X54851Y-53505D01*
X54851Y-53505D02*
X55007Y-53505D01*
X55007Y-53505D02*
X55039Y-53477D01*
X55366Y-53255D02*
X55147Y-53255D01*
X55147Y-53255D02*
X55147Y-53338D01*
X55147Y-53338D02*
X55178Y-53366D01*
X55178Y-53366D02*
X55334Y-53366D01*
X55334Y-53366D02*
X55366Y-53393D01*
X55366Y-53393D02*
X55366Y-53477D01*
X55366Y-53477D02*
X55334Y-53505D01*
X55334Y-53505D02*
X55178Y-53505D01*
X55178Y-53505D02*
X55147Y-53477D01*
X55482Y-94461D02*
X55455Y-94493D01*
X55455Y-94493D02*
X55455Y-94649D01*
X55455Y-94649D02*
X55482Y-94680D01*
X55482Y-94680D02*
X55677Y-94680D01*
X55677Y-94680D02*
X55705Y-94649D01*
X55705Y-94649D02*
X55705Y-94493D01*
X55705Y-94493D02*
X55677Y-94461D01*
X55705Y-94353D02*
X55705Y-94134D01*
X55705Y-94134D02*
X55677Y-94134D01*
X55677Y-94134D02*
X55593Y-94259D01*
X55593Y-94259D02*
X55593Y-94166D01*
X55593Y-94166D02*
X55566Y-94134D01*
X55566Y-94134D02*
X55482Y-94134D01*
X55482Y-94134D02*
X55455Y-94166D01*
X55455Y-94166D02*
X55455Y-94322D01*
X55455Y-94322D02*
X55482Y-94353D01*
X52834Y-52302D02*
X52802Y-52275D01*
X52802Y-52275D02*
X52646Y-52275D01*
X52646Y-52275D02*
X52615Y-52302D01*
X52615Y-52302D02*
X52615Y-52497D01*
X52615Y-52497D02*
X52646Y-52525D01*
X52646Y-52525D02*
X52802Y-52525D01*
X52802Y-52525D02*
X52834Y-52497D01*
X52942Y-52525D02*
X53161Y-52525D01*
X53161Y-52525D02*
X52942Y-52275D01*
X53779Y-42902D02*
X53747Y-42875D01*
X53747Y-42875D02*
X53591Y-42875D01*
X53591Y-42875D02*
X53560Y-42902D01*
X53560Y-42902D02*
X53560Y-43097D01*
X53560Y-43097D02*
X53591Y-43125D01*
X53591Y-43125D02*
X53747Y-43125D01*
X53747Y-43125D02*
X53779Y-43097D01*
X53918Y-42875D02*
X53887Y-42902D01*
X53887Y-42902D02*
X53887Y-42986D01*
X53887Y-42986D02*
X53918Y-43013D01*
X53918Y-43013D02*
X54074Y-43013D01*
X54074Y-43013D02*
X54106Y-43041D01*
X54106Y-43041D02*
X54106Y-43097D01*
X54106Y-43097D02*
X54074Y-43125D01*
X54074Y-43125D02*
X53918Y-43125D01*
X53918Y-43125D02*
X53887Y-43097D01*
X53887Y-43097D02*
X53887Y-43041D01*
X53887Y-43041D02*
X53918Y-43013D01*
X54074Y-43013D02*
X54106Y-42986D01*
X54106Y-42986D02*
X54106Y-42902D01*
X54106Y-42902D02*
X54074Y-42875D01*
X54074Y-42875D02*
X53918Y-42875D01*
X57477Y-61941D02*
X57450Y-61973D01*
X57450Y-61973D02*
X57450Y-62129D01*
X57450Y-62129D02*
X57477Y-62160D01*
X57477Y-62160D02*
X57672Y-62160D01*
X57672Y-62160D02*
X57700Y-62129D01*
X57700Y-62129D02*
X57700Y-61973D01*
X57700Y-61973D02*
X57672Y-61941D01*
X57450Y-61802D02*
X57450Y-61646D01*
X57450Y-61646D02*
X57477Y-61614D01*
X57477Y-61614D02*
X57672Y-61614D01*
X57672Y-61614D02*
X57700Y-61646D01*
X57700Y-61646D02*
X57700Y-61802D01*
X57700Y-61802D02*
X57672Y-61833D01*
X57672Y-61833D02*
X57588Y-61833D01*
X57588Y-61833D02*
X57561Y-61802D01*
X57561Y-61802D02*
X57561Y-61646D01*
X57561Y-61646D02*
X57588Y-61614D01*
X55252Y-80491D02*
X55225Y-80523D01*
X55225Y-80523D02*
X55225Y-80679D01*
X55225Y-80679D02*
X55252Y-80710D01*
X55252Y-80710D02*
X55447Y-80710D01*
X55447Y-80710D02*
X55475Y-80679D01*
X55475Y-80679D02*
X55475Y-80523D01*
X55475Y-80523D02*
X55447Y-80491D01*
X55225Y-80227D02*
X55475Y-80227D01*
X55475Y-80227D02*
X55280Y-80383D01*
X55280Y-80383D02*
X55280Y-80164D01*
X49477Y-27175D02*
X49477Y-27425D01*
X49477Y-27425D02*
X49664Y-27425D01*
X49664Y-27425D02*
X49696Y-27397D01*
X49696Y-27397D02*
X49696Y-27313D01*
X49696Y-27313D02*
X49664Y-27286D01*
X49664Y-27286D02*
X49477Y-27286D01*
X49571Y-27286D02*
X49696Y-27175D01*
X49866Y-27175D02*
X49991Y-27175D01*
X49929Y-27175D02*
X49929Y-27425D01*
X49929Y-27397D02*
X49866Y-27341D01*
X50350Y-27175D02*
X50131Y-27175D01*
X50131Y-27175D02*
X50131Y-27258D01*
X50131Y-27258D02*
X50162Y-27286D01*
X50162Y-27286D02*
X50318Y-27286D01*
X50318Y-27286D02*
X50350Y-27313D01*
X50350Y-27313D02*
X50350Y-27397D01*
X50350Y-27397D02*
X50318Y-27425D01*
X50318Y-27425D02*
X50162Y-27425D01*
X50162Y-27425D02*
X50131Y-27397D01*
X46740Y-26175D02*
X46740Y-26425D01*
X46740Y-26425D02*
X46927Y-26425D01*
X46927Y-26425D02*
X46959Y-26397D01*
X46959Y-26397D02*
X46959Y-26313D01*
X46959Y-26313D02*
X46927Y-26286D01*
X46927Y-26286D02*
X46740Y-26286D01*
X46834Y-26286D02*
X46959Y-26175D01*
X47129Y-26175D02*
X47254Y-26175D01*
X47192Y-26175D02*
X47192Y-26425D01*
X47192Y-26397D02*
X47129Y-26341D01*
X47977Y-26675D02*
X47977Y-26925D01*
X47977Y-26925D02*
X48164Y-26925D01*
X48164Y-26925D02*
X48196Y-26897D01*
X48196Y-26897D02*
X48196Y-26813D01*
X48196Y-26813D02*
X48164Y-26786D01*
X48164Y-26786D02*
X47977Y-26786D01*
X48071Y-26786D02*
X48196Y-26675D01*
X48366Y-26675D02*
X48491Y-26675D01*
X48429Y-26675D02*
X48429Y-26925D01*
X48429Y-26897D02*
X48366Y-26841D01*
X48631Y-26925D02*
X48850Y-26925D01*
X48850Y-26925D02*
X48850Y-26897D01*
X48850Y-26897D02*
X48725Y-26813D01*
X48725Y-26813D02*
X48818Y-26813D01*
X48818Y-26813D02*
X48850Y-26786D01*
X48850Y-26786D02*
X48850Y-26702D01*
X48850Y-26702D02*
X48818Y-26675D01*
X48818Y-26675D02*
X48662Y-26675D01*
X48662Y-26675D02*
X48631Y-26702D01*
X54277Y-28675D02*
X54277Y-28925D01*
X54277Y-28925D02*
X54464Y-28925D01*
X54464Y-28925D02*
X54496Y-28897D01*
X54496Y-28897D02*
X54496Y-28813D01*
X54496Y-28813D02*
X54464Y-28786D01*
X54464Y-28786D02*
X54277Y-28786D01*
X54371Y-28786D02*
X54496Y-28675D01*
X54666Y-28675D02*
X54791Y-28675D01*
X54729Y-28675D02*
X54729Y-28925D01*
X54729Y-28897D02*
X54666Y-28841D01*
X55087Y-28675D02*
X55087Y-28925D01*
X55087Y-28925D02*
X54931Y-28730D01*
X54931Y-28730D02*
X55150Y-28730D01*
X51240Y-27675D02*
X51240Y-27925D01*
X51240Y-27925D02*
X51427Y-27925D01*
X51427Y-27925D02*
X51459Y-27897D01*
X51459Y-27897D02*
X51459Y-27813D01*
X51459Y-27813D02*
X51427Y-27786D01*
X51427Y-27786D02*
X51240Y-27786D01*
X51334Y-27786D02*
X51459Y-27675D01*
X51786Y-27675D02*
X51567Y-27675D01*
X51567Y-27675D02*
X51567Y-27758D01*
X51567Y-27758D02*
X51598Y-27786D01*
X51598Y-27786D02*
X51754Y-27786D01*
X51754Y-27786D02*
X51786Y-27813D01*
X51786Y-27813D02*
X51786Y-27897D01*
X51786Y-27897D02*
X51754Y-27925D01*
X51754Y-27925D02*
X51598Y-27925D01*
X51598Y-27925D02*
X51567Y-27897D01*
X52677Y-28175D02*
X52677Y-28425D01*
X52677Y-28425D02*
X52864Y-28425D01*
X52864Y-28425D02*
X52896Y-28397D01*
X52896Y-28397D02*
X52896Y-28313D01*
X52896Y-28313D02*
X52864Y-28286D01*
X52864Y-28286D02*
X52677Y-28286D01*
X52771Y-28286D02*
X52896Y-28175D01*
X53066Y-28175D02*
X53191Y-28175D01*
X53129Y-28175D02*
X53129Y-28425D01*
X53129Y-28397D02*
X53066Y-28341D01*
X53331Y-28230D02*
X53331Y-28202D01*
X53331Y-28202D02*
X53362Y-28175D01*
X53362Y-28175D02*
X53518Y-28175D01*
X53518Y-28175D02*
X53550Y-28202D01*
X53550Y-28202D02*
X53550Y-28286D01*
X53550Y-28286D02*
X53487Y-28341D01*
X53487Y-28341D02*
X53331Y-28341D01*
X53331Y-28341D02*
X53331Y-28425D01*
X53331Y-28425D02*
X53550Y-28425D01*
X52852Y-30750D02*
X52852Y-31000D01*
X52852Y-31000D02*
X53039Y-31000D01*
X53039Y-31000D02*
X53071Y-30972D01*
X53071Y-30972D02*
X53071Y-30888D01*
X53071Y-30888D02*
X53039Y-30861D01*
X53039Y-30861D02*
X52852Y-30861D01*
X52946Y-30861D02*
X53071Y-30750D01*
X53241Y-30750D02*
X53366Y-30750D01*
X53304Y-30750D02*
X53304Y-31000D01*
X53304Y-30972D02*
X53241Y-30916D01*
X53725Y-30972D02*
X53693Y-31000D01*
X53693Y-31000D02*
X53537Y-31000D01*
X53537Y-31000D02*
X53506Y-30972D01*
X53506Y-30972D02*
X53506Y-30777D01*
X53506Y-30777D02*
X53537Y-30750D01*
X53537Y-30750D02*
X53693Y-30750D01*
X53693Y-30750D02*
X53725Y-30777D01*
X53725Y-30777D02*
X53725Y-30861D01*
X53725Y-30861D02*
X53693Y-30888D01*
X53693Y-30888D02*
X53537Y-30888D01*
X53537Y-30888D02*
X53506Y-30861D01*
X52840Y-29275D02*
X52840Y-29525D01*
X52840Y-29525D02*
X53027Y-29525D01*
X53027Y-29525D02*
X53059Y-29497D01*
X53059Y-29497D02*
X53059Y-29413D01*
X53059Y-29413D02*
X53027Y-29386D01*
X53027Y-29386D02*
X52840Y-29386D01*
X52934Y-29386D02*
X53059Y-29275D01*
X53167Y-29525D02*
X53386Y-29525D01*
X53386Y-29525D02*
X53386Y-29497D01*
X53386Y-29497D02*
X53261Y-29413D01*
X53261Y-29413D02*
X53354Y-29413D01*
X53354Y-29413D02*
X53386Y-29386D01*
X53386Y-29386D02*
X53386Y-29302D01*
X53386Y-29302D02*
X53354Y-29275D01*
X53354Y-29275D02*
X53198Y-29275D01*
X53198Y-29275D02*
X53167Y-29302D01*
X54652Y-30175D02*
X54652Y-30425D01*
X54652Y-30425D02*
X54839Y-30425D01*
X54839Y-30425D02*
X54871Y-30397D01*
X54871Y-30397D02*
X54871Y-30313D01*
X54871Y-30313D02*
X54839Y-30286D01*
X54839Y-30286D02*
X54652Y-30286D01*
X54746Y-30286D02*
X54871Y-30175D01*
X55041Y-30175D02*
X55166Y-30175D01*
X55104Y-30175D02*
X55104Y-30425D01*
X55104Y-30397D02*
X55041Y-30341D01*
X55306Y-30425D02*
X55525Y-30425D01*
X55525Y-30425D02*
X55306Y-30175D01*
X48175Y-49423D02*
X48425Y-49423D01*
X48425Y-49423D02*
X48425Y-49236D01*
X48425Y-49236D02*
X48397Y-49204D01*
X48397Y-49204D02*
X48313Y-49204D01*
X48313Y-49204D02*
X48286Y-49236D01*
X48286Y-49236D02*
X48286Y-49423D01*
X48286Y-49329D02*
X48175Y-49204D01*
X48175Y-49034D02*
X48175Y-48909D01*
X48175Y-48971D02*
X48425Y-48971D01*
X48397Y-48971D02*
X48341Y-49034D01*
X48175Y-48738D02*
X48202Y-48769D01*
X48202Y-48769D02*
X48286Y-48769D01*
X48286Y-48769D02*
X48313Y-48738D01*
X48313Y-48738D02*
X48313Y-48582D01*
X48313Y-48582D02*
X48341Y-48550D01*
X48341Y-48550D02*
X48397Y-48550D01*
X48397Y-48550D02*
X48425Y-48582D01*
X48425Y-48582D02*
X48425Y-48738D01*
X48425Y-48738D02*
X48397Y-48769D01*
X48397Y-48769D02*
X48341Y-48769D01*
X48341Y-48769D02*
X48313Y-48738D01*
X48313Y-48582D02*
X48286Y-48550D01*
X48286Y-48550D02*
X48202Y-48550D01*
X48202Y-48550D02*
X48175Y-48582D01*
X48175Y-48582D02*
X48175Y-48738D01*
X53615Y-31650D02*
X53615Y-31900D01*
X53615Y-31900D02*
X53802Y-31900D01*
X53802Y-31900D02*
X53834Y-31872D01*
X53834Y-31872D02*
X53834Y-31788D01*
X53834Y-31788D02*
X53802Y-31761D01*
X53802Y-31761D02*
X53615Y-31761D01*
X53709Y-31761D02*
X53834Y-31650D01*
X54098Y-31650D02*
X54098Y-31900D01*
X54098Y-31900D02*
X53942Y-31705D01*
X53942Y-31705D02*
X54161Y-31705D01*
X54125Y-33423D02*
X54375Y-33423D01*
X54375Y-33423D02*
X54375Y-33236D01*
X54375Y-33236D02*
X54347Y-33204D01*
X54347Y-33204D02*
X54263Y-33204D01*
X54263Y-33204D02*
X54236Y-33236D01*
X54236Y-33236D02*
X54236Y-33423D01*
X54236Y-33329D02*
X54125Y-33204D01*
X54125Y-33034D02*
X54125Y-32909D01*
X54125Y-32971D02*
X54375Y-32971D01*
X54347Y-32971D02*
X54291Y-33034D01*
X54125Y-32738D02*
X54125Y-32582D01*
X54125Y-32582D02*
X54152Y-32550D01*
X54152Y-32550D02*
X54347Y-32550D01*
X54347Y-32550D02*
X54375Y-32582D01*
X54375Y-32582D02*
X54375Y-32738D01*
X54375Y-32738D02*
X54347Y-32769D01*
X54347Y-32769D02*
X54263Y-32769D01*
X54263Y-32769D02*
X54236Y-32738D01*
X54236Y-32738D02*
X54236Y-32582D01*
X54236Y-32582D02*
X54263Y-32550D01*
X48800Y-50848D02*
X49050Y-50848D01*
X49050Y-50848D02*
X49050Y-50661D01*
X49050Y-50661D02*
X49022Y-50629D01*
X49022Y-50629D02*
X48938Y-50629D01*
X48938Y-50629D02*
X48911Y-50661D01*
X48911Y-50661D02*
X48911Y-50848D01*
X48911Y-50754D02*
X48800Y-50629D01*
X48800Y-50302D02*
X48800Y-50521D01*
X48800Y-50521D02*
X48883Y-50521D01*
X48883Y-50521D02*
X48911Y-50490D01*
X48911Y-50490D02*
X48911Y-50334D01*
X48911Y-50334D02*
X48938Y-50302D01*
X48938Y-50302D02*
X49022Y-50302D01*
X49022Y-50302D02*
X49050Y-50334D01*
X49050Y-50334D02*
X49050Y-50490D01*
X49050Y-50490D02*
X49022Y-50521D01*
X48800Y-50194D02*
X49050Y-49975D01*
X48827Y-50194D02*
X49022Y-50194D01*
X49022Y-50194D02*
X49050Y-50163D01*
X49050Y-50163D02*
X49050Y-50007D01*
X49050Y-50007D02*
X49022Y-49975D01*
X49022Y-49975D02*
X48827Y-49975D01*
X48827Y-49975D02*
X48800Y-50007D01*
X48800Y-50007D02*
X48800Y-50163D01*
X48800Y-50163D02*
X48827Y-50194D01*
X59415Y-66740D02*
X59665Y-66740D01*
X59665Y-66740D02*
X59665Y-66553D01*
X59665Y-66553D02*
X59637Y-66521D01*
X59637Y-66521D02*
X59553Y-66521D01*
X59553Y-66521D02*
X59526Y-66553D01*
X59526Y-66553D02*
X59526Y-66740D01*
X59526Y-66646D02*
X59415Y-66521D01*
X59470Y-66413D02*
X59442Y-66413D01*
X59442Y-66413D02*
X59415Y-66382D01*
X59415Y-66382D02*
X59415Y-66226D01*
X59415Y-66226D02*
X59442Y-66194D01*
X59442Y-66194D02*
X59526Y-66194D01*
X59526Y-66194D02*
X59581Y-66257D01*
X59581Y-66257D02*
X59581Y-66413D01*
X59581Y-66413D02*
X59665Y-66413D01*
X59665Y-66413D02*
X59665Y-66194D01*
X60375Y-66923D02*
X60625Y-66923D01*
X60625Y-66923D02*
X60625Y-66736D01*
X60625Y-66736D02*
X60597Y-66704D01*
X60597Y-66704D02*
X60513Y-66704D01*
X60513Y-66704D02*
X60486Y-66736D01*
X60486Y-66736D02*
X60486Y-66923D01*
X60486Y-66829D02*
X60375Y-66704D01*
X60375Y-66377D02*
X60375Y-66596D01*
X60375Y-66596D02*
X60458Y-66596D01*
X60458Y-66596D02*
X60486Y-66565D01*
X60486Y-66565D02*
X60486Y-66409D01*
X60486Y-66409D02*
X60513Y-66377D01*
X60513Y-66377D02*
X60597Y-66377D01*
X60597Y-66377D02*
X60625Y-66409D01*
X60625Y-66409D02*
X60625Y-66565D01*
X60625Y-66565D02*
X60597Y-66596D01*
X60375Y-66207D02*
X60375Y-66082D01*
X60375Y-66144D02*
X60625Y-66144D01*
X60597Y-66144D02*
X60541Y-66207D01*
X50750Y-52748D02*
X51000Y-52748D01*
X51000Y-52748D02*
X51000Y-52561D01*
X51000Y-52561D02*
X50972Y-52529D01*
X50972Y-52529D02*
X50888Y-52529D01*
X50888Y-52529D02*
X50861Y-52561D01*
X50861Y-52561D02*
X50861Y-52748D01*
X50861Y-52654D02*
X50750Y-52529D01*
X50750Y-52202D02*
X50750Y-52421D01*
X50750Y-52421D02*
X50833Y-52421D01*
X50833Y-52421D02*
X50861Y-52390D01*
X50861Y-52390D02*
X50861Y-52234D01*
X50861Y-52234D02*
X50888Y-52202D01*
X50888Y-52202D02*
X50972Y-52202D01*
X50972Y-52202D02*
X51000Y-52234D01*
X51000Y-52234D02*
X51000Y-52390D01*
X51000Y-52390D02*
X50972Y-52421D01*
X50750Y-51875D02*
X50750Y-52094D01*
X50750Y-52094D02*
X50833Y-52094D01*
X50833Y-52094D02*
X50861Y-52063D01*
X50861Y-52063D02*
X50861Y-51907D01*
X50861Y-51907D02*
X50888Y-51875D01*
X50888Y-51875D02*
X50972Y-51875D01*
X50972Y-51875D02*
X51000Y-51907D01*
X51000Y-51907D02*
X51000Y-52063D01*
X51000Y-52063D02*
X50972Y-52094D01*
X49575Y-52560D02*
X49825Y-52560D01*
X49825Y-52560D02*
X49825Y-52373D01*
X49825Y-52373D02*
X49797Y-52341D01*
X49797Y-52341D02*
X49713Y-52341D01*
X49713Y-52341D02*
X49686Y-52373D01*
X49686Y-52373D02*
X49686Y-52560D01*
X49686Y-52466D02*
X49575Y-52341D01*
X49797Y-52014D02*
X49825Y-52046D01*
X49825Y-52046D02*
X49825Y-52202D01*
X49825Y-52202D02*
X49797Y-52233D01*
X49797Y-52233D02*
X49602Y-52233D01*
X49602Y-52233D02*
X49575Y-52202D01*
X49575Y-52202D02*
X49575Y-52046D01*
X49575Y-52046D02*
X49602Y-52014D01*
X49602Y-52014D02*
X49686Y-52014D01*
X49686Y-52014D02*
X49713Y-52046D01*
X49713Y-52046D02*
X49713Y-52202D01*
X49713Y-52202D02*
X49686Y-52233D01*
X50150Y-50573D02*
X50400Y-50573D01*
X50400Y-50573D02*
X50400Y-50386D01*
X50400Y-50386D02*
X50372Y-50354D01*
X50372Y-50354D02*
X50288Y-50354D01*
X50288Y-50354D02*
X50261Y-50386D01*
X50261Y-50386D02*
X50261Y-50573D01*
X50261Y-50479D02*
X50150Y-50354D01*
X50150Y-50027D02*
X50150Y-50246D01*
X50150Y-50246D02*
X50233Y-50246D01*
X50233Y-50246D02*
X50261Y-50215D01*
X50261Y-50215D02*
X50261Y-50059D01*
X50261Y-50059D02*
X50288Y-50027D01*
X50288Y-50027D02*
X50372Y-50027D01*
X50372Y-50027D02*
X50400Y-50059D01*
X50400Y-50059D02*
X50400Y-50215D01*
X50400Y-50215D02*
X50372Y-50246D01*
X50400Y-49919D02*
X50400Y-49700D01*
X50400Y-49700D02*
X50372Y-49700D01*
X50372Y-49700D02*
X50288Y-49825D01*
X50288Y-49825D02*
X50288Y-49732D01*
X50288Y-49732D02*
X50261Y-49700D01*
X50261Y-49700D02*
X50177Y-49700D01*
X50177Y-49700D02*
X50150Y-49732D01*
X50150Y-49732D02*
X50150Y-49888D01*
X50150Y-49888D02*
X50177Y-49919D01*
X52750Y-55048D02*
X53000Y-55048D01*
X53000Y-55048D02*
X53000Y-54861D01*
X53000Y-54861D02*
X52972Y-54829D01*
X52972Y-54829D02*
X52888Y-54829D01*
X52888Y-54829D02*
X52861Y-54861D01*
X52861Y-54861D02*
X52861Y-55048D01*
X52861Y-54954D02*
X52750Y-54829D01*
X52750Y-54502D02*
X52750Y-54721D01*
X52750Y-54721D02*
X52833Y-54721D01*
X52833Y-54721D02*
X52861Y-54690D01*
X52861Y-54690D02*
X52861Y-54534D01*
X52861Y-54534D02*
X52888Y-54502D01*
X52888Y-54502D02*
X52972Y-54502D01*
X52972Y-54502D02*
X53000Y-54534D01*
X53000Y-54534D02*
X53000Y-54690D01*
X53000Y-54690D02*
X52972Y-54721D01*
X52750Y-54238D02*
X53000Y-54238D01*
X53000Y-54238D02*
X52805Y-54394D01*
X52805Y-54394D02*
X52805Y-54175D01*
X51300Y-50835D02*
X51550Y-50835D01*
X51550Y-50835D02*
X51550Y-50648D01*
X51550Y-50648D02*
X51522Y-50616D01*
X51522Y-50616D02*
X51438Y-50616D01*
X51438Y-50616D02*
X51411Y-50648D01*
X51411Y-50648D02*
X51411Y-50835D01*
X51411Y-50741D02*
X51300Y-50616D01*
X51550Y-50508D02*
X51550Y-50289D01*
X51550Y-50289D02*
X51300Y-50508D01*
X51950Y-54023D02*
X52200Y-54023D01*
X52200Y-54023D02*
X52200Y-53836D01*
X52200Y-53836D02*
X52172Y-53804D01*
X52172Y-53804D02*
X52088Y-53804D01*
X52088Y-53804D02*
X52061Y-53836D01*
X52061Y-53836D02*
X52061Y-54023D01*
X52061Y-53929D02*
X51950Y-53804D01*
X51950Y-53477D02*
X51950Y-53696D01*
X51950Y-53696D02*
X52033Y-53696D01*
X52033Y-53696D02*
X52061Y-53665D01*
X52061Y-53665D02*
X52061Y-53509D01*
X52061Y-53509D02*
X52088Y-53477D01*
X52088Y-53477D02*
X52172Y-53477D01*
X52172Y-53477D02*
X52200Y-53509D01*
X52200Y-53509D02*
X52200Y-53665D01*
X52200Y-53665D02*
X52172Y-53696D01*
X52005Y-53369D02*
X51977Y-53369D01*
X51977Y-53369D02*
X51950Y-53338D01*
X51950Y-53338D02*
X51950Y-53182D01*
X51950Y-53182D02*
X51977Y-53150D01*
X51977Y-53150D02*
X52061Y-53150D01*
X52061Y-53150D02*
X52116Y-53213D01*
X52116Y-53213D02*
X52116Y-53369D01*
X52116Y-53369D02*
X52200Y-53369D01*
X52200Y-53369D02*
X52200Y-53150D01*
X56025Y-63648D02*
X56275Y-63648D01*
X56275Y-63648D02*
X56275Y-63461D01*
X56275Y-63461D02*
X56247Y-63429D01*
X56247Y-63429D02*
X56163Y-63429D01*
X56163Y-63429D02*
X56136Y-63461D01*
X56136Y-63461D02*
X56136Y-63648D01*
X56136Y-63554D02*
X56025Y-63429D01*
X56025Y-63102D02*
X56025Y-63321D01*
X56025Y-63321D02*
X56108Y-63321D01*
X56108Y-63321D02*
X56136Y-63290D01*
X56136Y-63290D02*
X56136Y-63134D01*
X56136Y-63134D02*
X56163Y-63102D01*
X56163Y-63102D02*
X56247Y-63102D01*
X56247Y-63102D02*
X56275Y-63134D01*
X56275Y-63134D02*
X56275Y-63290D01*
X56275Y-63290D02*
X56247Y-63321D01*
X56247Y-62775D02*
X56275Y-62807D01*
X56275Y-62807D02*
X56275Y-62963D01*
X56275Y-62963D02*
X56247Y-62994D01*
X56247Y-62994D02*
X56052Y-62994D01*
X56052Y-62994D02*
X56025Y-62963D01*
X56025Y-62963D02*
X56025Y-62807D01*
X56025Y-62807D02*
X56052Y-62775D01*
X56052Y-62775D02*
X56136Y-62775D01*
X56136Y-62775D02*
X56163Y-62807D01*
X56163Y-62807D02*
X56163Y-62963D01*
X56163Y-62963D02*
X56136Y-62994D01*
X54525Y-59485D02*
X54775Y-59485D01*
X54775Y-59485D02*
X54775Y-59298D01*
X54775Y-59298D02*
X54747Y-59266D01*
X54747Y-59266D02*
X54663Y-59266D01*
X54663Y-59266D02*
X54636Y-59298D01*
X54636Y-59298D02*
X54636Y-59485D01*
X54636Y-59391D02*
X54525Y-59266D01*
X54525Y-59127D02*
X54552Y-59158D01*
X54552Y-59158D02*
X54636Y-59158D01*
X54636Y-59158D02*
X54663Y-59127D01*
X54663Y-59127D02*
X54663Y-58971D01*
X54663Y-58971D02*
X54691Y-58939D01*
X54691Y-58939D02*
X54747Y-58939D01*
X54747Y-58939D02*
X54775Y-58971D01*
X54775Y-58971D02*
X54775Y-59127D01*
X54775Y-59127D02*
X54747Y-59158D01*
X54747Y-59158D02*
X54691Y-59158D01*
X54691Y-59158D02*
X54663Y-59127D01*
X54663Y-58971D02*
X54636Y-58939D01*
X54636Y-58939D02*
X54552Y-58939D01*
X54552Y-58939D02*
X54525Y-58971D01*
X54525Y-58971D02*
X54525Y-59127D01*
X55275Y-61073D02*
X55525Y-61073D01*
X55525Y-61073D02*
X55525Y-60886D01*
X55525Y-60886D02*
X55497Y-60854D01*
X55497Y-60854D02*
X55413Y-60854D01*
X55413Y-60854D02*
X55386Y-60886D01*
X55386Y-60886D02*
X55386Y-61073D01*
X55386Y-60979D02*
X55275Y-60854D01*
X55275Y-60527D02*
X55275Y-60746D01*
X55275Y-60746D02*
X55358Y-60746D01*
X55358Y-60746D02*
X55386Y-60715D01*
X55386Y-60715D02*
X55386Y-60559D01*
X55386Y-60559D02*
X55413Y-60527D01*
X55413Y-60527D02*
X55497Y-60527D01*
X55497Y-60527D02*
X55525Y-60559D01*
X55525Y-60559D02*
X55525Y-60715D01*
X55525Y-60715D02*
X55497Y-60746D01*
X55525Y-60419D02*
X55525Y-60200D01*
X55525Y-60200D02*
X55275Y-60419D01*
X53652Y-92329D02*
X53625Y-92361D01*
X53625Y-92361D02*
X53625Y-92517D01*
X53625Y-92517D02*
X53652Y-92548D01*
X53652Y-92548D02*
X53847Y-92548D01*
X53847Y-92548D02*
X53875Y-92517D01*
X53875Y-92517D02*
X53875Y-92361D01*
X53875Y-92361D02*
X53847Y-92329D01*
X53625Y-92159D02*
X53625Y-92034D01*
X53625Y-92096D02*
X53875Y-92096D01*
X53847Y-92096D02*
X53791Y-92159D01*
X53625Y-91894D02*
X53875Y-91675D01*
X53652Y-91894D02*
X53847Y-91894D01*
X53847Y-91894D02*
X53875Y-91863D01*
X53875Y-91863D02*
X53875Y-91707D01*
X53875Y-91707D02*
X53847Y-91675D01*
X53847Y-91675D02*
X53652Y-91675D01*
X53652Y-91675D02*
X53625Y-91707D01*
X53625Y-91707D02*
X53625Y-91863D01*
X53625Y-91863D02*
X53652Y-91894D01*
X59702Y-95744D02*
X59675Y-95776D01*
X59675Y-95776D02*
X59675Y-95932D01*
X59675Y-95932D02*
X59702Y-95963D01*
X59702Y-95963D02*
X59897Y-95963D01*
X59897Y-95963D02*
X59925Y-95932D01*
X59925Y-95932D02*
X59925Y-95776D01*
X59925Y-95776D02*
X59897Y-95744D01*
X59675Y-95574D02*
X59675Y-95449D01*
X59675Y-95511D02*
X59925Y-95511D01*
X59897Y-95511D02*
X59841Y-95574D01*
X59675Y-95247D02*
X59675Y-95122D01*
X59675Y-95184D02*
X59925Y-95184D01*
X59897Y-95184D02*
X59841Y-95247D01*
X57425Y-63873D02*
X57675Y-63873D01*
X57675Y-63873D02*
X57675Y-63686D01*
X57675Y-63686D02*
X57647Y-63654D01*
X57647Y-63654D02*
X57563Y-63654D01*
X57563Y-63654D02*
X57536Y-63686D01*
X57536Y-63686D02*
X57536Y-63873D01*
X57536Y-63779D02*
X57425Y-63654D01*
X57425Y-63327D02*
X57425Y-63546D01*
X57425Y-63546D02*
X57508Y-63546D01*
X57508Y-63546D02*
X57536Y-63515D01*
X57536Y-63515D02*
X57536Y-63359D01*
X57536Y-63359D02*
X57563Y-63327D01*
X57563Y-63327D02*
X57647Y-63327D01*
X57647Y-63327D02*
X57675Y-63359D01*
X57675Y-63359D02*
X57675Y-63515D01*
X57675Y-63515D02*
X57647Y-63546D01*
X57425Y-63188D02*
X57452Y-63219D01*
X57452Y-63219D02*
X57536Y-63219D01*
X57536Y-63219D02*
X57563Y-63188D01*
X57563Y-63188D02*
X57563Y-63032D01*
X57563Y-63032D02*
X57591Y-63000D01*
X57591Y-63000D02*
X57647Y-63000D01*
X57647Y-63000D02*
X57675Y-63032D01*
X57675Y-63032D02*
X57675Y-63188D01*
X57675Y-63188D02*
X57647Y-63219D01*
X57647Y-63219D02*
X57591Y-63219D01*
X57591Y-63219D02*
X57563Y-63188D01*
X57563Y-63032D02*
X57536Y-63000D01*
X57536Y-63000D02*
X57452Y-63000D01*
X57452Y-63000D02*
X57425Y-63032D01*
X57425Y-63032D02*
X57425Y-63188D01*
X57010Y-94046D02*
X57310Y-94046D01*
X57310Y-94084D02*
X57310Y-93859D01*
X57310Y-93859D02*
X57276Y-93821D01*
X57276Y-93821D02*
X57043Y-93821D01*
X57043Y-93821D02*
X57010Y-93859D01*
X57010Y-93859D02*
X57010Y-94084D01*
X57010Y-93626D02*
X57010Y-93476D01*
X57010Y-93551D02*
X57310Y-93551D01*
X57276Y-93551D02*
X57210Y-93626D01*
X51484Y-91500D02*
X51484Y-91800D01*
X51446Y-91800D02*
X51671Y-91800D01*
X51671Y-91800D02*
X51709Y-91766D01*
X51709Y-91766D02*
X51709Y-91533D01*
X51709Y-91533D02*
X51671Y-91500D01*
X51671Y-91500D02*
X51446Y-91500D01*
X52092Y-91500D02*
X51829Y-91500D01*
X51829Y-91500D02*
X51829Y-91600D01*
X51829Y-91600D02*
X51867Y-91633D01*
X51867Y-91633D02*
X52054Y-91633D01*
X52054Y-91633D02*
X52092Y-91666D01*
X52092Y-91666D02*
X52092Y-91766D01*
X52092Y-91766D02*
X52054Y-91800D01*
X52054Y-91800D02*
X51867Y-91800D01*
X51867Y-91800D02*
X51829Y-91766D01*
G54D33*
X50275Y-95722D02*
X50625Y-95722D01*
X50625Y-95722D02*
X50675Y-95666D01*
X50675Y-95666D02*
X50675Y-95385D01*
X50675Y-95385D02*
X50625Y-95328D01*
X50625Y-95328D02*
X50275Y-95328D01*
X50275Y-95328D02*
X50225Y-95385D01*
X50225Y-95385D02*
X50225Y-95666D01*
X50225Y-95666D02*
X50275Y-95722D01*
X50425Y-95441D02*
X50225Y-95328D01*
X50225Y-95050D02*
X50225Y-94825D01*
X50225Y-94937D02*
X50675Y-94937D01*
X50625Y-94937D02*
X50525Y-95050D01*
X50225Y-94602D02*
X50675Y-94208D01*
X50275Y-94602D02*
X50625Y-94602D01*
X50625Y-94602D02*
X50675Y-94546D01*
X50675Y-94546D02*
X50675Y-94265D01*
X50675Y-94265D02*
X50625Y-94208D01*
X50625Y-94208D02*
X50275Y-94208D01*
X50275Y-94208D02*
X50225Y-94265D01*
X50225Y-94265D02*
X50225Y-94546D01*
X50225Y-94546D02*
X50275Y-94602D01*
G54D29*
X53300Y-94700D02*
X53033Y-94700D01*
X53033Y-94700D02*
X53000Y-94669D01*
X53000Y-94669D02*
X53000Y-94513D01*
X53000Y-94513D02*
X53033Y-94481D01*
X53033Y-94481D02*
X53300Y-94481D01*
X53300Y-94373D02*
X53300Y-94154D01*
X53300Y-94154D02*
X53266Y-94154D01*
X53266Y-94154D02*
X53166Y-94279D01*
X53166Y-94279D02*
X53166Y-94186D01*
X53166Y-94186D02*
X53133Y-94154D01*
X53133Y-94154D02*
X53033Y-94154D01*
X53033Y-94154D02*
X53000Y-94186D01*
X53000Y-94186D02*
X53000Y-94342D01*
X53000Y-94342D02*
X53033Y-94373D01*
G54D31*
X57183Y-40731D02*
X57416Y-40731D01*
X57416Y-40731D02*
X57450Y-40693D01*
X57450Y-40693D02*
X57450Y-40506D01*
X57450Y-40506D02*
X57416Y-40468D01*
X57416Y-40468D02*
X57183Y-40468D01*
X57183Y-40468D02*
X57150Y-40506D01*
X57150Y-40506D02*
X57150Y-40693D01*
X57150Y-40693D02*
X57183Y-40731D01*
X57283Y-40543D02*
X57150Y-40468D01*
X57150Y-40243D02*
X57150Y-40093D01*
X57150Y-40168D02*
X57450Y-40168D01*
X57416Y-40168D02*
X57350Y-40243D01*
X60083Y-39631D02*
X60316Y-39631D01*
X60316Y-39631D02*
X60350Y-39593D01*
X60350Y-39593D02*
X60350Y-39406D01*
X60350Y-39406D02*
X60316Y-39368D01*
X60316Y-39368D02*
X60083Y-39368D01*
X60083Y-39368D02*
X60050Y-39406D01*
X60050Y-39406D02*
X60050Y-39593D01*
X60050Y-39593D02*
X60083Y-39631D01*
X60183Y-39443D02*
X60050Y-39368D01*
X60050Y-38955D02*
X60050Y-39218D01*
X60050Y-39218D02*
X60150Y-39218D01*
X60150Y-39218D02*
X60183Y-39180D01*
X60183Y-39180D02*
X60183Y-38993D01*
X60183Y-38993D02*
X60216Y-38955D01*
X60216Y-38955D02*
X60316Y-38955D01*
X60316Y-38955D02*
X60350Y-38993D01*
X60350Y-38993D02*
X60350Y-39180D01*
X60350Y-39180D02*
X60316Y-39218D01*
X60833Y-40831D02*
X61066Y-40831D01*
X61066Y-40831D02*
X61100Y-40793D01*
X61100Y-40793D02*
X61100Y-40606D01*
X61100Y-40606D02*
X61066Y-40568D01*
X61066Y-40568D02*
X60833Y-40568D01*
X60833Y-40568D02*
X60800Y-40606D01*
X60800Y-40606D02*
X60800Y-40793D01*
X60800Y-40793D02*
X60833Y-40831D01*
X60933Y-40643D02*
X60800Y-40568D01*
X61100Y-40418D02*
X61100Y-40155D01*
X61100Y-40155D02*
X61066Y-40155D01*
X61066Y-40155D02*
X60966Y-40305D01*
X60966Y-40305D02*
X60966Y-40193D01*
X60966Y-40193D02*
X60933Y-40155D01*
X60933Y-40155D02*
X60833Y-40155D01*
X60833Y-40155D02*
X60800Y-40193D01*
X60800Y-40193D02*
X60800Y-40380D01*
X60800Y-40380D02*
X60833Y-40418D01*
X59283Y-41981D02*
X59516Y-41981D01*
X59516Y-41981D02*
X59550Y-41943D01*
X59550Y-41943D02*
X59550Y-41756D01*
X59550Y-41756D02*
X59516Y-41718D01*
X59516Y-41718D02*
X59283Y-41718D01*
X59283Y-41718D02*
X59250Y-41756D01*
X59250Y-41756D02*
X59250Y-41943D01*
X59250Y-41943D02*
X59283Y-41981D01*
X59383Y-41793D02*
X59250Y-41718D01*
X59250Y-41380D02*
X59550Y-41380D01*
X59550Y-41380D02*
X59316Y-41568D01*
X59316Y-41568D02*
X59316Y-41305D01*
X58533Y-41681D02*
X58766Y-41681D01*
X58766Y-41681D02*
X58800Y-41643D01*
X58800Y-41643D02*
X58800Y-41456D01*
X58800Y-41456D02*
X58766Y-41418D01*
X58766Y-41418D02*
X58533Y-41418D01*
X58533Y-41418D02*
X58500Y-41456D01*
X58500Y-41456D02*
X58500Y-41643D01*
X58500Y-41643D02*
X58533Y-41681D01*
X58633Y-41493D02*
X58500Y-41418D01*
X58566Y-41268D02*
X58533Y-41268D01*
X58533Y-41268D02*
X58500Y-41230D01*
X58500Y-41230D02*
X58500Y-41043D01*
X58500Y-41043D02*
X58533Y-41005D01*
X58533Y-41005D02*
X58633Y-41005D01*
X58633Y-41005D02*
X58700Y-41080D01*
X58700Y-41080D02*
X58700Y-41268D01*
X58700Y-41268D02*
X58800Y-41268D01*
X58800Y-41268D02*
X58800Y-41005D01*
X61133Y-43281D02*
X61366Y-43281D01*
X61366Y-43281D02*
X61400Y-43243D01*
X61400Y-43243D02*
X61400Y-43056D01*
X61400Y-43056D02*
X61366Y-43018D01*
X61366Y-43018D02*
X61133Y-43018D01*
X61133Y-43018D02*
X61100Y-43056D01*
X61100Y-43056D02*
X61100Y-43243D01*
X61100Y-43243D02*
X61133Y-43281D01*
X61233Y-43093D02*
X61100Y-43018D01*
X61366Y-42605D02*
X61400Y-42643D01*
X61400Y-42643D02*
X61400Y-42830D01*
X61400Y-42830D02*
X61366Y-42868D01*
X61366Y-42868D02*
X61133Y-42868D01*
X61133Y-42868D02*
X61100Y-42830D01*
X61100Y-42830D02*
X61100Y-42643D01*
X61100Y-42643D02*
X61133Y-42605D01*
X61133Y-42605D02*
X61233Y-42605D01*
X61233Y-42605D02*
X61266Y-42643D01*
X61266Y-42643D02*
X61266Y-42830D01*
X61266Y-42830D02*
X61233Y-42868D01*
X55950Y-49116D02*
X55416Y-49116D01*
X55416Y-49116D02*
X55350Y-49066D01*
X55350Y-49066D02*
X55350Y-48816D01*
X55350Y-48816D02*
X55416Y-48766D01*
X55416Y-48766D02*
X55950Y-48766D01*
X55350Y-48242D02*
X55350Y-48592D01*
X55350Y-48592D02*
X55550Y-48592D01*
X55550Y-48592D02*
X55616Y-48542D01*
X55616Y-48542D02*
X55616Y-48292D01*
X55616Y-48292D02*
X55683Y-48242D01*
X55683Y-48242D02*
X55883Y-48242D01*
X55883Y-48242D02*
X55950Y-48292D01*
X55950Y-48292D02*
X55950Y-48542D01*
X55950Y-48542D02*
X55883Y-48592D01*
G54D32*
X51588Y-88324D02*
X50988Y-88324D01*
X50988Y-88324D02*
X50988Y-87724D01*
X50988Y-87388D02*
X50988Y-87088D01*
X50988Y-87238D02*
X51588Y-87238D01*
X51521Y-87238D02*
X51388Y-87388D01*
X51775Y-88585D02*
X51775Y-89110D01*
X51775Y-89110D02*
X51975Y-89110D01*
X51975Y-89110D02*
X52041Y-89035D01*
X52041Y-89035D02*
X52041Y-88660D01*
X52041Y-88660D02*
X52108Y-88585D01*
X52108Y-88585D02*
X52308Y-88585D01*
X52308Y-88585D02*
X52375Y-88660D01*
X52375Y-88660D02*
X52375Y-89035D01*
X52375Y-89035D02*
X52308Y-89110D01*
X51775Y-87799D02*
X51775Y-88324D01*
X51775Y-88324D02*
X51975Y-88324D01*
X51975Y-88324D02*
X52041Y-88249D01*
X52041Y-88249D02*
X52041Y-87874D01*
X52041Y-87874D02*
X52108Y-87799D01*
X52108Y-87799D02*
X52308Y-87799D01*
X52308Y-87799D02*
X52375Y-87874D01*
X52375Y-87874D02*
X52375Y-88249D01*
X52375Y-88249D02*
X52308Y-88324D01*
X52175Y-87538D02*
X51908Y-87538D01*
X51908Y-87538D02*
X51775Y-87388D01*
X51775Y-87388D02*
X51775Y-87163D01*
X51775Y-87163D02*
X51908Y-87013D01*
X51908Y-87013D02*
X52175Y-87013D01*
X51775Y-86752D02*
X52375Y-86752D01*
X51775Y-86227D02*
X52375Y-86227D01*
X52041Y-86752D02*
X52041Y-86227D01*
G54D29*
X52377Y-95735D02*
X52377Y-95985D01*
X52377Y-95985D02*
X52564Y-95985D01*
X52564Y-95985D02*
X52596Y-95957D01*
X52596Y-95957D02*
X52596Y-95873D01*
X52596Y-95873D02*
X52564Y-95846D01*
X52564Y-95846D02*
X52377Y-95846D01*
X52471Y-95846D02*
X52596Y-95735D01*
X52923Y-95735D02*
X52704Y-95735D01*
X52704Y-95735D02*
X52704Y-95818D01*
X52704Y-95818D02*
X52735Y-95846D01*
X52735Y-95846D02*
X52891Y-95846D01*
X52891Y-95846D02*
X52923Y-95873D01*
X52923Y-95873D02*
X52923Y-95957D01*
X52923Y-95957D02*
X52891Y-95985D01*
X52891Y-95985D02*
X52735Y-95985D01*
X52735Y-95985D02*
X52704Y-95957D01*
X53062Y-95735D02*
X53218Y-95735D01*
X53218Y-95735D02*
X53250Y-95762D01*
X53250Y-95762D02*
X53250Y-95957D01*
X53250Y-95957D02*
X53218Y-95985D01*
X53218Y-95985D02*
X53062Y-95985D01*
X53062Y-95985D02*
X53031Y-95957D01*
X53031Y-95957D02*
X53031Y-95873D01*
X53031Y-95873D02*
X53062Y-95846D01*
X53062Y-95846D02*
X53218Y-95846D01*
X53218Y-95846D02*
X53250Y-95873D01*
M02*
